<svg viewBox="0 0 140 124" xmlns="http://www.w3.org/2000/svg"><defs><radialGradient cx="14.3780526%" cy="6.75293597%" r="86.4267666%" gradientTransform="matrix(.89063 0 0 1 .016 0)" id="0"><stop stop-color="#ffffff" stop-opacity=".1" offset="0%"/><stop stop-color="#ffffff" stop-opacity="0" offset="100%"/></radialGradient></defs><g fill="none" fill-rule="nonzero"><path d="m91.36 99.19l-14.237 24.796h-37.29c-3.326-.001-6.398-1.784-8.05-4.675l-30.16-52.682c-1.637-2.864-1.637-6.384 0-9.248l11.477-20.04 14.166 24.661 21.356 37.19h42.736" fill="#fbbc05"/><path d="m138.37 66.63l-30.16 52.69c-1.653 2.893-4.725 4.677-8.05 4.675h-23.04l14.237-24.796 21.372-37.2-21.372-37.19h28.364l18.643 32.57c1.652 2.86 1.655 6.385.008 9.248" fill="#ea4335"/><path d="m119.73 24.81h-71.1l-21.356 37.19-14.166-24.669 18.683-32.641c1.653-2.893 4.725-4.677 8.05-4.676h60.33c3.326.003 6.396 1.786 8.05 4.675l11.508 20.12" fill="#4285f4"/><path fill="#e0e0e0" d="m91.36 24.81l21.36 37.19-21.36 37.19h-42.724l-21.366-37.19 21.358-37.19h42.732"/><g fill="#ffffff"><ellipse cx="70" cy="62" rx="18.564" ry="18.599"/><path d="m31.789 5.458c1.653-2.893 4.725-4.677 8.05-4.675h60.33c3.326.003 6.396 1.786 8.05 4.675l11.07 19.352h.443l-11.516-20.12c-1.653-2.893-4.725-4.677-8.05-4.675h-60.33c-3.326.001-6.398 1.784-8.05 4.675l-18.683 32.641.222.388 18.461-32.26" opacity=".2"/></g><path fill-opacity=".2" fill="#1a237e" d="m27.27 62l21.359-37.19h71.1l-.45-.78h-70.65l-21.359 37.19"/><path d="m1.629 58.15l11.477-20.05 14.166 24.669 21.356 37.19h42.28l.451-.777h-42.736l-21.356-37.18-14.166-24.669-11.477 20.04c-.865 1.525-1.284 3.264-1.21 5.02.06-1.49.475-2.944 1.21-4.24" fill="#ffffff" opacity=".2"/><path d="m77.57 62.4h-37.729c-3.326-.001-6.398-1.784-8.05-4.675l-30.16-52.682c-.736-1.296-1.151-2.75-1.21-4.24-.081 1.753.339 3.493 1.21 5.02l30.16 52.69c1.653 2.893 4.725 4.677 8.05 4.675h37.29l.443-.785" transform="translate(0 60.811)" opacity=".2" fill="#bf360c"/><g opacity=".2" transform="translate(77.12 23.962)" fill="#3e2723"><path d="m36.04 38.04l-21.352-37.19h-.442l21.363 37.19z"/><path d="m61.25 41.889l-30.16 52.69c-1.653 2.893-4.725 4.677-8.05 4.675h-22.59l-.451.777h23.04c3.326-.003 6.396-1.786 8.05-4.675l30.16-52.69c.867-1.524 1.287-3.263 1.21-5.02-.06 1.49-.475 2.944-1.21 4.24"/></g><g opacity=".2" transform="translate(77.12 23.962)" fill="#ffffff"><path d="m42.609 1.617l18.643 32.57c.736 1.296 1.151 2.75 1.21 4.24.081-1.753-.339-3.493-1.21-5.02l-18.643-32.57h-28.364l.451.777"/><path d="m14.246 76l21.794-37.96h-.431l-21.363 37.19-14.238 24.79h.443z"/></g><path d="m138.37 57.37l-18.643-32.57-11.516-20.12c-1.653-2.893-4.725-4.677-8.05-4.675h-60.32c-3.326.001-6.398 1.784-8.05 4.675l-30.16 52.69c-1.637 2.864-1.637 6.384 0 9.248l30.16 52.69c1.653 2.893 4.725 4.677 8.05 4.675h60.33c3.326-.003 6.396-1.786 8.05-4.675l30.16-52.69c1.639-2.865 1.636-6.386-.008-9.248" fill="url(#0)"/></g></svg>