<svg height="128" viewBox="0 0 142 128" width="142" xmlns="http://www.w3.org/2000/svg"><g fill="none" fill-rule="evenodd" transform=""><path d="m94 62h20v4h-20z" fill="#f0edf8"/><path d="m79.753048 92.253048h25v4h-25z" fill="#fee1d3" transform="matrix(.70710678 .70710678 -.70710678 .70710678 93.667262 -37.626677)"/><path d="m37.753048 32.253048h25v4h-25z" fill="#f0edf8" transform="matrix(.70710678 .70710678 -.70710678 .70710678 38.93934 -25.501786)"/><path d="m37.753048 92.253048h25v4h-25z" fill="#f0edf8" transform="matrix(.70710678 -.70710678 .70710678 .70710678 -51.928192 63.14035)"/><path d="m79.753048 32.253048h25v4h-25z" fill="#fee1d3" transform="matrix(.70710678 -.70710678 .70710678 .70710678 2.79973 75.265241)"/><path d="m28 62h20v4h-20z" fill="#fee1d3"/><path d="m3 52h24v24h-24z" fill="#fee1d3"/><path d="m31 3h24v24h-24z" fill="#f0edf8"/><path d="m87 3h24v24h-24z" fill="#fef0e8"/><path d="m115 52h24v24h-24z" fill="#f0edf8"/><path d="m87 101h24v24h-24z" fill="#fee1d3"/><path d="m31 101h24v24h-24z" fill="#f0edf8"/><path d="m49 42h44v44h-44z" fill="#c3b8e3"/><g fill-rule="nonzero"><path d="m5 53c-.55228475 0-1 .4477153-1 1v20c0 .5522847.44771525 1 1 1h20c .5522847 0 1-.4477153 1-1v-20c0-.5522847-.4477153-1-1-1zm0-4h20c2.7614237 0 5 2.2385763 5 5v20c0 2.7614237-2.2385763 5-5 5h-20c-2.76142375 0-5-2.2385763-5-5v-20c0-2.7614237 2.23857625-5 5-5z" fill="#fdc4a8"/><path d="m56 43c-3.3137085 0-6 2.6862915-6 6v30c0 3.3137085 2.6862915 6 6 6h30c3.3137085 0 6-2.6862915 6-6v-30c0-3.3137085-2.6862915-6-6-6zm0-4h30c5.5228475 0 10 4.4771525 10 10v30c0 5.5228475-4.4771525 10-10 10h-30c-5.5228475 0-10-4.4771525-10-10v-30c0-5.5228475 4.4771525-10 10-10z" fill="#6b4fbb"/><path d="m89 4c-.5522847 0-1 .44771525-1 1v20c0 .5522847.4477153 1 1 1h20c .552285 0 1-.4477153 1-1v-20c0-.55228475-.447715-1-1-1zm0-4h20c2.761424 0 5 2.23857625 5 5v20c0 2.7614237-2.238576 5-5 5h-20c-2.7614237 0-5-2.2385763-5-5v-20c0-2.76142375 2.2385763-5 5-5z" fill="#fee1d3"/><path d="m89 102c-.5522847 0-1 .447715-1 1v20c0 .552285.4477153 1 1 1h20c .552285 0 1-.447715 1-1v-20c0-.552285-.447715-1-1-1zm0-4h20c2.761424 0 5 2.238576 5 5v20c0 2.761424-2.238576 5-5 5h-20c-2.7614237 0-5-2.238576-5-5v-20c0-2.761424 2.2385763-5 5-5z" fill="#fdc4a8"/><path d="m117 53c-.552285 0-1 .4477153-1 1v20c0 .5522847.447715 1 1 1h20c .552285 0 1-.4477153 1-1v-20c0-.5522847-.447715-1-1-1zm0-4h20c2.761424 0 5 2.2385763 5 5v20c0 2.7614237-2.238576 5-5 5h-20c-2.761424 0-5-2.2385763-5-5v-20c0-2.7614237 2.238576-5 5-5z" fill="#e1dbf1"/><path d="m33 102c-.5522847 0-1 .447715-1 1v20c0 .552285.4477153 1 1 1h20c .5522847 0 1-.447715 1-1v-20c0-.552285-.4477153-1-1-1zm0-4h20c2.7614237 0 5 2.238576 5 5v20c0 2.761424-2.2385763 5-5 5h-20c-2.7614237 0-5-2.238576-5-5v-20c0-2.761424 2.2385763-5 5-5z" fill="#e1dbf1"/><path d="m33 4c-.5522847 0-1 .44771525-1 1v20c0 .5522847.4477153 1 1 1h20c .5522847 0 1-.4477153 1-1v-20c0-.55228475-.4477153-1-1-1zm0-4h20c2.7614237 0 5 2.23857625 5 5v20c0 2.7614237-2.2385763 5-5 5h-20c-2.7614237 0-5-2.2385763-5-5v-20c0-2.76142375 2.2385763-5 5-5z" fill="#e1dbf1"/></g></g></svg>