<svg xmlns="http://www.w3.org/2000/svg" width="142" height="104" viewBox="0 0 142 104">
  <g fill="none" fill-rule="evenodd">
    <g transform="translate(112 4)">
      <path fill="#FFF" d="M8 4C5.790861 4 4 5.790861 4 8v14c0 2.209139 1.790861 4 4 4h14c2.209139 0 4-1.790861 4-4V8c0-2.209139-1.790861-4-4-4H8z"/>
      <path fill="#FDC4A8" fill-rule="nonzero" d="M8 4C5.790861 4 4 5.790861 4 8v14c0 2.209139 1.790861 4 4 4h14c2.209139 0 4-1.790861 4-4V8c0-2.209139-1.790861-4-4-4H8zm0-4h14c4.418278 0 8 3.581722 8 8v14c0 4.418278-3.581722 8-8 8H8c-4.418278 0-8-3.581722-8-8V8c0-4.418278 3.581722-8 8-8z"/>
      <rect width="10" height="10" x="10" y="10" fill="#FC6D26" rx="5"/>
    </g>
    <g transform="translate(5 74)">
      <rect width="30" height="30" fill="#FFF" rx="8"/>
      <path fill="#E1DBF1" fill-rule="nonzero" d="M8 4C5.790861 4 4 5.790861 4 8v14c0 2.209139 1.790861 4 4 4h14c2.209139 0 4-1.790861 4-4V8c0-2.209139-1.790861-4-4-4H8zm0-4h14c4.418278 0 8 3.581722 8 8v14c0 4.418278-3.581722 8-8 8H8c-4.418278 0-8-3.581722-8-8V8c0-4.418278 3.581722-8 8-8z"/>
      <rect width="10" height="10" x="10" y="10" fill="#6B4FBB" rx="5"/>
    </g>
    <path fill="#FFF" d="M6 4c-1.1045695 0-2 .8954305-2 2v12c0 1.1045695.8954305 2 2 2h12c1.1045695 0 2-.8954305 2-2V6c0-1.1045695-.8954305-2-2-2H6z"/>
    <path fill="#FDC4A8" fill-rule="nonzero" d="M6 4c-1.1045695 0-2 .8954305-2 2v12c0 1.1045695.8954305 2 2 2h12c1.1045695 0 2-.8954305 2-2V6c0-1.1045695-.8954305-2-2-2H6zm0-4h12c3.3137085 0 6 2.6862915 6 6v12c0 3.3137085-2.6862915 6-6 6H6c-3.3137085 0-6-2.6862915-6-6V6c0-3.3137085 2.6862915-6 6-6z"/>
    <rect width="8" height="8" x="8" y="8" fill="#FC6D26" rx="4"/>
    <g transform="translate(112 77)">
      <rect width="24" height="24" fill="#FFF" rx="6"/>
      <path fill="#E1DBF1" fill-rule="nonzero" d="M6 4c-1.1045695 0-2 .8954305-2 2v12c0 1.1045695.8954305 2 2 2h12c1.1045695 0 2-.8954305 2-2V6c0-1.1045695-.8954305-2-2-2H6zm0-4h12c3.3137085 0 6 2.6862915 6 6v12c0 3.3137085-2.6862915 6-6 6H6c-3.3137085 0-6-2.6862915-6-6V6c0-3.3137085 2.6862915-6 6-6z"/>
      <rect width="8" height="8" x="8" y="8" fill="#6B4FBB" rx="4"/>
    </g>
    <g transform="translate(46 29)">
      <rect width="46" height="46" y="2" fill="#E1DBF1" rx="10"/>
      <rect width="46" height="46" fill="#E1DBF1" rx="10"/>
      <path fill="#C3B8E3" fill-rule="nonzero" d="M10 4c-3.3137085 0-6 2.6862915-6 6v26c0 3.3137085 2.6862915 6 6 6h26c3.3137085 0 6-2.6862915 6-6V10c0-3.3137085-2.6862915-6-6-6H10zm0-4h26c5.5228475 0 10 4.4771525 10 10v26c0 5.5228475-4.4771525 10-10 10H10C4.4771525 46 0 41.5228475 0 36V10C0 4.4771525 4.4771525 0 10 0z"/>
      <rect width="14" height="14" x="16" y="16" fill="#6B4FBB" rx="2"/>
    </g>
    <path fill="#E1DBF1" fill-rule="nonzero" d="M98.4134739 35.6815544c-.7814569.7806401-2.0477867.7799779-2.8284267-.0014789-.7806401-.7814569-.779978-2.0477867.0014789-2.8284268l2.1224293-2.1202108c.7814569-.7806401 2.0477866-.7799779 2.8284266.0014789.78064.7814569.779978 2.0477867-.001479 2.8284268l-2.1224291 2.1202108z"/>
    <path fill="#C3B8E3" d="M104.780762 29.3209219c-.781457.7806401-2.047787.7799779-2.828427-.001479-.78064-.7814568-.779978-2.0477866.001479-2.8284267l2.122429-2.1202108c.781457-.7806401 2.047787-.779978 2.828427.0014789.78064.7814569.779978 2.0477867-.001479 2.8284267l-2.122429 2.1202109z"/>
    <path fill="#C3B8E3" fill-rule="nonzero" d="M42.4134739 89.6815544c-.7814569.7806401-2.0477867.7799779-2.8284267-.0014789-.7806401-.7814569-.779978-2.0477867.0014789-2.8284268l2.1224293-2.1202108c.7814569-.7806401 2.0477866-.7799779 2.8284267.0014789.7806401.7814569.7799779 2.0477867-.0014789 2.8284268l-2.1224293 2.1202108z"/>
    <path fill="#E1DBF1" d="M48.7807617 83.3209219c-.7814569.7806401-2.0477867.7799779-2.8284267-.001479-.7806401-.7814568-.779978-2.0477866.0014789-2.8284267l2.1224293-2.1202108c.7814569-.7806401 2.0477866-.779978 2.8284267.0014789.7806401.7814569.7799779 2.0477867-.0014789 2.8284267l-2.1224293 2.1202109z"/>
    <path fill="#E1DBF1" fill-rule="nonzero" d="M27.7133869 26.5312174c-.845668-.7105767-.9551811-1.9721624-.2446043-2.8178305.7105767-.845668 1.9721624-.9551811 2.8178305-.2446043l2.2968261 1.9299196c.845668.7105767.9551812 1.9721624.2446044 2.8178305-.7105768.845668-1.9721625.9551811-2.8178305.2446043l-2.2968262-1.9299196z"/>
    <path fill="#C3B8E3" d="M34.6038654 32.3209762c-.8456681-.7105768-.9551812-1.9721624-.2446044-2.8178305.7105768-.845668 1.9721625-.9551811 2.8178305-.2446043l2.2968262 1.9299195c.845668.7105768.9551811 1.9721625.2446043 2.8178305-.7105767.8456681-1.9721624.9551812-2.8178305.2446044l-2.2968261-1.9299196z"/>
    <path fill="#C3B8E3" fill-rule="nonzero" d="M93.7394721 74.5527619c-.8575667-.6961703-.9884043-1.955723-.292234-2.8132898.6961703-.8575667 1.955723-.9884043 2.8132898-.292234l2.3291428 1.8907918c.8575667.6961703.9884044 1.955723.292234 2.8132898-.6961703.8575667-1.955723.9884043-2.8132897.292234l-2.3291429-1.8907918z"/>
    <path fill="#E1DBF1" d="M100.726901 80.2251373c-.857567-.6961703-.9884047-1.9557231-.292234-2.8132898.69617-.8575667 1.955723-.9884043 2.813289-.292234l2.329143 1.8907918c.857567.6961703.988405 1.955723.292234 2.8132897-.69617.8575668-1.955723.9884044-2.813289.2922341l-2.329143-1.8907918z"/>
  </g>
</svg>
