<svg height="300" viewBox="0 0 425 300" width="425" xmlns="http://www.w3.org/2000/svg" xmlns:xlink="http://www.w3.org/1999/xlink"><mask id="a" fill="#fff"><path d="m.968.121h185.3v42.884h-185.3z" fill="#fff" fill-rule="evenodd"/></mask><g fill="none" fill-rule="evenodd"><g fill="#fafafa" transform="translate(13 32)"><path d="m217 79.884c8.8-9.027 25.476-7.224 37.059-7.673 3.242-9.033 10.191-17.606 19.918-19.867 7.414-1.803 18.996-1.354 20.848 7.677 0 0-.75-23.021 23-23.021s18.695 25.278 18.695 25.278c11.58-8.579 25.011-9.48 33.816 3.161 2.315 3.161.926 4.513 4.63 5.418 1.854.902 6.95-.452 9.729 0 6.022.902 17.604 9.027 17.604 9.027z"/><path d="m.9683 43.0045c8.8-9.027 25.476-7.223 37.06-7.673 3.242-9.033 10.19-17.606 19.917-19.868 7.415-1.802 18.996-1.353 20.849 7.678 0 0-.75-23.02 23-23.02s18.694 25.276 18.694 25.276c11.58-8.577 25.012-9.479 33.816 3.162 2.316 3.16.926 4.513 4.63 5.418 1.854.902 6.951-.452 9.73 0 6.022.902 17.604 9.027 17.604 9.027z" mask="url(#a)" transform="translate(.933)"/></g><g stroke-width="3"><path d="m190.5 121.5h60v62h-60z" stroke="#fde5d8"/><rect height="62" rx="2.5" stroke="#fde5d8" width="55" x="250.5" y="121.5"/><rect height="27" rx="2.5" stroke="#ede8fc" width="74" x="106.5" y="94.5"/><path d="m97.5 121.5c-.5522847 0-1 .447715-1 1v40.634394c0 .552284.4477153 1 1 1h59.6349c1.233153 0 2.397374.568781 3.155294 1.54152l13.587544 17.438706c.18948.243185.480535.38538.788823.38538h14.833439c.552285 0 1-.447715 1-1v-60c0-.552285-.447715-1-1-1z" stroke="#fde5d8"/></g><g transform="translate(72 164)"><path d="m2.91507154 0h82.82177106c.7607243 0 1.4800605.34636994 1.9544236.94108093l13.7504608 17.23901127c.474363.594711 1.193699.9410809 1.954423.9410809h154.518872c1.380703.000017 2.499983 1.1192975 2.499983 2.5 0 .0171223-.000175.0342442-.000527.0513628-.457088 22.2431392-6.971178 36.6391385-19.542272 43.1879978-1.52887.7964586-1.80702-2.5609636-14.003816-2.8390695-11.806592-.2692087-21.108205 11.9908574-29.674729 11.9908574-8.566523 0-18.405358-12.5474469-31.526834-11.9908574-14.507041.6153627-21.07812 13.8315723-35.446207 12.9349113-12.465723-.7779413-19.340605-12.8421394-30.3479749-12.9349113-19.2317283-.1620881-16.0347196 12.9349113-32.3197381 12.9349113-13.5901329 0-20.7530483-8.7276299-27.3778716-11.3616944-7.055585-2.8053376-9.9899747-.5022659-11.6527356-1.5732169-13.8293084-8.9071806-23.18789213-28.615842-28.07575108-59.12598435-.21842357-1.36333201.70971891-2.64559044 2.07305277-2.86400252.1307814-.02095175.263021-.03147733.39547005-.03147733z" stroke="#eee" stroke-width="4"/><circle cx="37.5" cy="31.5" fill="#fc6d26" opacity=".2" r="8.5"/><circle cx="37.5" cy="31.5" fill="#fff" r="3.5" stroke="#fc6d26" stroke-linecap="round" stroke-width="3"/><circle cx="62.5" cy="31.5" fill="#fc6d26" opacity=".2" r="8.5"/><circle cx="62.5" cy="31.5" fill="#fff" r="3.5" stroke="#fc6d26" stroke-linecap="round" stroke-width="3"/><circle cx="192.5" cy="41.5" fill="#fc6d26" opacity=".2" r="8.5"/><circle cx="192.5" cy="41.5" fill="#fff" r="3.5" stroke="#fc6d26" stroke-linecap="round" stroke-width="3"/><circle cx="167.5" cy="41.5" fill="#fc6d26" opacity=".2" r="8.5"/><circle cx="167.5" cy="41.5" fill="#fff" r="3.5" stroke="#fc6d26" stroke-linecap="round" stroke-width="3"/><circle cx="217.5" cy="41.5" fill="#fc6d26" opacity=".2" r="8.5"/><circle cx="217.5" cy="41.5" fill="#fff" r="3.5" stroke="#fc6d26" stroke-linecap="round" stroke-width="3"/></g><path d="m15 275c22.3043864-19.971777 39.3391267-29.957666 51.1042206-29.957666 17.647641 0 31.6544001 25.232641 52.6465954 25.232641 16.624543 0 25.897458-25.232641 47.316369-25.232641 21.41891 0 34.373428 25.232641 50.602044 25.232641 15.49736 0 34.141996-25.232641 53.109186-25.232641 17.090791 0 34.243761 25.232641 49.155819 25.232641 11.816203 0 23.681316-23.512969 46.255451-25.232641 9.422938-.717828 26.026376 7.693052 49.810315 25.232641m-343-28.558666c14.5536122-13.792998 25.6687801-20.689497 33.345504-20.689497 11.515086 0 20.654496 15.980672 34.351904 15.980672 10.847514 0 16.898091-15.980672 30.87393-15.980672s22.428662 15.980672 33.017834 15.980672c10.112027 0 22.277653-15.980672 34.653744-15.980672 11.151741 0 22.278919 15.125043 32.009037 15.125043 7.710073 0 15.517193-14.035918 30.246817-15.125043 6.148466-.454625 16.98221 5.869771 32.50123 18.973188" fill="#f9f7fe"/><text fill="#5c5c5c" font-family="Menlo-Bold, Menlo" font-size="22" font-weight="bold" letter-spacing="-.147"><tspan x="201.352" y="160">500</tspan></text></g></svg>