<svg xmlns="http://www.w3.org/2000/svg" xmlns:xlink="http://www.w3.org/1999/xlink" width="238" height="113" viewBox="0 0 238 113">
  <defs>
    <circle id="export-import-a" cx="7" cy="7" r="7"/>
    <circle id="export-import-c" cx="7" cy="7" r="7"/>
  </defs>
  <g fill="none" fill-rule="evenodd">
    <rect width="98" height="111" y="1" fill="#FFF" rx="6"/>
    <path fill="#E5E5E5" fill-rule="nonzero" d="M4,7.01 L4,106 C4,107.11 4.897,108.01 6,108.01 L91.998,108.01 C93.103,108.01 93.998,107.113 93.998,106 L93.998,7.01 C93.998,5.9 93.101,5 91.998,5 L6,5 C4.895,5 4,5.897 4,7.01 M0,7.01 C0,3.692 2.685,1 6,1 L91.998,1 C95.312,1 97.998,3.689 97.998,7.01 L97.998,106 C97.998,109.318 95.313,112.01 91.998,112.01 L6,112.01 C2.686,112.01 0,109.321 0,106 L0,7.01"/>
    <rect width="76" height="85" x="11" y="13" fill="#F9F9F9" rx="3"/>
    <g transform="translate(37 60)">
      <rect width="82" height="28" fill="#FFF" rx="3"/>
      <path fill="#E5E5E5" fill-rule="nonzero" d="M4,24 L78,24 L78,4 L4,4 L4,24 M9.86076132e-32,3 C9.86076132e-32,1.345 1.338,0.004 2.991,0.004 L79.011,0.004 C80.663,0.004 82.002,1.354 82.002,3 L82.002,25.01 C82.002,26.665 80.664,28.006 79.011,28.006 L2.991,28.006 C1.339,28.006 -4.4408921e-16,26.656 -4.4408921e-16,25.01 L-4.4408921e-16,3"/>
      <g transform="translate(9 7)">
        <mask id="export-import-b" fill="#fff">
          <use xlink:href="#export-import-a"/>
        </mask>
        <circle cx="7" cy="7" r="7" fill="#FFF" stroke="#6B4FBB" stroke-width="8" mask="url(#export-import-b)"/>
      </g>
      <path fill="#FC8A51" d="M8.926,4.09 L8.926,1.68 C8.926,1.015 8.489,0.792 7.951,1.173 L1.399,5.804 C0.857,6.187 0.86,6.802 1.399,7.183 L7.951,11.814 C8.493,12.197 8.926,11.968 8.926,11.307 L8.926,8.897 L13.8,8.897 C14.468,8.897 15,8.359 15,7.696 L15,5.29 C15,4.622 14.463,4.089 13.8,4.089 L8.926,4.089" transform="translate(60 8)"/>
    </g>
    <g transform="translate(140)">
      <polygon fill="#FFF" points="0 5 94 5 94 108 0 108"/>
      <path fill="#E5E5E5" d="M0,75 L0,105.993 C0,109.311 2.687,112.003 6,112.003 L91.998,112.003 C95.314,112.003 97.998,109.313 97.998,105.993 L97.998,7.003 C97.998,3.685 95.311,0.993 91.998,0.993 L6,0.993 C2.684,0.993 0,3.683 0,7.003 L0,7.996 L4,7.996 L4,7.003 C4,5.893 4.896,4.993 6,4.993 L91.998,4.993 C93.103,4.993 93.998,5.89 93.998,7.003 L93.998,105.993 C93.998,107.103 93.102,108.003 91.998,108.003 L6,108.003 C4.895,108.003 4,107.106 4,105.993 L4,75 L0,75"/>
      <g fill="#F9F9F9" transform="translate(8 13)">
        <rect width="82" height="28" rx="3"/>
        <rect width="82" height="28" y="31" rx="3"/>
      </g>
    </g>
    <g fill-rule="nonzero" transform="translate(148 74)">
      <path fill="#E5E5E5" d="M4,24 L78,24 L78,4 L4,4 L4,24 M9.86076132e-32,3 C9.86076132e-32,1.345 1.338,0.004 2.991,0.004 L79.011,0.004 C80.663,0.004 82.002,1.354 82.002,3 L82.002,25.01 C82.002,26.665 80.664,28.006 79.011,28.006 L2.991,28.006 C1.339,28.006 -4.4408921e-16,26.656 -4.4408921e-16,25.01 L-4.4408921e-16,3"/>
      <path fill="#6B4FBB" d="M17,17 C18.657,17 20,15.657 20,14 C20,12.343 18.657,11 17,11 C15.343,11 14,12.343 14,14 C14,15.657 15.343,17 17,17 M17,21 C13.134,21 10,17.866 10,14 C10,10.134 13.134,7 17,7 C20.866,7 24,10.134 24,14 C24,17.866 20.866,21 17,21"/>
    </g>
    <g transform="translate(25 25)">
      <rect width="82" height="28" fill="#FFF" rx="3"/>
      <path fill="#E5E5E5" fill-rule="nonzero" d="M4,24 L78,24 L78,4 L4,4 L4,24 M9.86076132e-32,3 C9.86076132e-32,1.345 1.338,0.004 2.991,0.004 L79.011,0.004 C80.663,0.004 82.002,1.354 82.002,3 L82.002,25.01 C82.002,26.665 80.664,28.006 79.011,28.006 L2.991,28.006 C1.339,28.006 -4.4408921e-16,26.656 -4.4408921e-16,25.01 L-4.4408921e-16,3"/>
      <g transform="translate(9 7)">
        <mask id="export-import-d" fill="#fff">
          <use xlink:href="#export-import-c"/>
        </mask>
        <circle cx="7" cy="7" r="7" fill="#FFF" stroke="#6B4FBB" stroke-width="8" mask="url(#export-import-d)"/>
      </g>
      <path fill="#FC8A51" d="M8.926,4.09 L8.926,1.68 C8.926,1.015 8.489,0.792 7.951,1.173 L1.399,5.804 C0.857,6.187 0.86,6.802 1.399,7.183 L7.951,11.814 C8.493,12.197 8.926,11.968 8.926,11.307 L8.926,8.897 L13.8,8.897 C14.468,8.897 15,8.359 15,7.696 L15,5.29 C15,4.622 14.463,4.089 13.8,4.089 L8.926,4.089" transform="translate(60 8)"/>
    </g>
    <g transform="translate(107 11)">
      <rect width="82" height="28" fill="#FFF" rx="3"/>
      <path fill="#FC8A51" fill-opacity=".3" fill-rule="nonzero" d="M4,24 L78,24 L78,4 L4,4 L4,24 M9.86076132e-32,3 C9.86076132e-32,1.345 1.338,0.004 2.991,0.004 L79.011,0.004 C80.663,0.004 82.002,1.354 82.002,3 L82.002,25.01 C82.002,26.665 80.664,28.006 79.011,28.006 L2.991,28.006 C1.339,28.006 -4.4408921e-16,26.656 -4.4408921e-16,25.01 L-4.4408921e-16,3"/>
      <path fill="#6B4FBB" fill-rule="nonzero" d="M16,17 C17.657,17 19,15.657 19,14 C19,12.343 17.657,11 16,11 C14.343,11 13,12.343 13,14 C13,15.657 14.343,17 16,17 M16,21 C12.134,21 9,17.866 9,14 C9,10.134 12.134,7 16,7 C19.866,7 23,10.134 23,14 C23,17.866 19.866,21 16,21"/>
      <path fill="#FC8A51" d="M8.926,4.09 L8.926,1.68 C8.926,1.015 8.489,0.792 7.951,1.173 L1.399,5.804 C0.857,6.187 0.86,6.802 1.399,7.183 L7.951,11.814 C8.493,12.197 8.926,11.968 8.926,11.307 L8.926,8.897 L13.8,8.897 C14.468,8.897 15,8.359 15,7.696 L15,5.29 C15,4.622 14.463,4.089 13.8,4.089 L8.926,4.089" transform="translate(60 8)"/>
    </g>
    <g transform="translate(128 42)">
      <rect width="82" height="28" fill="#FFF" rx="3"/>
      <path fill="#FC8A51" fill-opacity=".3" fill-rule="nonzero" d="M4,24 L78,24 L78,4 L4,4 L4,24 M9.86076132e-32,3 C9.86076132e-32,1.345 1.338,0.004 2.991,0.004 L79.011,0.004 C80.663,0.004 82.002,1.354 82.002,3 L82.002,25.01 C82.002,26.665 80.664,28.006 79.011,28.006 L2.991,28.006 C1.339,28.006 -4.4408921e-16,26.656 -4.4408921e-16,25.01 L-4.4408921e-16,3"/>
      <path fill="#6B4FBB" fill-rule="nonzero" d="M7,10 C8.657,10 10,8.657 10,7 C10,5.343 8.657,4 7,4 C5.343,4 4,5.343 4,7 C4,8.657 5.343,10 7,10 M7,14 C3.134,14 0,10.866 0,7 C0,3.134 3.134,0 7,0 C10.866,0 14,3.134 14,7 C14,10.866 10.866,14 7,14" transform="translate(9 7)"/>
      <path fill="#FC8A51" d="M66.926,12.09 L66.926,9.68 C66.926,9.015 66.489,8.792 65.951,9.173 L59.399,13.804 C58.857,14.187 58.86,14.802 59.399,15.183 L65.951,19.814 C66.493,20.197 66.926,19.968 66.926,19.307 L66.926,16.897 L71.8,16.897 C72.468,16.897 73,16.359 73,15.696 L73,13.29 C73,12.622 72.463,12.089 71.8,12.089 L66.926,12.089"/>
    </g>
  </g>
</svg>
