<svg width="430" height="267" viewBox="0 0 430 267" xmlns="http://www.w3.org/2000/svg">
  <title>
    feature-was-moved
  </title>
  <g transform="translate(59 17)" fill="none" fill-rule="evenodd">
    <path d="M263.8536149 149.2813886l5.2659269-.0256489C262.7232743 157.6112463 252.6463952 163 241.3109053 163c-11.2129743 0-21.1943972-5.2728983-27.5999543-13.4743804l5.265723-.0256479C224.7506473 155.5020992 232.7389625 159 241.3109053 159c8.6782628 0 16.7564521-3.5858835 22.5427096-9.7186114zm5.2659269-.0256489C262.7232743 157.6112463 252.6463952 163 241.3109053 163c-11.2129743 0-21.1943972-5.2728983-27.5999543-13.4743804l5.265723-.0256479C224.7506473 155.5020992 232.7389625 159 241.3109053 159c8.6782628 0 16.7564521-3.5858835 22.5427096-9.7186114l5.2659269-.0256489z" fill="#EEE" fill-rule="nonzero"/>
    <path d="M240.3109053 147c17.6814642 0 34.2192487-1.879225 46.3383287-5.1350971 5.748089-1.5442629 10.276321-3.3449792 13.251833-5.2349519 2.423035-1.5390533 3.409838-2.8346205 3.409838-3.629951 0-.7953305-.986803-2.0908977-3.409838-3.629951-2.975512-1.8899727-7.503744-3.690689-13.251833-5.2349519C274.530154 120.879225 257.9923695 119 240.3109053 119c-17.6814641 0-34.2192487 1.879225-46.3383283 5.1350971-5.7480896 1.5442629-10.2763218 3.3449792-13.25183297 5.2349519-2.42303509 1.5390533-3.40983871 2.8346205-3.40983871 3.629951 0 .7953305.98680362 2.0908977 3.40983871 3.629951 2.97551117 1.8899727 7.50374337 3.690689 13.25183297 5.2349519C206.0916566 145.120775 222.6294412 147 240.3109053 147zm0 4c-37.0030782 0-66.99999998-8.0588745-66.99999998-18s29.99692178-18 66.99999998-18c37.0030787 0 66.9999997 8.0588745 66.9999997 18s-29.996921 18-66.9999997 18z" fill="#EEE" fill-rule="nonzero"/>
    <path d="M200.2483138 131.9914288c-.5501485.3829858-.9312869.7304562-1.1462592 1.0104877.2996237.381365.8648282.8543417 1.6902262 1.3617374 1.6803839 1.0329798 4.1567465 2.0403595 7.2721425 2.9387597l.6913288 4.3336391C200.2747841 139.4536508 195 136.391091 195 133c0-3.0241988 4.1951403-5.7871103 11.118221-7.8974812l.6366464 3.990859c-2.8673816.9092528-5.084891 1.908361-6.5065536 2.898051zm79.4279612 2.0691302c.588689-.4019371.995376-.7679955 1.223599-1.0608711-.155023-.1989978-.407176-.4465804-.763091-.7247875-1.045243-.8170315-2.690903-1.66916-4.847694-2.4777633l.641279-4.0229557C281.623676 127.7841715 285 130.2869414 285 133c0 3.0791945-4.349107 5.8875122-11.498612 8.0119641l.704847-4.4217318c2.353652-.8045441 4.208699-1.668473 5.47004-2.5296733z" fill="#EEE" fill-rule="nonzero"/>
    <path d="M206.118221 125.1025188C207.5911915 107.1280883 222.6456999 93 241 93c18.5823198 0 33.78235 14.4813017 34.930368 32.7741814.04619.736001.069632 1.4781722.069632 2.2258186 0 4.5983291-.886764 8.9895434-2.498612 13.0119641C265.262859 143.4600159 253.3058343 145 240 145c-12.1362226 0-23.1503402-1.2811473-31.2442479-3.3639473C206.9813232 137.4453804 206 132.8372904 206 128c0-.9756661.0399218-1.942008.118221-2.8974812z" fill="#FFF"/>
    <path d="M272 128c0-.661374-.0206539-1.319995-.0617781-1.975281l-.0181446-.2891206 4.0102907.038583C275.976558 126.5101824 276 127.2523536 276 128c0 4.5983291-.886764 8.9895434-2.498612 13.0119641C265.262859 143.4600159 253.3058343 145 240 145c-12.1362226 0-23.1503402-1.2811473-31.2442479-3.3639473C206.9813232 137.4453804 206 132.8372904 206 128c0-.9756661.0399218-1.942008.118221-2.8974812l4.0102468.0385826-.0236105.2881147C210.0350911 126.2805629 210 127.1379247 210 128c0 3.5355852.590605 6.983623 1.7301023 10.2404923C219.4710068 139.9991677 229.4257571 141 240 141c11.6310069 0 22.4929473-1.2129138 30.4500318-3.2899036C271.471847 134.6093161 272 131.3436187 272 128zm-61.8715322-2.8588986l-.0236105.2881147C210.0350911 126.2805629 210 127.1379247 210 128c0 3.5355852.590605 6.983623 1.7301023 10.2404923C219.4710068 139.9991677 229.4257571 141 240 141c11.6310069 0 22.4929473-1.2129138 30.4500318-3.2899036C271.471847 134.6093161 272 131.3436187 272 128c0-.661374-.0206539-1.319995-.0617781-1.975281l-.0181446-.2891206-.0013425-.000013C270.7565601 109.6042071 257.2889254 97 241 97c-16.0675659 0-29.4221267 12.2741744-30.8701924 28.1411143l-.0013398-.0000129zm65.8019002.63308C275.976558 126.5101824 276 127.2523536 276 128c0 4.5983291-.886764 8.9895434-2.498612 13.0119641C265.262859 143.4600159 253.3058343 145 240 145c-12.1362226 0-23.1503402-1.2811473-31.2442479-3.3639473C206.9813232 137.4453804 206 132.8372904 206 128c0-.9756661.0399218-1.942008.118221-2.8974812C207.5911915 107.1280883 222.6456999 93 241 93c18.5823198 0 33.78235 14.4813017 34.930368 32.7741814z" fill="#EEE" fill-rule="nonzero"/>
    <path d="M104 181c0 14.3594035 11.640597 26 26 26 1.842717 0 3.658628-.1914078 5.427322-.5668632-5.650584-14.5771549-16.218966-26.8046821-29.787256-34.5431295C104.561444 174.7724588 104 177.8451107 104 181zm1.595516-13.69746865c16.020049 8.46636275 28.35586 22.73393005 34.362348 39.85473365l.692923 1.9750972-2.004566.6023842C135.864409 210.570698 132.959856 211 130 211c-16.568542 0-30-13.4314575-30-30 0-4.4768634.982646-8.8183386 2.852095-12.78232103l.89283-1.8931583 1.850591.97801068z" fill="#EFEDF8" fill-rule="nonzero"/>
    <path d="M110.42845516 174.8915927c-.91074258-.62499738-1.14238483-1.86996061-.51738744-2.78070319.62499738-.91074258 1.86996061-1.14238483 2.78070319-.51738744 1.69651089 1.16423114 3.34265116 2.40063009 4.93378769 3.70544672.8541057.70041215.978699 1.96059788.27828684 2.81470361-.70041215.85410573-1.96059788.97869899-2.81470361.27828684-1.50312038-1.2326387-3.0581478-2.40060373-4.66068667-3.50034654zm10.39334984 8.775137c-.7689442-.7929683-.7494687-2.0591484.0434996-2.82809257.7929683-.76894412 2.0591484-.74946868 2.8280926.04349961 1.4323442 1.47709506 2.8012146 3.01465936 4.1025234 4.60823616.6986423.855554.5714402 2.1154791-.2841139 2.8141214-.8555541.6986422-2.1154791.5714401-2.8141214-.284114-1.2293933-1.5055092-2.5226454-2.9581364-3.8758803-4.3536506zm8.4497054 10.6570512c-.5965827-.9296036-.3266159-2.166822.6029877-2.7634047.9296036-.5965828 2.166822-.326616 2.7634048.6029876 1.1114572 1.7318884 2.1483524 3.5107801 3.1074769 5.3319344.5147108.977316.1396952 2.1868427-.8376208 2.7015535-.977316.5147107-2.1868427.1396951-2.7015535-.8376209-.9057427-1.7197946-1.8849823-3.3997726-2.9346951-5.0354499z" fill="#E1DBF1"/>
    <path d="M129.2911075 198.9863252c1.1037453.0426625 1.9639229.9720096 1.9212604 2.0757549-.0426625 1.1037453-.9720096 1.9639229-2.0757549 1.9212605-2.2319679-.0862711-4.4122416-.5068097-6.4844571-1.2408953-1.0411695-.3688359-1.5862035-1.5118711-1.2173676-2.5530406.3688359-1.0411694 1.5118711-1.5862034 2.5530406-1.2173675 1.6934209.599897 3.4755613.9436423 5.3032786 1.014288z" fill="#EFEDF8"/>
    <path d="M117.81726383 194.2508442c.81291787.7478224.86568817 2.0130523.11786581 2.8259702-.74782238.8129179-2.01305234.8656882-2.82597021.1178658-1.62712891-1.4968344-3.0225116-3.2307946-4.13485893-5.1417557-.55567325-.9546209-.2322623-2.1789562.72235857-2.7346295.95462087-.5556732 2.17895617-.2322623 2.73462943.7223586.91043752 1.5640894 2.05321752 2.9841551 3.38597533 4.2101906z" fill="#E1DBF1"/>
    <path d="M112.13601709 183.225516c.13502406 1.0962857-.64423245 2.0944594-1.74051812 2.2294835-1.09628568.1350241-2.09445944-.6442325-2.2294835-1.7405181-.1084703-.8806907-.16408883-1.7709745-.16597067-2.6716196-.0000484-1.35668327.11539427-2.66312283.3462324-3.95016112.19499964-1.08722073 1.23444463-1.81050883 2.32166536-1.61550919 1.08722074.19499964 1.81050884 1.23444462 1.6155092 2.32166536-.18889038 1.05315853-.28344694 2.12323453-.28341134 3.23974535.00154082.7357804.04713334 1.4655781.13597667 2.1869138z" fill="#C3B8E3"/>
    <path d="M19.880646 211.8719932c8.7300639 0 15.807179-7.077115 15.807179-15.8071789 0-6.6143573-4.099396-12.4321883-10.1128062-14.7513955-7.6020406 7.1058994-13.4987306 15.8648602-17.18789001 25.6038628 2.95585731 3.131736 7.07368111 4.9547116 11.49351721 4.9547116zm-15.66420511-5.2058259c4.01106392-11.1716296 10.74544661-21.1713074 19.54241131-29.1158944l.8415293-.7599897 1.0842652.3318508c8.2568982 2.527111 14.0031783 10.1757812 14.0031783 18.9426803 0 10.9392029-8.8679761 19.8071789-19.807179 19.8071789-6.0143553 0-11.59097429-2.6997306-15.328973-7.2625378l-.71819251-.8766654.3829604-1.0666227z" fill="#EFEDF8" fill-rule="nonzero"/>
    <path d="M11.8774447 199.200906c-.5172899.9759533-1.7278028 1.3477735-2.70375609.8304836-.97595334-.5172899-1.3477735-1.7278028-.83048358-2.7037561.32111477-.6058364.6508721-1.207008.98915804-1.8033397.54501131-.9607478 1.76567033-1.2977689 2.72641813-.7527576.9607479.5450113 1.2977689 1.7656703.7527576 2.7264182-.3194602.5631456-.6308607 1.1308514-.9340941 1.7029516zm4.5830057-7.4454696c-.6382191.9015265-1.8864296 1.1149793-2.7879562.4767601-.9015265-.6382191-1.1149793-1.8864296-.4767601-2.7879562.3961689-.5596146.8002976-1.1135688 1.2122495-1.6616904.6636289-.8829896 1.9174108-1.0608166 2.8004003-.3971878.8829896.6636288 1.0608166 1.9174107.3971878 2.8004003-.3891455.5177766-.7708957 1.0410557-1.1451213 1.569674z" fill="#E1DBF1"/>
    <path d="M21.308683 188.1786861c-1.0871771-.1952427-1.8102329-1.2348493-1.6149902-2.3220264.1952427-1.0871771 1.2348493-1.8102329 2.3220264-1.6149902.7931262.142435 1.5663488.3639452 2.3099839.6602771 1.0261001.4088916 1.5264464 1.5721823 1.1175548 2.5982824s-1.5721822 1.5264464-2.5982824 1.1175548c-.4945162-.1970603-1.0085793-.3443274-1.5362925-.4390977zm5.6818597 4.186788c-.5108598-.9793345-.1310861-2.1873756.8482484-2.6982355.9793344-.5108598 2.1873756-.1310861 2.6982354.8482484.3706072.7104656.6695052 1.4572356.8913678 2.2303426.3046861 1.0617156-.3090077 2.1694031-1.3707233 2.4740892-1.0617157.3046861-2.1694032-.3090076-2.4740893-1.3707233-.147529-.5140827-.3463355-1.010783-.593039-1.4837214z" fill="#EFEDF8"/>
    <path d="M27.2049408 199.3201909c.4493264-1.0090489 1.6315731-1.4627935 2.640622-1.0134671 1.0090488.4493264 1.4627934 1.6315732 1.013467 2.640622-.3264261.7330527-.7255957 1.4308861-1.190759 2.0834865-.6411233.8994635-1.8900158 1.1088896-2.7894793.4677663-.8994635-.6411234-1.1088896-1.8900158-.4677662-2.7894793.3103862-.4354562.576499-.9006779.7939155-1.3889284z" fill="#C3B8E3"/>
    <path d="M21.8707642 203.8288848c1.0702242-.2733017 2.1593672.3727317 2.4326689 1.442956.2733017 1.0702242-.3727317 2.1593672-1.442956 2.4326689-.7728881.1973713-1.5668412.3176295-2.3728326.3578514-1.1031967.0550536-2.0421441-.7946342-2.0971977-1.8978309-.0550536-1.1031967.7946343-2.042144 1.897831-2.0971976.5387046-.0268834 1.0679065-.1070403 1.5824864-.2384478z" fill="#E1DBF1"/>
    <path d="M15.0001528 202.4202501c.8754551.6735369 1.0391421 1.9292432.3656052 2.8046983-.673537.8754551-1.9292433 1.0391422-2.8046984.3656052-.6348342-.4884138-1.2197209-1.0391246-1.7454867-1.6433488-.7250726-.8332728-.637359-2.0965613.1959138-2.8216338.8332728-.7250726 2.0965613-.637359 2.8216339.1959138.3515546.404016.7426795.7722868 1.1670322 1.0987653z" fill="#C3B8E3"/>
    <path d="M4 231c0 1.1045695-.8954305 2-2 2s-2-.8954305-2-2c0-39.764502 32.235498-72 72-72s72 32.235498 72 72c0 1.1045695-.895431 2-2 2-1.104569 0-2-.8954305-2-2 0-37.555363-30.444637-68-68-68S4 193.444637 4 231z" fill="#EFEDF8" fill-rule="nonzero"/>
    <path d="M86 231c0 1.1045695-.8954305 2-2 2s-2-.8954305-2-2c0-1.1347158-.1882436-2.2410064-.5524387-3.2877021-.3629868-1.04322302.1884536-2.18318136 1.2316766-2.54616819 1.0432231-.36298683 2.1831814.18845359 2.5461683 1.23167665C85.7361674 227.8657325 86 229.416253 86 231z" fill="#EFEDF8"/>
    <path d="M80.4295825 219.82139717c.8814932.66561518 1.0564969 1.91979431.3908817 2.80128747-.6656152.88149317-1.9197943 1.05649685-2.8012875.39088167-.8922893-.67376737-1.8907139-1.19393983-2.9562733-1.53634281-1.0516099-.33792052-1.6301695-1.46435754-1.292249-2.5159675.3379205-1.05160995 1.4643575-1.63016955 2.5159675-1.29224903 1.4947861.48032915 2.8940413 1.20933168 4.1429606 2.1523902zm-12.2071794-2.30528919c1.0637555-.29748601 2.1672598.32369817 2.4647458 1.38745371.297486 1.06375554-.3236981 2.16725986-1.3874537 2.46474587-1.0785677.30162834-2.09536064.78326702-3.01184166 1.42240065-.90601326.63183365-2.15268449.40956716-2.78451814-.49644609-.63183365-.90601326-.40956716-2.1526845.4964461-2.78451814 1.28341724-.89502686 2.70920251-1.57039871 4.2226216-1.993636z" fill="#E1DBF1"/>
    <path d="M58.98284386 225.83828289c.40741099-1.02668888 1.56997864-1.5287128 2.59666753-1.12130181 1.02668888.407411 1.5287128 1.56997865 1.1213018 2.59666752-.40934331 1.0315584-.64449328 2.1286898-.69186956 3.2587604-.04626654 1.1036001-.97841763 1.9607383-2.08201774 1.9144717-1.1036001-.0462665-1.9607383-.9784176-1.91447176-2.0820177.06625259-1.580329.39613-3.119427.97038973-4.56658011z" fill="#EFEDF8"/>
    <path d="M95 231c0 1.1045695-.8954305 2-2 2s-2-.8954305-2-2c0-10.4934102-8.5065898-19-19-19s-19 8.5065898-19 19c0 1.1045695-.8954305 2-2 2s-2-.8954305-2-2c0-12.7025492 10.2974508-23 23-23s23 10.2974508 23 23z" fill="#E1DBF1" fill-rule="nonzero"/>
    <path d="M72 170.5c-.8284271 0-1.5-.671573-1.5-1.5s.6715729-1.5 1.5-1.5c.5508479 0 1.0914114-.068187 1.6137155-.201513.8026881-.204898 1.6194982.279707 1.8243963 1.082395.204898.802688-.2797066 1.619498-1.0823947 1.824396C73.5914348 170.400372 72.8016215 170.5 72 170.5zm8.0482148-4.450616c-.4408321.701398-1.3667922.912628-2.0681898.471796-.7013975-.440833-.9126276-1.366793-.4717954-2.06819.2889317-.459713.5191903-.953793.6847268-1.471761.2521896-.789108 1.0963283-1.224367 1.8854366-.972178.7891083.25219 1.2243669 1.096329.9721774 1.885437-.2425604.758978-.5797346 1.482474-1.0023556 2.154896zm.5373469-9.120468c.3553732.748333.0368167 1.643063-.7115158 1.998436-.7483324.355373-1.6430625.036817-1.9984357-.711516-.2331608-.490982-.5275278-.950995-.8754459-1.369273-.5297648-.636899-.4429152-1.582667.1939842-2.112432.6368993-.529765 1.5826674-.442915 2.1124322.193984.5078762.610585.9379485 1.282667 1.278981 2.000801zm-7.4123411-5.357031c.8221943.10143 1.4064892.850176 1.3050592 1.67237-.1014301.822194-.8501755 1.406489-1.6723698 1.305059-.2611351-.032215-.5254709-.04875-.7891444-.049297-.2956948-.000014-.5738736.017474-.8500154.052729-.8217574.10491-1.5729705-.476208-1.6778814-1.297966-.1049109-.821757.4762081-1.57297 1.2979654-1.677881.4028736-.051434.8079853-.076902 1.2330929-.076878.3874845.000798.7724157.024877 1.1532935.071864zm-8.5267798 3.413156c.5248221-.640979 1.4698901-.735142 2.1108685-.21032.6409783.524822.7351416 1.46989.2103195 2.110869-.3446526.420933-.6354181.883178-.8647335 1.375969-.3495115.751088-1.2417237 1.07663-1.9928117.727119-.751088-.349512-1.0766301-1.241724-.7271186-1.992812.3354507-.720872.7603165-1.396304 1.2634758-2.010825zm-1.6704962 8.99113c-.2593602-.786781.1681984-1.634846.9549791-1.894206.7867806-.25936 1.6348454.168198 1.8942056.954979.1702144.516353.4049444 1.008358.698034 1.465499.4471288.6974.2442436 1.625224-.4531568 2.072353-.6974004.447129-1.6252246.244244-2.0723534-.453157-.4286406-.668563-.7723136-1.388918-1.0217085-2.145468zm6.8723326 6.278771c-.8070446-.187004-1.3096869-.99284-1.122683-1.799884.1870039-.807045.9928395-1.309687 1.7998841-1.122683.4790306.110998.9725256.167625 1.4745217.167625.8284271 0 1.5.671573 1.5 1.5s-.6715729 1.5-1.5 1.5c-.7303415 0-1.4510232-.082696-2.1517228-.245058z" fill="#C3B8E3" fill-rule="nonzero"/>
    <circle fill="#6B4FBB" cx="72" cy="161" r="4"/>
    <g transform="translate(226 80)" fill="#FC6D26">
      <circle opacity=".1" cx="15" cy="15" r="15"/>
      <circle opacity=".2" cx="15" cy="15" r="9"/>
      <circle cx="15" cy="15" r="5"/>
    </g>
    <path d="M74.09581808 142c0 1.104569-.8954305 2-2 2s-2-.895431-2-2c0-2.071505.00906236-4.072707.0277569-6.020435.01060132-1.104519.91458464-1.991314 2.01910326-1.980713 1.10451862.010601 1.99131382.914585 1.98071251 2.019103-.01856807 1.934552-.02757267 3.922998-.02757267 5.982045z" fill="#FDC4A8"/>
    <path d="M74.31913079 126.066662c-.03412582 1.104042-.95679332 1.971381-2.06083553 1.937255-1.10404222-.034126-1.97138082-.956793-1.937255-2.060835.06353636-2.055535.1412304-4.061223.23392002-6.024482.05209105-1.103341.9887534-1.955547 2.09209392-1.903456 1.10334052.052091 1.9555466.988753 1.90345555 2.092094-.09164516 1.941136-.16850043 3.925172-.23137896 5.959424z" fill="#FEE1D3"/>
    <path d="M75.18032661 110.17582c-.08929599 1.100955-1.05418437 1.921065-2.1551385 1.831769-1.10095413-.089296-1.92106509-1.054184-1.8317691-2.155138.16620373-2.04917.35301141-4.056034.56144847-6.024851.11629001-1.098431 1.10101586-1.894613 2.19944674-1.778323 1.09843089.11629 1.89461338 1.101016 1.77832338 2.199447-.20493551 1.935742-.38871274 3.91005-.55231099 5.927096z" fill="#FDC4A8"/>
    <path d="M77.00682506 94.4302206c-.16985694 1.0914314-1.19233313 1.8385151-2.28376448 1.6686581-1.09143136-.1698569-1.83851502-1.1923331-1.66865808-2.2837645.3161441-2.0314128.66059617-4.0235294 1.03455663-5.9791076.20746491-1.0849111 1.25514267-1.7962218 2.34005377-1.5887569 1.08491109.2074649 1.79622177 1.2551427 1.58875686 2.3400538-.36518959 1.909712-.70179582 3.8564527-1.0109447 5.8429171z" fill="#FEE1D3"/>
    <path d="M80.1856657 78.9574334c-.27961536 1.0685921-1.37255342 1.7081841-2.44114551 1.4285688-1.06859208-.2796153-1.70818412-1.3725534-1.42856879-2.4411455.52067826-1.9898503 1.07845671-3.9413039 1.67469585-5.8562279.32837419-1.0546298 1.44952051-1.6433764 2.50415035-1.3150022 1.0546299.3283742 1.6433765 1.4495205 1.3150023 2.5041504-.5778396 1.8558307-1.1187958 3.7484297-1.6241342 5.6796564z" fill="#FDC4A8"/>
    <path d="M85.1273071 64.0143623c-.4177654 1.0225193-1.5853469 1.5127693-2.6078663 1.0950039-1.0225194-.4177654-1.5127693-1.5853469-1.0950039-2.6078663.7768709-1.9014631 1.5995584-3.7648725 2.4695075-5.5914573.4749568-.9972411 1.6684091-1.4206361 2.6656501-.9456792.9972411.4749568 1.4206361 1.6684091.9456793 2.6656501-.8372446 1.7579169-1.6294417 3.5522647-2.3779667 5.3843488z" fill="#FEE1D3"/>
    <path d="M92.1524386 50.0076846c-.5729368.9443608-1.8029495 1.2454593-2.7473102.6725225-.9443607-.5729368-1.2454593-1.8029495-.6725225-2.7473102 1.0609037-1.7486671 2.1740454-3.4603844 3.3408141-5.1359046.631214-.9064451 1.8777329-1.129564 2.784178-.49835.9064451.6312139 1.129564 1.8777329.4983501 2.784178-1.1186345 1.6063979-2.1860024 3.247727-3.2035095 4.9248643z" fill="#FDC4A8"/>
    <path d="M101.3682985 37.3549349c-.7232757.834833-1.9863723.9252679-2.8212052.2019922-.8348329-.7232758-.9252679-1.9863724-.2019922-2.8212053 1.3296111-1.5346887 2.7135159-3.0352199 4.1529215-4.5020324.7736486-.7883791 2.0399223-.8003206 2.8283014-.026672.7883791.7736485.8003206 2.0399222.026672 2.8283013-1.3814971 1.4078014-2.7092978 2.8475005-3.9846975 4.3196162z" fill="#FEE1D3"/>
    <path d="M112.5754244 26.3754812c-.8474876.7084056-2.1087883.5956573-2.8171939-.2518303-.7084056-.8474877-.5956573-2.1087883.2518304-2.8171939 1.5459063-1.2922061 3.1439138-2.5544754 4.7950058-3.7870603.8851289-.6607728 2.1383298-.4788962 2.7991025.4062327.6607727.8851289.4788962 2.1383298-.4062327 2.7991026-1.5925751 1.1889005-3.1330568 2.40573-4.6225121 3.6507492zm12.7665961-9.2011824c-.9398078.580375-2.1721594.2889972-2.7525344-.6508106-.5803751-.9398077-.2889973-2.1721594.6508105-2.7525344 1.7362569-1.0722194 3.5160291-2.0848919 5.3356618-3.0367771.97874-.5119979 2.1872218-.1336287 2.6992196.8451113.5119979.97874.1336287 2.1872218-.8451113 2.6992197-1.7357868.9080238-3.43296 1.8736983-5.0880462 2.8957911zm14.0161522-6.9277825c-1.0308893.3966624-2.1881486-.1174801-2.584811-1.14836941-.3966623-1.03088929.1174802-2.18814857 1.1483695-2.58481095 1.9044965-.73280624 3.8381522-1.4036802 5.7965418-2.01164158 1.0549065-.32748458 2.1755558.26220736 2.5030404 1.31711382.3274846 1.05490646-.2622073 2.17555581-1.3171138 2.50304039-1.874211.58182903-3.7243131 1.22371439-5.5460269 1.92466773z" fill="#FDC4A8"/>
    <path d="M154.4041477 5.92813704c-1.0840349.21199522-2.134675-.49493268-2.3466702-1.57896765-.2119952-1.08403496.4949327-2.13467501 1.5789676-2.34667023 2.0037415-.39185414 4.0206636-.71984215 6.0456824-.98344432 1.0953283-.14258186 2.0988528.62977178 2.2414347 1.72510013.1425818 1.09532835-.6297718 2.09885285-1.7251002 2.2414347-1.9409187.25265465-3.8740085.56701-5.7943143.94254737z" fill="#FEE1D3"/>
    <path d="M169.9427313 4.2390677c-1.1042698.02572916-2.020315-.84860077-2.0460442-1.95287057-.0257291-1.1042698.8486008-2.02031495 1.9528706-2.04604412 2.0482013-.04772248 4.0920463-.02935313 6.1259683.05499304 1.103621.04576686 1.961181.97752977 1.915414 2.08115071-.045767 1.10362093-.97753 1.9611811-2.081151 1.91541424-1.947548-.08076431-3.905046-.0983576-5.8670577-.0526433z" fill="#FDC4A8"/>
    <path d="M185.58372 5.24358529c-1.091542-.16914867-1.839289-1.19113984-1.67014-2.28268119s1.19114-1.83928836 2.282681-1.67013969c2.036562.31559193 4.048872.69989765 6.031147 1.15204207 1.076911.24563646 1.750792 1.31777271 1.505155 2.39468334-.245636 1.07691064-1.317772 1.7507915-2.394683 1.50515505-1.890213-.43114556-3.810138-.79780781-5.75416-1.09905958z" fill="#FEE1D3"/>
    <path d="M200.642701 9.07765753c-1.037788-.37824567-1.572453-1.52616779-1.194207-2.56395582.378245-1.03778803 1.526168-1.57245275 2.563956-1.19420708 1.948589.71020801 3.850247 1.49163063 5.699346 2.34261678 1.003409.46178513 1.442481 1.64955911.980696 2.65296739-.461785 1.0034084-1.649559 1.4424807-2.652968.9806956-1.749345-.8050775-3.550072-1.54502618-5.396823-2.21811687z" fill="#FDC4A8"/>
    <path d="M214.554776 16.0005437c-.923203-.6064411-1.179989-1.8464623-.573548-2.7696649.606441-.9232025 1.846462-1.1799884 2.769665-.5735473 1.742714 1.1447686 3.413367 2.3618015 5.006904 3.6487833.859318.6940076.993328 1.9532267.299321 2.8125446-.694008.8593179-1.953227.9933285-2.812545.2993209-1.490942-1.204124-3.055734-2.3440389-4.689797-3.4174366z" fill="#FEE1D3"/>
    <path d="M226.227339 26.1521604c-.722376-.8356112-.630581-2.0986097.20503-2.8209861.835612-.7223764 2.09861-.6305814 2.820986.2050299 1.362695 1.5763013 2.63102 3.2208756 3.801017 4.9310494.623689.9116394.390258 2.1562686-.521381 2.7799571-.911639.6236885-2.156269.3902582-2.779957-.5213812-1.084625-1.5853851-2.260975-3.1107007-3.525695-4.5736691z" fill="#FDC4A8"/>
    <path d="M234.400868 39.1530916c-.438334-1.0138723.028232-2.1911182 1.042104-2.6294523 1.013872-.4383341 2.191118.0282317 2.629452 1.042104.818179 1.8924573 1.533459 3.8413464 2.143425 5.8442869.32179 1.0566576-.273938 2.1741098-1.330596 2.4958994-1.056657.3217897-2.17411-.2739385-2.495899-1.3305961-.566306-1.8595735-1.22987-3.6675544-1.988486-5.4222419z" fill="#FEE1D3"/>
    <path d="M238.365484 54.0042364c-.13319-1.0965101.647736-2.0933785 1.744246-2.226568 1.09651-.1331894 2.093379.6477362 2.226568 1.7442463.244977 2.0168206.395555 4.0749415.450548 6.172814.028945 1.1041902-.842713 2.0227779-1.946903 2.051723-1.104191.0289451-2.022778-.8427133-2.051723-1.9469035-.051703-1.9723412-.193065-3.9044969-.422736-5.7953118z" fill="#FDC4A8"/>
    <path d="M242.795583 77.5038485l4.262966-6.3944487c.612705-.9190574.364357-2.1607961-.5547-2.773501-.328535-.2190234-.71455-.3358994-1.1094-.3358994h-8.525932c-1.104569 0-2 .8954305-2 2 0 .3948499.116876.7808653.3359 1.1094004l4.262965 6.3944487c.612705.9190574 1.854444 1.1674051 2.773501.5547002.219705-.1464697.408231-.3349956.5547-.5547002z" fill="#FC6D26"/>
    <path d="M259.5 128c-3.589851 0-6.5-2.910149-6.5-6.5s2.910149-6.5 6.5-6.5 6.5 2.910149 6.5 6.5-2.910149 6.5-6.5 6.5zm0-4c1.380712 0 2.5-1.119288 2.5-2.5s-1.119288-2.5-2.5-2.5-2.5 1.119288-2.5 2.5 1.119288 2.5 2.5 2.5z" fill="#C3B8E3" fill-rule="nonzero"/>
    <path d="M237 209c2.761424 0 5-2.238576 5-5s-2.238576-5-5-5-5 2.238576-5 5 2.238576 5 5 5zm0 4c-4.970563 0-9-4.029437-9-9s4.029437-9 9-9 9 4.029437 9 9-4.029437 9-9 9z" fill="#E1DBF1" fill-rule="nonzero"/>
    <path d="M299 67c4.418278 0 8-3.581722 8-8s-3.581722-8-8-8-8 3.581722-8 8 3.581722 8 8 8zm0 4c-6.627417 0-12-5.372583-12-12s5.372583-12 12-12 12 5.372583 12 12-5.372583 12-12 12zm-168.5 35c1.932997 0 3.5-1.567003 3.5-3.5s-1.567003-3.5-3.5-3.5-3.5 1.567003-3.5 3.5 1.567003 3.5 3.5 3.5zm0 4c-4.142136 0-7.5-3.357864-7.5-7.5 0-4.1421356 3.357864-7.5 7.5-7.5s7.5 3.3578644 7.5 7.5c0 4.142136-3.357864 7.5-7.5 7.5z" fill="#EFEDF8" fill-rule="nonzero"/>
  </g>
</svg>
