<svg width="430" height="172" viewBox="0 0 430 172" xmlns="http://www.w3.org/2000/svg">
  <title>
    finished-job_empty
  </title>
  <g fill="none" fill-rule="evenodd">
    <path d="M243 121c-1.1045695 0-2-.8954305-2-2s.8954305-2 2-2c2.5416617 0 5.0415896-.3054667 7.4626379-.9036641 1.072322-.2649515 2.1563964.3895517 2.4213478 1.4618737.2649515 1.072322-.3895517 2.1563964-1.4618737 2.4213478C248.6877484 120.6551694 245.8656677 121 243 121zm18.2108107-5.1051878c-.9428105.5754843-2.1736316.2777076-2.7491158-.6651029-.5754843-.9428105-.2777076-2.1736316.6651029-2.7491159 2.1457336-1.3097393 4.1262715-2.8769136 5.8963238-4.6635758.7773926-.7846876 2.0437087-.7906013 2.8283963-.0132087.7846875.7773925.7906013 2.0437087.0132087 2.8283962-1.9971234 2.0158642-4.2319715 3.7842709-6.6539159 5.2626071zm12.894669-13.8345984c-.5075117.9810737-1.7142486 1.3649716-2.6953223.8574599-.9810738-.5075116-1.3649717-1.7142485-.85746-2.6953223 1.1524495-2.2278066 2.0307482-4.5902283 2.6121496-7.0427389.2547916-1.0747814 1.3326236-1.7395143 2.4074049-1.4847227 1.0747814.2547917 1.7395144 1.3326236 1.4847227 2.407405-.6570023 2.7714163-1.6495243 5.4410722-2.9514949 7.957919zm3.8152758-18.4330709c.0738452 1.1020984-.7597187 2.0553889-1.861817 2.129234-1.1020983.0738452-2.0553888-.7597187-2.129234-1.861817-.1693795-2.5278964-.6435332-5.0010563-1.4071583-7.3798248-.337616-1.0517078.2412697-2.1779772 1.2929774-2.5155933 1.0517078-.337616 2.1779772.2412697 2.5155933 1.2929774.8628058 2.6877264 1.3984479 5.4816064 1.5896386 8.3350237zm-6.3458747-17.8425766c.6386612.9012134.4258206 2.1495285-.4753928 2.7881897s-2.1495285.4258206-2.7881897-.4753928c-1.4534937-2.0510217-3.151875-3.9203523-5.0544833-5.5642568-.8358021-.7221555-.927931-1.98512972-.2057755-2.82093188.7221554-.83580217 1.9851296-.92793102 2.8209318-.20577555 2.1465986 1.85471863 4.0627401 3.96372803 5.7029095 6.27816733zM256.895123 53.86724309c1.0136332.43888654 1.4795575 1.61638648 1.040671 2.63001975-.4388866 1.01363326-1.6163865 1.47955754-2.6300198 1.04067101-2.298686-.99529323-4.7151226-1.70874893-7.2064988-2.12085824-1.0897612-.1802621-1.8270558-1.20981937-1.6467937-2.29958051.1802621-1.08976115 1.2098193-1.8270558 2.2995805-1.6467937 2.8147466.46559941 5.5456225 1.27189366 8.1430608 2.39654169zm-18.6322189-2.54914846c1.0945847-.14818237 2.1020465.61902833 2.2502289 1.71361308.1481824 1.09458474-.6190283 2.10204655-1.7136131 2.25022893-2.5042991.33902628-4.9399478.98069322-7.2650281 1.90682514-1.0261596.40874247-2.1893775-.09177294-2.5981199-1.11793246-.4087425-1.02615953.0917729-2.18937743 1.1179324-2.5981199 2.6273421-1.04652961 5.3797925-1.77165734 8.2085998-2.15461479zm-17.3556638 7.53447931c.8563336-.69768662 2.1161158-.56907788 2.8138025.28725567.6976866.85633356.5690779 2.11611579-.2872557 2.81380249-1.9491691 1.5880602-3.7007916 3.407617-5.2131804 5.4157591-.6645069.8823289-1.9184652 1.0589085-2.8007941.3944016-.8823289-.6645069-1.0589085-1.9184651-.3944016-2.8007941 1.7064955-2.265876 3.6826457-4.31866846 5.8818293-6.11042476zM209.9889581 74.3423527c.3678123-1.0415315 1.5103112-1.5876888 2.5518427-1.2198765 1.0415315.3678123 1.5876889 1.5103112 1.2198766 2.5518427-.832696 2.3579395-1.3777159 4.8170524-1.6185733 7.3366732-.1051096 1.0995571-1.081685 1.905716-2.181242 1.8006063-1.0995571-.1051096-1.905716-1.081685-1.8006064-2.181242.2719685-2.8450745.8877817-5.623605 1.8287024-8.2880037zm-1.2707221 18.7442977c-.2225508-1.0819173.4741033-2.1393976 1.5560205-2.3619484 1.0819173-.2225508 2.1393976.4741034 2.3619484 1.5560206.5082132 2.4706476 1.315447 4.8578651 2.4003826 7.1178137.478039.9957673.0583372 2.1905234-.9374301 2.6685623-.9957673.478039-2.1905233.0583372-2.6685623-.9374301-1.2258259-2.5534267-2.1380924-5.2512554-2.7123591-8.0430181zm8.6754992 16.7739476c-.7531834-.8079534-.7087834-2.0735047.09917-2.8266881.8079533-.7531833 2.0735047-.7087833 2.826688.09917 1.7148234 1.8395222 3.646918 3.4662544 5.7516125 4.8409871.9247756.6040398 1.1847833 1.8433894.5807435 2.7681649-.6040397.9247755-1.8433894 1.1847833-2.7681649.5807435-2.3753193-1.5514979-4.5553066-3.386944-6.4900491-5.4623774zm16.2450686 9.8729643c-1.0645037-.2947976-1.6884738-1.396729-1.3936762-2.4612327.2947977-1.0645037 1.3967291-1.6884738 2.4612328-1.3936762 2.405326.6661174 4.8957908 1.0405837 7.4331922 1.1096504 1.1041606.0300546 1.9748954.9495177 1.9448408 2.0536782-.0300546 1.1041606-.9495177 1.9748955-2.0536783 1.9448408-2.8623618-.0779119-5.67473-.5007797-8.3919113-1.2532605zM349 121c-19.329966 0-35-15.6700338-35-35s15.670034-35 35-35 35 15.6700338 35 35-15.670034 35-35 35zm0-4c17.120827 0 31-13.8791728 31-31s-13.879173-31-31-31-31 13.8791728-31 31 13.879173 31 31 31zM179.00000905 88c0-1.105.887-2 1.998-2h4.004c1.103 0 1.998.888 1.998 2 0 1.105-.887 2-1.998 2h-4.004c-.5305757.0010668-1.03969841-.2093685-1.41468512-.5847306-.3749867-.375362-.58491247-.884695-.58331488-1.4152694zm14.00000005 0c0-1.105.887-2 1.998-2h4.004c1.103 0 1.998.888 1.998 2 0 1.105-.887 2-1.998 2h-4.004c-.5305757.0010668-1.0396985-.2093685-1.4146852-.5847306-.3749867-.375362-.5849124-.884695-.5833148-1.4152694zm91.9999999 0c0-1.105.887-2 1.998-2h4.004c1.103 0 1.998.888 1.998 2 0 1.105-.887 2-1.998 2h-4.004c-.530576.0010668-1.039698-.2093685-1.414685-.5847306-.374987-.375362-.584913-.884695-.583315-1.4152694zm14 0c0-1.105.887-2 1.998-2h4.004c1.103 0 1.998.888 1.998 2 0 1.105-.887 2-1.998 2h-4.004c-.530576.0010668-1.039698-.2093685-1.414685-.5847306-.374987-.375362-.584913-.884695-.583315-1.4152694z" fill="#EEE" fill-rule="nonzero"/>
    <path d="M243 104c-9.9411255 0-18-8.0588745-18-18s8.0588745-18 18-18 18 8.0588745 18 18-8.0588745 18-18 18zm0-4c7.7319865 0 14-6.2680135 14-14s-6.2680135-14-14-14-14 6.2680135-14 14 6.2680135 14 14 14z" fill="#E1DBF1" fill-rule="nonzero"/>
    <path d="M245 84h5c1.1045695 0 2 .8954305 2 2s-.8954305 2-2 2h-7c-1.1045695 0-2-.8954305-2-2v-8c0-1.1045695.8954305-2 2-2s2 .8954305 2 2v6z" fill="#6B4FBB"/>
    <g transform="translate(49 16)">
      <rect fill="#F9F9F9" y="5" width="116" height="135" rx="10"/>
      <rect fill="#FFF" x="5" width="116" height="134" rx="10"/>
      <path d="M15 2c-4.418278 0-8 3.581722-8 8v114c0 4.418278 3.581722 8 8 8h96c4.418278 0 8-3.581722 8-8V10c0-4.418278-3.581722-8-8-8H15zm0-4h96c6.627417 0 12 5.372583 12 12v114c0 6.627417-5.372583 12-12 12H15c-6.627417 0-12-5.372583-12-12V10C3 3.372583 8.372583-2 15-2z" fill="#EEE" fill-rule="nonzero"/>
      <path d="M25 23h12c1.1045695 0 2 .8954305 2 2s-.8954305 2-2 2H25c-1.1045695 0-2-.8954305-2-2s.8954305-2 2-2zm32 12h12c1.1045695 0 2 .8954305 2 2s-.8954305 2-2 2H57c-1.1045695 0-2-.8954305-2-2s.8954305-2 2-2z" fill="#E1DBF1"/>
      <path d="M69 23h12c1.1045695 0 2 .8954305 2 2s-.8954305 2-2 2H69c-1.1045695 0-2-.8954305-2-2s.8954305-2 2-2z" fill="#EEE"/>
      <path d="M37 47h12c1.1045695 0 2 .8954305 2 2s-.8954305 2-2 2H37c-1.1045695 0-2-.8954305-2-2s.8954305-2 2-2z" fill="#E1DBF1"/>
      <path d="M89 59h12c1.1045695 0 2 .8954305 2 2s-.8954305 2-2 2H89c-1.1045695 0-2-.8954305-2-2s.8954305-2 2-2z" fill="#FEF0E8"/>
      <path d="M45 23h4c1.1045695 0 2 .8954305 2 2s-.8954305 2-2 2h-4c-1.1045695 0-2-.8954305-2-2s.8954305-2 2-2z" fill="#FEE1D3"/>
      <path d="M57 59h4c1.1045695 0 2 .8954305 2 2s-.8954305 2-2 2h-4c-1.1045695 0-2-.8954305-2-2s.8954305-2 2-2z" fill="#FC6D26"/>
      <path d="M77 35h4c1.1045695 0 2 .8954305 2 2s-.8954305 2-2 2h-4c-1.1045695 0-2-.8954305-2-2s.8954305-2 2-2zm12-12h4c1.1045695 0 2 .8954305 2 2s-.8954305 2-2 2h-4c-1.1045695 0-2-.8954305-2-2s.8954305-2 2-2z" fill="#FEF0E8"/>
      <path d="M41 71h8c1.1045695 0 2 .8954305 2 2s-.8954305 2-2 2h-8c-1.1045695 0-2-.8954305-2-2s.8954305-2 2-2z" fill="#E1DBF1"/>
      <path d="M69 59h4c1.1045695 0 2 .8954305 2 2s-.8954305 2-2 2h-4c-1.1045695 0-2-.8954305-2-2s.8954305-2 2-2z" fill="#FC6D26"/>
      <path d="M81 59c1.1045695 0 2 .8954305 2 2s-.8954305 2-2 2-2-.8954305-2-2 .8954305-2 2-2zm8 24c1.1045695 0 2 .8954305 2 2s-.8954305 2-2 2-2-.8954305-2-2 .8954305-2 2-2z" fill="#E1DBF1"/>
      <path d="M97 83c1.1045695 0 2 .8954305 2 2s-.8954305 2-2 2-2-.8954305-2-2 .8954305-2 2-2zM57 23h4c1.1045695 0 2 .8954305 2 2s-.8954305 2-2 2h-4c-1.1045695 0-2-.8954305-2-2s.8954305-2 2-2z" fill="#FC6D26"/>
      <path d="M25 59h24c1.1045695 0 2 .8954305 2 2s-.8954305 2-2 2H25c-1.1045695 0-2-.8954305-2-2s.8954305-2 2-2zm44 12h24c1.1045695 0 2 .8954305 2 2s-.8954305 2-2 2H69c-1.1045695 0-2-.8954305-2-2s.8954305-2 2-2z" fill="#EEE"/>
      <path d="M57 83h24c1.1045695 0 2 .8954305 2 2s-.8954305 2-2 2H57c-1.1045695 0-2-.8954305-2-2s.8954305-2 2-2z" fill="#EFEDF8"/>
      <path d="M25 35h24c1.1045695 0 2 .8954305 2 2s-.8954305 2-2 2H25c-1.1045695 0-2-.8954305-2-2s.8954305-2 2-2z" fill="#6B4FBB"/>
      <path d="M57 47h24c1.1045695 0 2 .8954305 2 2s-.8954305 2-2 2H57c-1.1045695 0-2-.8954305-2-2s.8954305-2 2-2z" fill="#C3B8E3"/>
      <path d="M25 47h4c1.1045695 0 2 .8954305 2 2s-.8954305 2-2 2h-4c-1.1045695 0-2-.8954305-2-2s.8954305-2 2-2z" fill="#FEF0E8"/>
      <path d="M57 71h4c1.1045695 0 2 .8954305 2 2s-.8954305 2-2 2h-4c-1.1045695 0-2-.8954305-2-2s.8954305-2 2-2z" fill="#6B4FBB"/>
      <path d="M25 71h8c1.1045695 0 2 .8954305 2 2s-.8954305 2-2 2h-8c-1.1045695 0-2-.8954305-2-2s.8954305-2 2-2z" fill="#FC6D26"/>
      <path d="M25 83h8c1.1045695 0 2 .8954305 2 2s-.8954305 2-2 2h-8c-1.1045695 0-2-.8954305-2-2s.8954305-2 2-2zm16 0h8c1.1045695 0 2 .8954305 2 2s-.8954305 2-2 2h-8c-1.1045695 0-2-.8954305-2-2s.8954305-2 2-2z" fill="#FEF0E8"/>
      <path d="M25 95h12c1.1045695 0 2 .8954305 2 2s-.8954305 2-2 2H25c-1.1045695 0-2-.8954305-2-2s.8954305-2 2-2z" fill="#EFEDF8"/>
      <path d="M43 107h12c1.1045695 0 2 .8954305 2 2s-.8954305 2-2 2H43c-1.1045695 0-2-.8954305-2-2s.8954305-2 2-2z" fill="#FC6D26"/>
      <path d="M69 95h12c1.1045695 0 2 .8954305 2 2s-.8954305 2-2 2H69c-1.1045695 0-2-.8954305-2-2s.8954305-2 2-2z" fill="#6B4FBB"/>
      <path d="M45 95h4c1.1045695 0 2 .8954305 2 2s-.8954305 2-2 2h-4c-1.1045695 0-2-.8954305-2-2s.8954305-2 2-2z" fill="#FEE1D3"/>
      <path d="M63 107h4c1.1045695 0 2 .8954305 2 2s-.8954305 2-2 2h-4c-1.1045695 0-2-.8954305-2-2s.8954305-2 2-2zm26-12h4c1.1045695 0 2 .8954305 2 2s-.8954305 2-2 2h-4c-1.1045695 0-2-.8954305-2-2s.8954305-2 2-2z" fill="#FEF0E8"/>
      <path d="M57 95h4c1.1045695 0 2 .8954305 2 2s-.8954305 2-2 2h-4c-1.1045695 0-2-.8954305-2-2s.8954305-2 2-2z" fill="#FC6D26"/>
      <path d="M25 107h10c1.1045695 0 2 .8954305 2 2s-.8954305 2-2 2H25c-1.1045695 0-2-.8954305-2-2s.8954305-2 2-2z" fill="#EEE"/>
    </g>
    <path d="M349 105c-10.493 0-19-8.507-19-19s8.507-19 19-19 19 8.507 19 19-8.507 19-19 19zm0-4c8.284 0 15-6.716 15-15 0-8.284-6.716-15-15-15-8.284 0-15 6.716-15 15 0 8.284 6.716 15 15 15z" fill="#B3E6C8" fill-rule="nonzero"/>
    <path d="M347.58578644 86.82842712l5.65685425-5.65685424c.78104858-.78104859 2.04737854-.78104859 2.82842712 0 .78104859.78104858.78104859 2.04737854 0 2.82842712L349 91.07106781c-.78104858.78104859-2.04737854.78104859-2.82842712 0l-4.2426407-4.24264069c-.78104858-.78104858-.78104858-2.04737854 0-2.82842712.7810486-.78104858 2.04737855-.78104858 2.82842713 0l2.82842713 2.82842712z" fill="#D8D8D8"/>
    <path d="M347.5857864 86.8284271l5.6568543-5.6568542c.7810486-.7810486 2.0473785-.7810486 2.8284271 0 .7810486.7810486.7810486 2.0473785 0 2.8284271L349 91.0710678c-.7810486.7810486-2.0473785.7810486-2.8284271 0l-4.2426407-4.2426407c-.7810486-.7810486-.7810486-2.0473785 0-2.8284271.7810486-.7810486 2.0473785-.7810486 2.8284271 0l2.8284271 2.8284271z" fill="#1AAA55"/>
  </g>
</svg>
