<svg xmlns="http://www.w3.org/2000/svg" width="74" height="72" viewBox="0 0 74 72">
  <g fill="none" fill-rule="evenodd">
    <g transform="translate(0 4.933)">
      <polygon fill="#E38800" points="35.922 66.676 35.922 66.676 49.133 25.731 22.71 25.731 35.922 66.676"/>
      <polygon fill="#F7980A" points="35.922 66.676 22.71 25.731 4.195 25.731"/>
      <path fill="#FCA326" d="M4.19472234,25.7310208 L4.19472234,25.7310208 L0.180015594,38.1737124 C-0.186169973,39.3085283 0.21489041,40.551799 1.17360594,41.25314 L35.9215732,66.6756327 L4.19472234,25.7310208 L4.19472234,25.7310208 Z"/>
      <path fill="#E38800" d="M4.19472234,25.7310552 L22.7101724,25.7310552 L14.7529019,1.07050048 C14.3436357,-0.198592781 12.5609172,-0.19824848 12.1516509,1.07050048 L4.19472234,25.7310552 L4.19472234,25.7310552 Z"/>
      <polygon fill="#F7980A" points="35.922 66.676 49.133 25.731 67.648 25.731"/>
      <path fill="#FCA326" d="M67.64839,25.7310208 L67.64839,25.7310208 L71.6630967,38.1737124 C72.0292823,39.3085283 71.6282219,40.551799 70.6695064,41.25314 L35.9215391,66.6756327 L67.64839,25.7310208 L67.64839,25.7310208 Z"/>
      <path fill="#E38800" d="M67.64839,25.7310552 L49.1329399,25.7310552 L57.0902104,1.07050048 C57.4994766,-0.198592781 59.2821952,-0.19824848 59.6914614,1.07050048 L67.64839,25.7310552 L67.64839,25.7310552 Z"/>
    </g>
    <path fill="#FFCE29" fill-rule="nonzero" d="M28.785567,22.2238256 L27.7598922,25.1645764 L26.0976757,22.4589856 L23.1569248,21.4333108 L25.8625157,19.7710943 L27.0296584,16.8179667 L28.6918749,19.5235575 L31.6450026,20.6907002 M5.57169905,9.23473212 L4.09861722,11.9788265 L2.88011303,9.04651809 L0.136018613,7.57343627 L3.06832706,6.35493208 L4.68307131,3.62074366 L5.9015755,6.55305211 L8.63576392,8.16779636 M8.08465533,61.745677 L7.3091267,65.6628885 L4.87275113,62.6070725 L1.09016107,61.624245 L4.14597709,59.1878694 L5.12880457,55.4052793 L7.4754325,58.5992946 L11.5757171,59.3954712 M59.6372588,68.2425417 L58.607635,70.9868931 L57.0299282,68.5165832 L54.2855768,67.4869594 L56.7558867,65.9092526 L57.7855105,63.1649012 L59.3632173,65.6352111 L62.1075687,66.6648349 M69.2036929,7.03667018 L67.0758715,10.4157776 L65.8964255,6.68980863 L62.7172873,4.41670109 L66.4432563,3.23725507 L68.7163638,0.0581168897 L69.762497,3.88094326 L73.3051182,6.09364876"/>
  </g>
</svg>
