<svg width="130" height="104" viewBox="0 0 130 104" xmlns="http://www.w3.org/2000/svg">
  <title>
    issue-dashboard_too-many-results
  </title>
  <g fill="none" fill-rule="evenodd">
    <rect fill="#F9F9F9" y="34" width="130" height="70" rx="6"/>
    <rect fill="#FFF" width="130" height="32" rx="6"/>
    <path d="M6 4c-1.1045695 0-2 .8954305-2 2v20c0 1.1045695.8954305 2 2 2h118c1.104569 0 2-.8954305 2-2V6c0-1.1045695-.895431-2-2-2H6zm0-4h118c3.313708 0 6 2.6862915 6 6v20c0 3.3137085-2.686292 6-6 6H6c-3.3137085 0-6-2.6862915-6-6V6c0-3.3137085 2.6862915-6 6-6z" fill="#EEE" fill-rule="nonzero"/>
    <path d="M14 14h21c1.1045695 0 2 .8954305 2 2s-.8954305 2-2 2H14c-1.1045695 0-2-.8954305-2-2s.8954305-2 2-2z" fill="#E1DBF1"/>
    <path d="M112 16.4142136l2.828427-2.8284272c.781049-.7810485 2.047379-.7810485 2.828427 0 .781049.7810486.781049 2.0473786 0 2.8284272l-4.24264 4.2426406c-.781049.7810486-2.047379.7810486-2.828428 0l-4.24264-4.2426406c-.781049-.7810486-.781049-2.0473786 0-2.8284272.781048-.7810485 2.047378-.7810485 2.828427 0L112 16.4142136z" fill="#6B4FBB"/>
    <g transform="translate(0 34)">
      <rect fill="#FFF" width="130" height="66" rx="6"/>
      <path d="M6 4c-1.1045695 0-2 .8954305-2 2v54c0 1.1045695.8954305 2 2 2h118c1.104569 0 2-.8954305 2-2V6c0-1.1045695-.895431-2-2-2H6zm0-4h118c3.313708 0 6 2.6862915 6 6v54c0 3.3137085-2.686292 6-6 6H6c-3.3137085 0-6-2.6862915-6-6V6c0-3.3137085 2.6862915-6 6-6z" fill="#EEE" fill-rule="nonzero"/>
      <path d="M14 13h31c1.1045695 0 2 .8954305 2 2s-.8954305 2-2 2H14c-1.1045695 0-2-.8954305-2-2s.8954305-2 2-2z" fill="#E1DBF1"/>
      <path d="M14 25h41c1.1045695 0 2 .8954305 2 2s-.8954305 2-2 2H14c-1.1045695 0-2-.8954305-2-2s.8954305-2 2-2z" fill="#C3B8E3"/>
      <path d="M14 37h61c1.1045695 0 2 .8954305 2 2s-.8954305 2-2 2H14c-1.1045695 0-2-.8954305-2-2s.8954305-2 2-2z" fill="#E1DBF1"/>
      <path d="M14 49h41c1.1045695 0 2 .8954305 2 2s-.8954305 2-2 2H14c-1.1045695 0-2-.8954305-2-2s.8954305-2 2-2z" fill="#C3B8E3"/>
    </g>
  </g>
</svg>
