<svg xmlns="http://www.w3.org/2000/svg" viewBox="0 0 310 141" xmlns:xlink="http://www.w3.org/1999/xlink"><g fill="none" fill-rule="evenodd"><g fill-rule="nonzero" transform="translate(0 50)"><path fill="#e5e5e5" d="m48 19c0-1.105.887-2 1.998-2h4c1.103 0 1.998.888 1.998 2 0 1.105-.887 2-1.998 2h-4c-.531.001-1.04-.209-1.415-.585-.375-.375-.585-.885-.583-1.415m14 0c0-1.105.887-2 1.998-2h4c1.103 0 1.998.888 1.998 2 0 1.105-.887 2-1.998 2h-4c-.531.001-1.04-.209-1.415-.585-.375-.375-.585-.885-.583-1.415"/><g fill="#31af64"><path d="m19 38c-10.493 0-19-8.507-19-19 0-10.493 8.507-19 19-19 10.493 0 19 8.507 19 19 0 10.493-8.507 19-19 19m0-4c8.284 0 15-6.716 15-15 0-8.284-6.716-15-15-15-8.284 0-15 6.716-15 15 0 8.284 6.716 15 15 15"/><path d="m17.07 21.02l-2.829-2.828c-.374-.376-.883-.588-1.414-.588-.531 0-1.04.211-1.414.588-.376.374-.588.884-.588 1.415 0 .531.212 1.04.588 1.415l4.243 4.243c.373.376.881.588 1.41.589.53.001 1.038-.209 1.413-.584l7.79-7.79c.776-.782.773-2.044-.007-2.822-.373-.376-.88-.588-1.41-.589-.53-.001-1.038.209-1.412.583l-6.37 6.37v-.001"/></g></g><g transform="translate(187)"><rect width="116" height="134" y="7" fill="#f9f9f9" rx="10"/><rect width="116" height="134" x="5" y="2" fill="#fff" rx="10"/><path fill="#eee" fill-rule="nonzero" d="m15 4c-4.418 0-8 3.582-8 8v114c0 4.418 3.582 8 8 8h96c4.418 0 8-3.582 8-8v-114c0-4.418-3.582-8-8-8h-96m0-4h96c6.627 0 12 5.373 12 12v114c0 6.627-5.373 12-12 12h-96c-6.627 0-12-5.373-12-12v-114c0-6.627 5.373-12 12-12"/><g transform="translate(23 25)"><g fill="#e1dbf1"><rect width="16" height="4" rx="2"/><rect width="16" height="4" x="32" y="12" rx="2"/></g><rect width="16" height="4" x="44" fill="#eee" rx="2"/><rect width="16" height="4" x="12" y="24" fill="#e1dbf1" rx="2"/><rect width="16" height="4" x="64" y="36" fill="#fef0e8" rx="2"/><rect width="8" height="4" x="20" fill="#fee1d3" rx="2" id="0"/><rect width="8" height="4" x="32" y="36" fill="#fc6d26" rx="2"/><rect width="8" height="4" x="52" y="12" fill="#fef0e8" rx="2"/><rect width="8" height="4" x="64" fill="#fef0e8" rx="2" id="1"/><rect width="12" height="4" x="16" y="48" fill="#e1dbf1" rx="2"/><rect width="8" height="4" x="44" y="36" fill="#fc6d26" rx="2"/><g fill="#e1dbf1"><rect width="4" height="4" x="56" y="36" rx="2"/><rect width="4" height="4" x="64" y="60" rx="2"/></g><rect width="4" height="4" x="72" y="60" fill="#fc6d26" rx="2"/><rect width="8" height="4" x="32" fill="#fc6d26" rx="2" id="2"/><g fill="#eee"><rect width="28" height="4" y="36" rx="2"/><rect width="28" height="4" x="44" y="48" rx="2"/></g><rect width="28" height="4" x="32" y="60" fill="#efedf8" rx="2"/><rect width="28" height="4" y="12" fill="#6b4fbb" rx="2"/><rect width="28" height="4" x="32" y="24" fill="#c3b8e3" rx="2"/><rect width="8" height="4" y="24" fill="#fef0e8" rx="2"/><rect width="8" height="4" x="32" y="48" fill="#6b4fbb" rx="2"/><rect width="12" height="4" y="48" fill="#fc6d26" rx="2"/><g fill="#fef0e8"><rect width="12" height="4" y="60" rx="2"/><rect width="12" height="4" x="16" y="60" rx="2"/></g></g><g transform="translate(23 97)"><rect width="16" height="4" fill="#efedf8" rx="2"/><rect width="16" height="4" x="18" y="12" fill="#fc6d26" rx="2"/><rect width="16" height="4" x="44" fill="#6b4fbb" rx="2"/><use xlink:href="#0"/><rect width="8" height="4" x="38" y="12" fill="#fef0e8" rx="2"/><use xlink:href="#1"/><use xlink:href="#2"/><rect width="14" height="4" y="12" fill="#eee" rx="2"/></g></g><g fill-rule="nonzero"><g transform="translate(80 41)"><path fill="#eee" d="m29 60c-1.105 0-2-.895-2-2 0-1.105.895-2 2-2 2.524 0 5-.346 7.379-1.02 1.063-.301 2.168.316 2.47 1.379.301 1.063-.316 2.168-1.379 2.47-2.733.775-5.576 1.172-8.47 1.172m18.09-5.825c2.323-1.672 4.406-3.659 6.187-5.899.687-.865.544-2.123-.321-2.81-.865-.687-2.123-.544-2.81.321-1.552 1.953-3.368 3.685-5.393 5.142-.896.645-1.1 1.895-.455 2.792.645.896 1.895 1.1 2.792.455m11.297-15.288c.907-2.698 1.44-5.521 1.576-8.407.052-1.103-.8-2.04-1.904-2.092-1.103-.052-2.04.8-2.092 1.904-.118 2.515-.582 4.972-1.372 7.32-.352 1.047.211 2.181 1.258 2.533 1.047.352 2.181-.211 2.533-1.258m.283-18.89c-.833-2.747-2.043-5.358-3.593-7.763-.598-.929-1.836-1.196-2.764-.598-.929.598-1.196 1.836-.598 2.764 1.349 2.095 2.403 4.367 3.128 6.757.32 1.057 1.437 1.654 2.494 1.334 1.057-.32 1.654-1.437 1.334-2.494m-10.795-15.589c-2.27-1.745-4.771-3.169-7.435-4.228-1.026-.408-2.189.094-2.597 1.12-.408 1.026.094 2.189 1.12 2.597 2.319.921 4.497 2.162 6.474 3.682.876.673 2.131.509 2.805-.367.673-.876.509-2.131-.367-2.805m-17.834-6.391c-.345-.011-.691-.017-1.038-.017-2.541 0-5.04.305-7.462.903-1.072.265-1.727 1.349-1.462 2.421.265 1.072 1.349 1.727 2.421 1.462 2.108-.521 4.285-.786 6.502-.786.302 0 .605.005.906.015 1.104.037 2.029-.829 2.065-1.933.037-1.104-.829-2.029-1.933-2.065m-18.272 5.207c-2.378 1.593-4.528 3.508-6.383 5.688-.716.841-.615 2.103.226 2.819.841.716 2.103.615 2.819-.226 1.618-1.9 3.491-3.569 5.564-4.957.918-.615 1.164-1.857.549-2.775-.615-.918-1.857-1.164-2.775-.549m-11.808 14.896c-1 2.668-1.629 5.472-1.862 8.349-.089 1.101.731 2.066 1.832 2.155 1.101.089 2.066-.731 2.155-1.832.203-2.506.75-4.946 1.62-7.268.388-1.034-.136-2.187-1.171-2.575-1.034-.388-2.187.136-2.575 1.171m-.923 18.873c.739 2.776 1.86 5.425 3.327 7.881.566.948 1.794 1.258 2.743.692.948-.566 1.258-1.794.692-2.743-1.277-2.138-2.253-4.443-2.895-6.859-.284-1.067-1.38-1.702-2.447-1.418-1.067.284-1.702 1.38-1.418 2.447m10.263 15.946c2.21 1.82 4.661 3.328 7.286 4.476 1.012.443 2.191-.019 2.634-1.031.443-1.012-.019-2.191-1.031-2.634-2.285-.999-4.421-2.313-6.346-3.899-.853-.702-2.113-.58-2.815.272-.702.853-.58 2.113.272 2.815m17.61 6.991c-1.102-.073-1.936-1.026-1.863-2.128.073-1.102 1.026-1.936 2.128-1.863.601.04 1.205.06 1.812.06 1.105 0 2 .896 1.999 2 0 1.105-.896 2-2 1.999-.695 0-1.387-.023-2.076-.069"/><path fill="#fc0" d="m37.78 22.798c.241.268.288.563.14.884l-10.848 23.24c-.174.334-.455.502-.843.502-.054 0-.148-.014-.282-.04-.214-.057-.397-.193-.512-.382-.113-.18-.145-.398-.09-.603l3.957-16.232-8.156 2.03c-.079.016-.16.022-.241.02-.228.005-.449-.074-.623-.222-.24-.2-.328-.462-.26-.783l4.04-16.574c.052-.186.165-.348.321-.462.161-.12.349-.18.563-.18h6.59c.254 0 .468.083.642.25.167.152.262.367.261.593-.005.127-.039.251-.1.362l-3.435 9.301 7.955-1.969c.107-.027.187-.04.241-.04.254 0 .482.1.683.301"/></g><path fill="#e5e5e5" d="m148 69c0-1.105.887-2 1.998-2h4c1.103 0 1.998.888 1.998 2 0 1.105-.887 2-1.998 2h-4c-.531.001-1.04-.209-1.415-.585-.375-.375-.585-.885-.583-1.415m14 0c0-1.105.887-2 1.998-2h4c1.103 0 1.998.888 1.998 2 0 1.105-.887 2-1.998 2h-4c-.531.001-1.04-.209-1.415-.585-.375-.375-.585-.885-.583-1.415"/></g></g></svg>