<svg xmlns="http://www.w3.org/2000/svg" viewBox="0 0 398 151" xmlns:xlink="http://www.w3.org/1999/xlink"><g fill="none" fill-rule="evenodd" transform="translate(2)"><g transform="translate(40 106)"><path fill="#fef0e8" stroke="#fc6d26" stroke-width="4" d="m4.7.5h21.6c2.32 0 4.2 1.88 4.2 4.2v5.6c0 2.32-1.88 4.2-4.2 4.2h-21.6c-2.32 0-4.2-1.88-4.2-4.2v-5.6c0-2.32 1.88-4.2 4.2-4.2" transform="translate(11)"/><g transform="translate(0 11)"><rect width="52" height="23" x=".5" y=".5" fill="#fff" stroke="#eee" stroke-width="4" rx="4.2"/><g fill="#fdc4a8"><rect width="11" height="2" x="8" y="8" rx="1"/><rect width="11" height="2" x="8" y="14" rx="1"/></g></g></g><g fill-rule="nonzero"><path fill="#e1dbf1" d="m94.31 132.32c1.048 0 1.648.007 4.319.042 11.523.153 18.377-.12 26.32-1.533 24.23-4.309 38.521-18.02 38.521-45.03 0-31.02 21.885-44.487 66.903-40.522l.351-3.985c-47.09-4.147-71.25 10.727-71.25 44.507 0 24.868-12.746 37.1-35.22 41.09-7.623 1.356-14.284 1.621-25.567 1.471-2.693-.036-3.299-.042-4.372-.042v4"/><path fill="#eee" d="m240 57.678c-6.29-1.373-11-6.976-11-13.678 0-6.702 4.71-12.304 11-13.678v4.136c-4.057 1.274-7 5.065-7 9.542 0 4.478 2.943 8.268 7 9.542v4.136"/></g><g transform="translate(240)"><rect width="116" height="134" y="7" fill="#f9f9f9" rx="10"/><rect width="116" height="134" x="5" y="2" fill="#fff" rx="10"/><path fill="#eee" fill-rule="nonzero" d="m15 4c-4.418 0-8 3.582-8 8v114c0 4.418 3.582 8 8 8h96c4.418 0 8-3.582 8-8v-114c0-4.418-3.582-8-8-8h-96m0-4h96c6.627 0 12 5.373 12 12v114c0 6.627-5.373 12-12 12h-96c-6.627 0-12-5.373-12-12v-114c0-6.627 5.373-12 12-12"/><g transform="translate(23 25)"><g fill="#e1dbf1"><rect width="16" height="4" rx="2"/><rect width="16" height="4" x="32" y="12" rx="2"/></g><rect width="16" height="4" x="44" fill="#eee" rx="2"/><rect width="16" height="4" x="12" y="24" fill="#e1dbf1" rx="2"/><rect width="16" height="4" x="64" y="36" fill="#fef0e8" rx="2"/><rect width="8" height="4" x="20" fill="#fee1d3" rx="2" id="0"/><rect width="8" height="4" x="32" y="36" fill="#fc6d26" rx="2"/><rect width="8" height="4" x="52" y="12" fill="#fef0e8" rx="2"/><rect width="8" height="4" x="64" fill="#fef0e8" rx="2" id="1"/><rect width="12" height="4" x="16" y="48" fill="#e1dbf1" rx="2"/><rect width="8" height="4" x="44" y="36" fill="#fc6d26" rx="2"/><g fill="#e1dbf1"><rect width="4" height="4" x="56" y="36" rx="2"/><rect width="4" height="4" x="64" y="60" rx="2"/></g><rect width="4" height="4" x="72" y="60" fill="#fc6d26" rx="2"/><rect width="8" height="4" x="32" fill="#fc6d26" rx="2" id="2"/><g fill="#eee"><rect width="28" height="4" y="36" rx="2"/><rect width="28" height="4" x="44" y="48" rx="2"/></g><rect width="28" height="4" x="32" y="60" fill="#efedf8" rx="2"/><rect width="28" height="4" y="12" fill="#6b4fbb" rx="2"/><rect width="28" height="4" x="32" y="24" fill="#c3b8e3" rx="2"/><rect width="8" height="4" y="24" fill="#fef0e8" rx="2"/><rect width="8" height="4" x="32" y="48" fill="#6b4fbb" rx="2"/><rect width="12" height="4" y="48" fill="#fc6d26" rx="2"/><g fill="#fef0e8"><rect width="12" height="4" y="60" rx="2"/><rect width="12" height="4" x="16" y="60" rx="2"/></g><g transform="translate(0 72)"><rect width="16" height="4" fill="#efedf8" rx="2"/><rect width="16" height="4" x="18" y="12" fill="#fc6d26" rx="2"/><rect width="16" height="4" x="44" fill="#6b4fbb" rx="2"/><use xlink:href="#0"/><rect width="8" height="4" x="38" y="12" fill="#fef0e8" rx="2"/><use xlink:href="#1"/><use xlink:href="#2"/><rect width="14" height="4" y="12" fill="#eee" rx="2"/></g></g></g><g transform="translate(328 83)"><circle cx="33" cy="33" r="33" fill="#fff"/><g fill-rule="nonzero"><path fill="#eee" d="m33 68c-19.33 0-35-15.67-35-35 0-19.33 15.67-35 35-35 19.33 0 35 15.67 35 35 0 19.33-15.67 35-35 35m0-4c17.12 0 31-13.879 31-31 0-17.12-13.879-31-31-31-17.12 0-31 13.879-31 31 0 17.12 13.879 31 31 31"/><g transform="translate(12 12)"><path fill="#6b4fbb" stroke="#6b4fbb" stroke-width=".968" d="m30.383 22.655v-3.308l-2.112-.343c-.116-.456-.351-.913-.703-1.598l1.29-1.711-2.463-2.398-1.76 1.256c-.511-.303-1.064-.534-1.642-.684l-.233-2.055h-3.401l-.352 2.055c-.586.114-1.055.342-1.642.684l-1.76-1.255-2.463 2.397 1.173 1.711c-.352.57-.469 1.027-.704 1.598l-1.995.228v3.31l2.112.342c.116.57.351 1.027.703 1.598l-1.172 1.712 2.463 2.397 1.759-1.141c.469.227 1.056.456 1.642.684l.352 2.055h3.518l.352-2.055c.586-.114 1.055-.342 1.642-.684l1.76 1.255 2.463-2.397-1.29-1.712c.311-.497.548-1.035.703-1.598l1.76-.344m-9.383 1.713c-1.994 0-3.519-1.484-3.519-3.424 0-1.941 1.525-3.424 3.519-3.424 1.994 0 3.519 1.483 3.519 3.424 0 1.94-1.525 3.424-3.519 3.424" stroke-linecap="round" stroke-linejoin="bevel"/><path fill="#e1dbf1" d="m21 41.563c-11.598 0-21-9.206-21-20.563 0-11.357 9.402-20.563 21-20.563 11.598 0 21 9.206 21 20.563 0 11.357-9.402 20.563-21 20.563m0-4.375c9.13 0 16.532-7.248 16.532-16.188 0-8.94-7.402-16.188-16.532-16.188-9.13 0-16.532 7.248-16.532 16.188 0 8.94 7.402 16.188 16.532 16.188"/></g></g></g><g transform="translate(131 56)"><path fill="#fff" d="m31 58c14.912 0 27-12.09 27-27 0-14.912-12.09-27-27-27-14.912 0-27 12.09-27 27 0 14.912 12.09 27 27 27"/><g fill-rule="nonzero"><path fill="#eee" d="m31 62c-17.12 0-31-13.879-31-31 0-17.12 13.879-31 31-31 17.12 0 31 13.879 31 31 0 17.12-13.879 31-31 31m0-4c14.912 0 27-12.09 27-27 0-14.912-12.09-27-27-27-14.912 0-27 12.09-27 27 0 14.912 12.09 27 27 27"/><path fill="#fc0" d="m39.78 24.798c.241.268.288.563.14.884l-10.848 23.24c-.174.334-.455.502-.843.502-.054 0-.148-.014-.282-.04-.214-.057-.397-.193-.512-.382-.113-.18-.145-.398-.09-.603l3.957-16.232-8.156 2.03c-.079.016-.16.022-.241.02-.228.005-.449-.074-.623-.222-.24-.2-.328-.462-.26-.783l4.04-16.574c.052-.186.165-.348.321-.462.161-.12.349-.18.563-.18h6.59c.254 0 .468.083.642.25.167.152.262.367.261.593-.005.127-.039.251-.1.362l-3.435 9.301 7.955-1.969c.107-.027.187-.04.241-.04.254 0 .482.1.683.301"/></g></g><g transform="translate(0 48)"><path fill="#eee" fill-rule="nonzero" d="m15.209 51.01l-5.355 2.648c-2.271 1.122-4.643-.252-4.809-2.778l-.487-7.546c-1.077-1.269-2.038-2.634-2.87-4.076-7.594-13.152-3.088-29.972 10.07-37.565 13.153-7.594 29.971-3.087 37.566 10.07 7.594 13.154 3.087 29.973-10.07 37.565-7.429 4.29-16.267 4.823-24.05 1.687m-.952-3.992c.532-.263 1.154-.276 1.698-.035 6.828 3.03 14.709 2.682 21.299-1.124 11.24-6.488 15.09-20.86 8.602-32.1-6.49-11.239-20.862-15.09-32.1-8.601-11.239 6.489-15.09 20.862-8.6 32.1.811 1.408 1.766 2.728 2.849 3.939.298.334.476.757.504 1.204l.466 7.229 5.285-2.613" transform="matrix(-1 0 0 1 51.01 0)"/><path fill="#fdc4a8" d="m4.137 9.471c1.325 2.119 3.68 3.529 6.363 3.529 2.684 0 5.04-1.41 6.363-3.529 2.514 1.398 4.137 3.796 4.137 7.203 0 5.799-2.739 9.587-10.5 9.587-7.761 0-10.5-3.788-10.5-9.587 0-3.407 1.622-5.804 4.137-7.203m6.363 1.529c-3.038 0-5.5-2.462-5.5-5.5 0-3.038 2.462-5.5 5.5-5.5 3.038 0 5.5 2.462 5.5 5.5 0 3.038-2.462 5.5-5.5 5.5" transform="translate(15 13)"/></g></g></svg>