<svg xmlns="http://www.w3.org/2000/svg" width="430" height="300" viewBox="0 0 430 300">
  <g fill="none" fill-rule="evenodd">
    <rect width="430" height="300"/>
    <g transform="translate(28 23)">
      <g transform="translate(35 40)">
        <g transform="translate(102)">
          <rect width="4" height="48" fill="#FDE5D8" rx="2"/>
          <path fill="#FC6D26" d="M4,4 L31.2610718,13.2935472 C33.8783096,14.1857874 33.9250469,15.7579354 31.3811005,16.7986407 L4,28 L4,4 Z"/>
        </g>
        <path stroke="#EEE" stroke-dasharray="8 16" stroke-linecap="round" stroke-linejoin="round" stroke-width="4" d="M0.80078125,191.59375 L95.1209152,58.4104593 C98.3128105,53.9033927 104.554052,52.8372358 109.061119,56.0291311 C110.148514,56.7992218 111.07104,57.7788634 111.774502,58.9105033 L165.291103,145.001242 C168.206832,149.691698 174.372862,151.130398 179.063318,148.214669 C180.050266,147.601153 180.922722,146.820302 181.641516,145.907174 L213.17723,105.845453 C216.59329,101.505825 222.880519,100.757125 227.220147,104.173186 C228.142483,104.899229 228.929788,105.78199 229.546009,106.781046 L293.996094,211.271484"/>
      </g>
      <g fill="#F9F9F9" transform="translate(201 39)">
        <rect width="60" height="10" rx="5"/>
        <rect width="74" height="10" x="31" y="20" rx="5"/>
        <path d="M53.9976716,10 C51.2392484,10 49,12.2385763 49,15 C49,17.7558048 51.2375338,20 53.9976716,20 L35.0023284,20 C37.7607516,20 40,17.7614237 40,15 C40,12.2441952 37.7624662,10 35.0023284,10 L53.9976716,10 Z"/>
      </g>
      <g fill="#F9F9F9" transform="translate(287 120)">
        <rect width="36" height="10" rx="5"/>
        <rect width="66" height="10" x="9" y="20" rx="5"/>
        <rect width="44" height="10" x="43" y="40" rx="5"/>
        <path d="M31.9976716 10C29.2392484 10 27 12.2385763 27 15 27 17.7558048 29.2375338 20 31.9976716 20L13.0023284 20C15.7607516 20 18 17.7614237 18 15 18 12.2441952 15.7624662 10 13.0023284 10L31.9976716 10zM66.9976716 30C64.2392484 30 62 32.2385763 62 35 62 37.7558048 64.2375338 40 66.9976716 40L48.0023284 40C50.7607516 40 53 37.7614237 53 35 53 32.2441952 50.7624662 30 48.0023284 30L66.9976716 30z"/>
      </g>
      <g fill="#F9F9F9" transform="translate(0 126)">
        <rect width="42" height="10" x="19" rx="5" transform="matrix(-1 0 0 1 80 0)"/>
        <rect width="47" height="10" y="20" rx="5" transform="matrix(-1 0 0 1 47 0)"/>
        <path d="M42.9976716,10 C40.2392484,10 38,12.2385763 38,15 C38,17.7558048 40.2375338,20 42.9976716,20 L24.0023284,20 C26.7607516,20 29,17.7614237 29,15 C29,12.2441952 26.7624662,10 24.0023284,10 L42.9976716,10 Z" transform="matrix(-1 0 0 1 67 0)"/>
      </g>
      <g transform="translate(49 83)">
        <polyline stroke="#E1DBF1" stroke-linecap="round" stroke-linejoin="round" stroke-width="4" points="5 5 48.5 13 92 73 135.5 77 179 97 222.5 134 266 138"/>
        <circle cx="5" cy="5" r="5" fill="#FFF" stroke="#6B4FBB" stroke-width="4"/>
        <g transform="translate(256 128)">
          <circle cx="10" cy="10" r="10" fill="#FFF" stroke="#6B4FBB" stroke-width="4"/>
          <circle cx="10" cy="10" r="5" fill="#6B4FBB"/>
        </g>
        <circle cx="92" cy="73" r="5" fill="#C3B8E3"/>
        <circle cx="48.5" cy="13.5" r="2.5" fill="#C3B8E3"/>
        <circle cx="135.5" cy="77.5" r="2.5" fill="#C3B8E3"/>
        <circle cx="180" cy="98" r="5" fill="#C3B8E3"/>
        <circle cx="222.5" cy="133.5" r="2.5" fill="#C3B8E3"/>
      </g>
      <path fill="#FDE5D8" d="M347.559868,77.6142623 L341.743842,78.9062682 C340.659837,79.1462693 339.979834,78.4502661 340.217835,77.3802612 L341.509841,71.5642348 L340.217835,65.7482083 C339.977834,64.6642034 340.673837,63.9842003 341.743842,64.2222013 L347.559868,65.5142072 L353.375895,64.2222013 C354.4599,63.9822002 355.139903,64.6782034 354.901902,65.7482083 L353.609896,71.5642348 L354.901902,77.3802612 C355.141903,78.4642662 354.4459,79.1442693 353.375895,78.9062682 L347.559868,77.6142623" transform="rotate(45 347.56 71.564)"/>
      <path fill="#D4CDE8" d="M262.455735,13.405758 L258.035715,14.3877625 C256.96171,14.6257636 256.287707,13.9357604 256.523708,12.8757556 L257.505713,8.45573549 L256.523708,4.03571537 C256.285707,2.96171048 256.975711,2.28770741 258.035715,2.52370849 L262.455735,3.50571296 L266.875756,2.52370849 C267.94976,2.2857074 268.623764,2.97571054 268.387762,4.03571537 L267.405758,8.45573549 L268.387762,12.8757556 C268.625764,13.9497605 267.93576,14.6237636 266.875756,14.3877625 L262.455735,13.405758" transform="rotate(45 262.456 8.456)"/>
      <path fill="#FDE5D8" d="M217.455735,111.405758 L213.035715,112.387762 C211.96171,112.625764 211.287707,111.93576 211.523708,110.875756 L212.505713,106.455735 L211.523708,102.035715 C211.285707,100.96171 211.975711,100.287707 213.035715,100.523708 L217.455735,101.505713 L221.875756,100.523708 C222.94976,100.285707 223.623764,100.975711 223.387762,102.035715 L222.405758,106.455735 L223.387762,110.875756 C223.625764,111.94976 222.93576,112.623764 221.875756,112.387762 L217.455735,111.405758" transform="rotate(45 217.456 106.456)"/>
      <path fill="#FDE5D8" d="M47.55156,45.6069139 L41.7355335,46.8989197 C40.6515286,47.1389208 39.9715255,46.4429177 40.2095266,45.3729128 L41.5015325,39.5568863 L40.2095266,33.7408598 C39.9695255,32.6568549 40.6655287,31.9768518 41.7355335,32.2148529 L47.55156,33.5068588 L53.3675865,32.2148529 C54.4515914,31.9748518 55.1315945,32.670855 54.8935934,33.7408598 L53.6015875,39.5568863 L54.8935934,45.3729128 C55.1335945,46.4569177 54.4375913,47.1369208 53.3675865,46.8989197 L47.55156,45.6069139" transform="rotate(45 47.552 39.557)"/>
    </g>
  </g>
</svg>
