<svg xmlns="http://www.w3.org/2000/svg" width="80" height="80" viewBox="0 0 80 80">
  <g fill="none" fill-rule="evenodd" transform="translate(0 3)">
    <path fill="#EEE" fill-rule="nonzero" d="M40.84265183 5.86397251c-1.10036628-.09626957-1.91434749-1.0663346-1.81807791-2.16670088.09626958-1.10036628 1.0663346-1.91434748 2.16670088-1.8180779l5.97716819.52293445c1.10036628.09626957 1.91434749 1.0663346 1.81807791 2.16670088-.09626957 1.10036628-1.0663346 1.91434749-2.16670088 1.81807791l-5.97716819-.52293446zm13.94672577 1.2201804c-1.10036628-.09626957-1.91434748-1.0663346-1.8180779-2.16670088.09626957-1.10036628 1.0663346-1.91434748 2.16670087-1.8180779l5.9771682.52293445c1.10036627.09626957 1.91434748 1.0663346 1.8180779 2.16670088-.09626957 1.10036628-1.0663346 1.91434748-2.16670088 1.8180779l-5.97716819-.52293445zm13.94672578 1.2201804c-1.10036628-.09626957-1.91434749-1.0663346-1.81807791-2.16670088.09626957-1.10036628 1.0663346-1.91434749 2.16670088-1.81807791 2.48059832.21702423 4.78613449 1.1839552 6.6556901 2.75070803.84659307.70947448.95774955 1.97091642.24827514 2.81750945-.7094745.84659302-1.9709165.95774955-2.81750947.24827508-1.24603267-1.0442188-2.77805869-1.6867433-4.43507874-1.83171377zm7.28074865 7.35620367c-.08300084-1.10144663.74261254-2.06163098 1.84405918-2.14463182 1.10144664-.08300084 2.06163098.74261254 2.14463182 1.84405918.04811936.63855869.04516095 1.28295276-.0101012 1.9337161l-.3849343 4.40020366c-.09626121 1.10036702-1.06632006 1.91435559-2.16668707 1.81809438-1.100367-.0962613-1.91435558-1.06632015-1.81809437-2.16668716l.38449584-4.39511622c.03675657-.43289395.03873398-.86361011.0066301-1.28963812zm-1.08837057 13.65429688c.09626958-1.10036628 1.0663346-1.91434749 2.16670089-1.81807791 1.10036628.09626958 1.91434748 1.0663346 1.8180779 2.16670088l-.52293445 5.97716819c-.09626957 1.10036628-1.0663346 1.91434749-2.16670088 1.81807791-1.10036628-.09626957-1.91434749-1.0663346-1.81807791-2.16670088l.52293445-5.97716819zm-1.2201804 13.94672577c.09626958-1.10036628 1.0663346-1.91434748 2.16670089-1.8180779 1.10036628.09626957 1.91434748 1.0663346 1.8180779 2.16670088l-.52293445 5.97716818c-.09626957 1.10036628-1.0663346 1.91434749-2.16670088 1.81807791-1.10036628-.09626957-1.91434749-1.0663346-1.81807791-2.16670088l.52293446-5.97716819zm-1.40330115 13.43875035c.35383398-1.04636286 1.48891784-1.6077685 2.5352807-1.25393452 1.04636297.35383398 1.60776851 1.48891784 1.25393453 2.5352807-.78909875 2.33353411-2.27988404 4.35774726-4.25234837 5.81100665-.8892693.65518997-2.1413009.46543124-2.79649088-.42383797-.65519006-.88926931-.46543133-2.1413009.42383798-2.79649088 1.31710126-.97040534 2.31088657-2.31978354 2.83578604-3.87202398zm-9.05402786 5.33040779c1.10036628.09626958 1.91434749 1.0663346 1.81807791 2.16670088-.09626957 1.10036628-1.0663346 1.91434749-2.16670088 1.81807791l-5.97716819-.52293445c-1.10036628-.09626958-1.91434748-1.0663346-1.8180779-2.16670089.09626957-1.10036628 1.0663346-1.91434748 2.16670088-1.8180779l5.97716818.52293445zM32.79295682 10.67365209c-.43592772 1.01490933-1.61206345 1.4842666-2.62697268 1.04833889-1.01490935-.43592761-1.4842666-1.61206335-1.0483389-2.62697268.96996567-2.25823506 2.61541196-4.16170082 4.69625846-5.45590978.93795119-.58337067 2.17122625-.29592635 2.75459692.64202484.58337066.9379512.29592635 2.17122624-.64202484 2.7545969-1.38958467.86426986-2.48789338 2.13480248-3.13351896 3.63792183z"/>
    <rect width="48" height="58" x="2" y="14" fill="#FAFAFA" rx="10"/>
    <path fill="#EEE" fill-rule="nonzero" d="M12 16c-4.418278 0-8 3.581722-8 8v38c0 4.418278 3.581722 8 8 8h28c4.418278 0 8-3.581722 8-8V24c0-4.418278-3.581722-8-8-8H12zm0-4h28c6.627417 0 12 5.372583 12 12v38c0 6.627417-5.372583 12-12 12H12C5.372583 74 0 68.627417 0 62V24c0-6.627417 5.372583-12 12-12z"/>
    <rect width="24" height="4" x="11" y="30" fill="#E5E5E5" rx="2"/>
    <rect width="30" height="4" x="11" y="41" fill="#E5E5E5" rx="2"/>
    <rect width="20" height="4" x="11" y="52" fill="#E5E5E5" rx="2"/>
  </g>
</svg>
