<svg height="300" viewBox="0 0 430 300" width="430" xmlns="http://www.w3.org/2000/svg" xmlns:xlink="http://www.w3.org/1999/xlink"><mask id="a" fill="#fff"><path d="m.968.121h185.3v42.884h-185.3z" fill="#fff" fill-rule="evenodd"/></mask><g fill="none" fill-rule="evenodd" transform="translate(13 7)"><path d="m217 135.884c8.8-9.027 25.476-7.224 37.059-7.673 3.242-9.033 10.191-17.606 19.918-19.867 7.414-1.803 18.996-1.354 20.848 7.677 0 0-.75-23.021 23-23.021s18.695 25.278 18.695 25.278c11.58-8.579 25.011-9.48 33.816 3.161 2.315 3.161.926 4.513 4.63 5.418 1.854.902 6.95-.452 9.729 0 6.022.902 17.604 9.027 17.604 9.027z" fill="#fafafa"/><path d="m.9683 43.0045c8.8-9.027 25.476-7.223 37.06-7.673 3.242-9.033 10.19-17.606 19.917-19.868 7.415-1.802 18.996-1.353 20.849 7.678 0 0-.75-23.02 23-23.02s18.694 25.276 18.694 25.276c11.58-8.577 25.012-9.479 33.816 3.162 2.316 3.16.926 4.513 4.63 5.418 1.854.902 6.951-.452 9.73 0 6.022.902 17.604 9.027 17.604 9.027z" fill="#fafafa" mask="url(#a)" transform="translate(.933 56)"/><g stroke="#eee" stroke-width="4"><path d="m176 62 25.5 129.5m-74.5-85.5c14.033145 19.292368 54.536305 72.555797 69 92"/><path d="m270.05754 85.9354889c.474572 12.3545469-62.137832 86.4800191-61.746034 107.2695651" transform="matrix(.9998477 .01745241 -.01745241 .9998477 2.472261 -4.153097)"/><path d="m218 122c-4.466228 13.498727-11.253291 60.112187-16 74zm-91 37c21.55087 4.594894 53.651813 34.278793 75.2944 39"/></g><g transform="matrix(.9612617 -.27563736 .27563736 .9612617 76.622004 59.155885)"><path d="m47.0712851 74.5878121c-.729 3.447.523 5.986 2.327 7.362 3.36 2.568-8.375 4.804-6.195 1.181 1.171-1.943 1.403-4.766-.543-7.701-.111-2.686 3.528-3.38 4.411-.842" fill="#fafafa"/><path d="m71.1074851 34.5119121c-2.091-23.448-22.103-36.19600003-40.2-32.74600003-18.099 3.449-32.02100001 22.66500003-25.34200001 45.23700003 6.68100001 22.573 28.74000001 34.934 40.20500001 32.748 11.462-2.185 27.43-21.792 25.337-45.239z" fill="#fafafa"/><path d="m44.0563009 73.7301671c-.729 3.447.523 5.986 2.327 7.362 3.36 2.568-8.375 4.804-6.195 1.181 1.171-1.943 1.403-4.766-.543-7.701-.111-2.686 3.528-3.38 4.411-.842" fill="#b5a7dd"/><path d="m66.231621 33.8628232-.0000158-.0001761c-1.8725223-20.9980406-19.6451783-34.42641395-37.8335164-30.95900133-18.1900948 3.46635931-29.77977578 22.49115823-23.79862381 42.70474743 2.97420338 10.0488988 9.35873001 18.6619742 17.56411761 24.6066105 7.2241121 5.233722 15.1109808 7.7430175 20.3486018 6.7443747 5.2364468-.9982234 11.6471562-6.2328019 16.4392816-13.7561081 5.4435674-8.5460252 8.211863-18.9029127 7.280155-29.3404471z" fill="#f4f1fa" stroke="#b5a7dd" stroke-width="4"/></g><g transform="matrix(.95105652 -.30901699 .30901699 .95105652 54.555802 107.057776)"><path d="m56.9591266 68.0090393c.2897182 3.5804297 2.1479438 5.6846458 4.1855644 6.4941165 3.7999131 1.5118955-6.3517354 7.1639178-5.3588271 2.9860702.5333885-2.2438855-.0383733-5.0647992-2.642959-7.3525225-.8490085-2.5884712 2.2985589-4.3409651 3.8162217-2.1276642" fill="#f9f9f9"/><path d="m57.4321847 74.0197737c10.3270371-5.42014 19.9107193-28.828701 11.1133546-50.6743565-8.7973647-21.84265386-31.6275501-28.24236132-47.932399-19.68440354-16.30384974 8.55595664-24.04313274 30.99695704-11.11435375 50.67235534 12.93077725 19.6763989 37.60536195 25.1055441 47.93339815 19.6864047" fill="#f9f9f9"/><path d="m53.9591266 68.0090393c.2897182 3.5804297 2.1479438 5.6846458 4.1855644 6.4941165 3.7999131 1.5118955-6.3517354 7.1639178-5.3588271 2.9860702.5333885-2.2438855-.0383733-5.0647992-2.642959-7.3525225-.8490085-2.5884712 2.2985589-4.3409651 3.8162217-2.1276642" fill="#fc6f2a"/><path d="m63.6903217 24.0925234.0000356.0000884c-7.8786513-19.56161415-28.7637899-27.26017798-45.1478527-18.66064301-16.38566102 8.59888961-21.95123744 30.18188581-10.3723294 47.80301051 5.7562868 8.7591793 14.3567862 15.1525489 23.9251414 18.4623021 8.4228558 2.9135179 16.6900684 3.0267841 21.4074093.5515868 4.7176748-2.4760691 9.3301976-9.3494663 11.7315473-17.9448507 2.7278303-9.7639885 2.3725905-20.4859194-1.5439515-30.2114941z" fill="#fde5d8" stroke="#fc6f2a" stroke-width="4"/></g><g transform="matrix(.88294759 .46947156 -.46947156 .88294759 257.696912 13.94614)"><path d="m46.6594954 75.6539703c-.729 3.447.523 5.986 2.327 7.362 3.36 2.568-8.375 4.804-6.195 1.181 1.171-1.943 1.403-4.766-.543-7.701-.111-2.686 3.528-3.38 4.411-.842" fill="#f9f9f9"/><path d="m45.3586954 80.8170703c11.462-2.185 27.43-21.792 25.337-45.239-2.091-23.448-22.103-36.19600002-40.2-32.74600002-18.099 3.449-32.02099997 22.66500002-25.34199997 45.23700002 6.68099997 22.573 28.73999997 34.934 40.20499997 32.748" fill="#f9f9f9"/><path d="m45.3183025 77.1638252c-.729 3.447.523 5.986 2.327 7.362 3.36 2.568-8.375 4.804-6.195 1.181 1.171-1.943 1.403-4.766-.543-7.701-.111-2.686 3.528-3.38 4.411-.842" fill="#fc6d26"/><path d="m67.9483572 33.6411458c-2.091-23.448-22.103-36.19600004-40.2-32.74600004-18.09899998 3.449-32.02099998 22.66500004-25.34199998 45.23700004 6.681 22.573 28.73999998 34.934 40.20499998 32.748 11.462-2.185 27.43-21.792 25.337-45.239z" fill="#fde5d8" stroke="#fc6d26" stroke-width="4"/></g><g transform="translate(137)"><path d="m45.2035084 75.577436c-.6943169 3.4417115.4981176 5.976816 2.21629 7.3507049 3.2001436 2.56406-7.9765486 4.7966294-5.9002649 1.179188 1.1152882-1.9400189 1.3362505-4.7586877-.5171661-7.6891847-.105719-2.681879 3.3601509-3.3748142 4.201141-.8407082" fill="#fafafa"/><path d="m68.8146329 35.3922032c-2.0776543-23.5101449-21.9619283-36.2919313-39.9434247-32.83278766-17.9834837 3.45814099-31.81662693 22.72506976-25.18025545 45.35689296 6.63835875 22.6328259 28.55656785 35.0265867 39.94839275 32.834793 11.3888442-2.1907909 27.2549289-21.849756 25.1752874-45.3588983z" fill="#fafafa"/><path d="m43.2035084 73.577436c-.6943169 3.4417115.4981176 5.976816 2.21629 7.3507049 3.2001436 2.56406-7.9765486 4.7966294-5.9002649 1.179188 1.1152882-1.9400189 1.3362505-4.7586877-.5171661-7.6891847-.105719-2.681879 3.3601509-3.3748142 4.201141-.8407082" fill="#fdb997"/><path d="m64.8224126 33.568437-.0000154-.0001746c-1.8610565-21.0591863-19.5146498-34.51885723-37.5735175-31.04482949-18.06614905 3.47403716-29.58446287 22.55357099-23.63877516 42.82997559 2.95603509 10.0783086 9.30039046 18.7149981 17.45283996 24.6749747 7.1738231 5.2445364 15.0034695 7.7582719 20.1986017 6.7587255 5.1961705-.9995503 11.5639306-6.246327 16.3248826-13.7886414 5.4104191-8.5712019 8.1621866-18.9598438 7.2359838-29.4300303z" fill="#fde5d8" stroke="#fdb997" stroke-width="4"/></g><g transform="translate(190 49)"><path d="m32.6768 76.5031c-1.886 2.977-1.598 5.792-.389 7.711 2.251 3.579-9.526 1.579-6.218-1.057 1.775-1.412 2.978-3.974 2.18-7.405.833-2.555 4.484-1.935 4.427.751" fill="#f9f9f9"/><path d="m29.6548 80.8859c11.504 1.955 33.312-10.844 39.537-33.546s-8.078-41.637-26.241-44.724c-18.165-3.084-37.916 10.065-39.537 33.549-1.622 23.485 14.736 42.767 26.241 44.721" fill="#f9f9f9"/><path d="m29.6768 74.5031c-1.886 2.977-1.598 5.792-.389 7.711 2.251 3.579-9.526 1.579-6.218-1.057 1.775-1.412 2.978-3.974 2.18-7.405.833-2.555 4.484-1.935 4.427.751" fill="#b5a7dd"/><path d="m64.2629977 44.8110129c5.574665-20.3302885-6.3929242-39.12085582-24.6469614-42.22332862-18.2559318-3.09943812-35.75530004 10.68388232-37.20698933 31.71501822-.7220471 10.4545475 2.25354569 20.7538769 7.86756453 29.1886771 4.9422845 7.4255506 11.4569986 12.5300692 16.7132662 13.4227895 5.2554817.8931212 13.090225-1.7737504 20.2074566-7.1506857 8.0845304-6.1077115 14.2945513-14.8464807 17.0656634-24.9524705z" fill="#f4f1fa" stroke="#b5a7dd" stroke-width="4"/></g><ellipse cx="210" cy="280" fill="#f9f9f9" rx="117" ry="5"/><g transform="translate(144 162)"><path d="m68.8454771 12.9779405c-4.395844 4.3433744-8.6954232 8.7625479-12.8958485 13.2543-1.1886627 1.2711042-1.3037703 2.7722523-.568004 3.378629.8060156.6642721 2.5382851.331694 3.7686784-.9840351 4.1193905-4.405097 8.3360682-8.739059 12.6472353-12.9987671 1.2520752-1.2371303 1.4535223-2.7904776.7514949-3.454153-.7381713-.6978448-2.4278851-.4564181-3.7035561.8040262z" fill="#f4f1fa" stroke="#e1dcf1" stroke-width="3"/><path d="m55.0534417 30.6555967c1.7918362-.0733458 3.1207866-1.1444716 3.1138469-2.1602649-.0066-.9660559-1.280033-1.8781072-3.038726-1.8061181-6.0555622.247874-12.1009886.3760019-18.1320901.3844645-1.8013896.0025276-3.2260268 1.0426116-3.2899102 2.0851266-.0583156.9516533 1.1180578 1.8912494 2.8583506 1.8888075 6.1497427-.008629 12.3140276-.1392731 18.4885288-.3920156z" fill="#f4f1fa" stroke="#e1dcf1" stroke-width="3"/><path d="m8.80478321 65.3655363c-2.10102851-4.5056702-.15962756-9.8577523 4.35588729-11.9633715l102.7412455-47.90902947c4.506719-2.10151742 9.863582-.15208192 11.964385 4.35310365l13.099797 28.09260652c2.101029 4.5056701.159628 9.8577522-4.355887 11.9633714l-102.7412456 47.9090295c-4.5067187 2.1015174-9.8635821.1520819-11.9643847-4.3531036z" fill="#fafafa"/><path d="m58.6859024 20.3307416c.9451925.3205413 1.9712725-.1858386 2.2918138-1.1310312.0190725-.0562399.0353612-.1133857.0488069-.1712295l3.3198347-14.28205282c.2944232-1.26661924-.4196603-2.55007849-1.6511592-2.9677143-.9451925-.32054128-1.9712725.1858386-2.2918138 1.13103112-.0190725.0562399-.0353612.11338575-.0488069.17122952l-3.3198348 14.28205288c-.2944231 1.2666192.4196603 2.5500785 1.6511593 2.9677143zm-7.0133332 3.9890695c.5249478-.8488612.2623642-1.9625535-.586497-2.4875014-.0505081-.031235-.1025251-.0599612-.1558617-.0860743l-13.1692045-6.4475105c-1.1679251-.5718044-2.5791231-.1647384-3.263082.9412497-.5249478.8488612-.2623642 1.9625535.586497 2.4875014.0505081.0312349.1025251.0599612.1558617.0860743l13.1692045 6.4475104c1.1679251.5718044 2.5791231.1647384 3.263082-.9412496z" fill="#f4f1fa" stroke="#e1dcf1" stroke-width="3"/><path d="m3.61739878 61.5202998 13.09979752 28.0926064c1.6340331 3.5041953 5.8009835 5.020389 9.3065325 3.3857246l102.7412452-47.9090295c3.511189-1.6372943 5.02424-5.7976818 3.388508-9.3055193l-13.099797-28.0926065c-1.634033-3.50419523-5.800984-5.02038897-9.306533-3.3857246l-102.74124495 47.9090295c-3.51118908 1.6372944-5.02423978 5.7976818-3.38850827 9.3055194z" fill="#fff" stroke="#eee" stroke-width="4"/><g fill="#f4f1fa" stroke-width="3"><path d="m76.7713031 66.9094206c2.3427071-.9383761 3.4811423-3.5982194 2.5427662-5.9409265-.0439013-.1096021-.0920341-.2174615-.1442899-.3233354l-11.9493294-24.2101827c-1.2917001-2.6170753-4.3797731-3.7994444-7.0890052-2.714256-2.342707.938376-3.4811422 3.5982194-2.5427662 5.9409264.0439013.1096021.0920341.2174616.1442899.3233355l11.9493294 24.2101826c1.2917001 2.6170753 4.3797731 3.7994445 7.0890052 2.7142561z" stroke="#e1dcf1"/><circle cx="57.5" cy="27.5" r="5.5" stroke="#6b4fbb" stroke-linecap="round"/></g></g></g></svg>