<svg width="430" height="268" viewBox="0 0 430 268" xmlns="http://www.w3.org/2000/svg">
  <title>
    log-pods_empty
  </title>
  <g fill="none" fill-rule="evenodd">
    <path d="M180 29c-1.104569 0-2-.8954305-2-2s.895431-2 2-2h8c1.104569 0 2 .8954305 2 2s-.895431 2-2 2h-8zm20 0c-1.104569 0-2-.8954305-2-2s.895431-2 2-2h8c1.104569 0 2 .8954305 2 2s-.895431 2-2 2h-8zm20 0c-1.104569 0-2-.8954305-2-2s.895431-2 2-2h8c1.104569 0 2 .8954305 2 2s-.895431 2-2 2h-8zm20 0c-1.104569 0-2-.8954305-2-2s.895431-2 2-2h8c1.104569 0 2 .8954305 2 2s-.895431 2-2 2h-8zm20 0c-1.104569 0-2-.8954305-2-2s.895431-2 2-2h8c1.104569 0 2 .8954305 2 2s-.895431 2-2 2h-8zm20 0c-1.104569 0-2-.8954305-2-2s.895431-2 2-2h8c1.104569 0 2 .8954305 2 2s-.895431 2-2 2h-8zm19.663216.1373679c-1.089454-.1821065-1.825005-1.2129104-1.642899-2.3023648.182107-1.0894545 1.212911-1.8250053 2.302365-1.6428987 3.127154.5227159 5.96177 2.0932559 8.069285 4.4265453.740383.8196991.676085 2.0843956-.143614 2.8247788-.819699.7403831-2.084396.6760848-2.824779-.1436143-1.507227-1.6686942-3.530535-2.7897227-5.760358-3.1624463zM308 42.2690175c0-1.1045695.895431-2 2-2 1.104569 0 2 .8954305 2 2v8c0 1.1045695-.895431 2-2 2-1.104569 0-2-.8954305-2-2v-8zm0 20c0-1.1045695.895431-2 2-2 1.104569 0 2 .8954305 2 2v8c0 1.1045695-.895431 2-2 2-1.104569 0-2-.8954305-2-2v-8zm0 20c0-1.1045695.895431-2 2-2 1.104569 0 2 .8954305 2 2v8c0 1.1045695-.895431 2-2 2-1.104569 0-2-.8954305-2-2v-8zm0 19.9999995c0-1.104569.895431-2 2-2 1.104569 0 2 .895431 2 2v8c0 1.10457-.895431 2-2 2-1.104569 0-2-.89543-2-2v-8zm0 20c0-1.104569.895431-2 2-2 1.104569 0 2 .895431 2 2v8c0 1.10457-.895431 2-2 2-1.104569 0-2-.89543-2-2v-8zm0 20c0-1.104569.895431-2 2-2 1.104569 0 2 .895431 2 2v8c0 1.10457-.895431 2-2 2-1.104569 0-2-.89543-2-2v-8zm0 20c0-1.104569.895431-2 2-2 1.104569 0 2 .895431 2 2v8c0 1.10457-.895431 2-2 2-1.104569 0-2-.89543-2-2v-8zm0 20c0-1.104569.895431-2 2-2 1.104569 0 2 .895431 2 2V183c0 2.898588-.885013 5.6698-2.508699 7.99872-.631716.906095-1.878358 1.128524-2.784453.496808-.906096-.631715-1.128525-1.878358-.496809-2.784453C307.369541 187.047954 308 185.073817 308 183v-.730983zM297.461965 193c1.10457 0 2 .895431 2 2 0 1.104569-.89543 2-2 2h-8c-1.104569 0-2-.895431-2-2 0-1.104569.895431-2 2-2h8zM170 39.1929475c0 1.1045695-.895431 2-2 2-1.104569 0-2-.8954305-2-2V39c0-3.1189847 1.025121-6.0875402 2.884237-8.5121668.672108-.8765523 1.927546-1.0422868 2.804098-.3701784.876553.6721085 1.042287 1.9275461.370179 2.8040985C170.730319 34.6539617 170 36.7688265 170 39v.1929475zM131.5 75c-.828427 0-1.5-.8954305-1.5-2s.671573-2 1.5-2h6c.828427 0 1.5.8954305 1.5 2s-.671573 2-1.5 2h-6zM261 228.269017c0-1.104569.895431-2 2-2 1.104569 0 2 .895431 2 2V229c0 2.898588-.885013 5.6698-2.508699 7.99872-.631716.906095-1.878358 1.128524-2.784453.496808-.906096-.631715-1.128525-1.878358-.496809-2.784453C260.369541 233.047954 261 231.073817 261 229v-.730983zM250.461965 239c1.10457 0 2 .895431 2 2 0 1.104569-.89543 2-2 2h-8c-1.104569 0-2-.895431-2-2 0-1.104569.895431-2 2-2h8zm-20 0c1.10457 0 2 .895431 2 2 0 1.104569-.89543 2-2 2h-8c-1.104569 0-2-.895431-2-2 0-1.104569.895431-2 2-2h8zm-20 0c1.10457 0 2 .895431 2 2 0 1.104569-.89543 2-2 2h-8c-1.104569 0-2-.895431-2-2 0-1.104569.895431-2 2-2h8zm-20 0c1.10457 0 2 .895431 2 2 0 1.104569-.89543 2-2 2h-8c-1.104569 0-2-.895431-2-2 0-1.104569.895431-2 2-2h8zm-20 0c1.10457 0 2 .895431 2 2 0 1.104569-.89543 2-2 2h-8c-1.104569 0-2-.895431-2-2 0-1.104569.895431-2 2-2h8zm-20 0c1.10457 0 2 .895431 2 2 0 1.104569-.89543 2-2 2h-8c-1.104569 0-2-.895431-2-2 0-1.104569.895431-2 2-2h8zm-19.567397-.22161c1.080098.231222 1.768247 1.294256 1.537026 2.374353-.231222 1.080098-1.294256 1.768247-2.374354 1.537026-3.095068-.662577-5.859845-2.359458-7.861524-4.786014-.702881-.852075-.581935-2.112616.27014-2.815497.852075-.702881 2.112616-.581936 2.815497.270139 1.431678 1.735567 3.406443 2.947579 5.613215 3.419993zM123 225.192948c0 1.104569-.895431 2-2 2-1.104569 0-2-.895431-2-2v-8c0-1.10457.895431-2 2-2 1.104569 0 2 .89543 2 2v8zm0-20c0 1.104569-.895431 2-2 2-1.104569 0-2-.895431-2-2v-8c0-1.10457.895431-2 2-2 1.104569 0 2 .89543 2 2v8zm0-20c0 1.104569-.895431 2-2 2-1.104569 0-2-.895431-2-2v-8c0-1.10457.895431-2 2-2 1.104569 0 2 .89543 2 2v8zm0-20c0 1.104569-.895431 2-2 2-1.104569 0-2-.895431-2-2v-8c0-1.10457.895431-2 2-2 1.104569 0 2 .89543 2 2v8zm0-20c0 1.104569-.895431 2-2 2-1.104569 0-2-.895431-2-2v-8c0-1.10457.895431-2 2-2 1.104569 0 2 .89543 2 2v8zm0-20c0 1.104569-.895431 2-2 2-1.104569 0-2-.895431-2-2v-8c0-1.10457.895431-2 2-2 1.104569 0 2 .89543 2 2v8zm0-20c0 1.104569-.895431 2-2 2-1.104569 0-2-.895431-2-2v-8.0000005c0-1.1045695.895431-2 2-2 1.104569 0 2 .8954305 2 2v8.0000005zm0-20.0000005c0 1.1045695-.895431 2-2 2-1.104569 0-2-.8954305-2-2V85c0-3.1189847 1.025121-6.0875402 2.884237-8.5121668.672108-.8765523 1.927546-1.0422868 2.804098-.3701784.876553.6721085 1.042287 1.9275461.370179 2.8040985C123.730319 80.6539617 123 82.7688265 123 85v.1929475zM154 52c-1.1045695 0-2-.8954305-2-2s.8954305-2 2-2h8c1.1045695 0 2 .8954305 2 2s-.8954305 2-2 2h-8zm20 0c-1.1045695 0-2-.8954305-2-2s.8954305-2 2-2h8c1.1045695 0 2 .8954305 2 2s-.8954305 2-2 2h-8zm20 0c-1.1045695 0-2-.8954305-2-2s.8954305-2 2-2h8c1.1045695 0 2 .8954305 2 2s-.8954305 2-2 2h-8zm20 0c-1.1045695 0-2-.8954305-2-2s.8954305-2 2-2h8c1.1045695 0 2 .8954305 2 2s-.8954305 2-2 2h-8zm20 0c-1.1045695 0-2-.8954305-2-2s.8954305-2 2-2h8c1.104569 0 2 .8954305 2 2s-.895431 2-2 2h-8zm20 0c-1.104569 0-2-.8954305-2-2s.895431-2 2-2h8c1.104569 0 2 .8954305 2 2s-.895431 2-2 2h-8zm20 0c-1.104569 0-2-.8954305-2-2s.895431-2 2-2h2c2.490074 0 4.87111.7623108 6.870103 2.16015914.905206.63298927 1.125882 1.87994312.492893 2.78514938-.63299.90520625-1.879943 1.12588172-2.78515.49289245C279.245545 52.50655463 277.66335 52 276 52h-2zm10 10.3908479c0-1.1045695.895431-2 2-2 1.104569 0 2 .8954305 2 2v8c0 1.1045695-.895431 2-2 2-1.104569 0-2-.8954305-2-2v-8zm0 20c0-1.1045695.895431-2 2-2 1.104569 0 2 .8954305 2 2v8c0 1.1045695-.895431 2-2 2-1.104569 0-2-.8954305-2-2v-8zm0 20c0-1.1045695.895431-2 2-2 1.104569 0 2 .8954305 2 2v8c0 1.1045695-.895431 2-2 2-1.104569 0-2-.8954305-2-2v-8zm0 20c0-1.1045695.895431-2 2-2 1.104569 0 2 .8954305 2 2v8c0 1.1045695-.895431 2-2 2-1.104569 0-2-.8954305-2-2v-8zm0 20c0-1.1045695.895431-2 2-2 1.104569 0 2 .8954305 2 2v8.0000001c0 1.104569-.895431 2-2 2-1.104569 0-2-.895431-2-2v-8.0000001zm0 20.0000001c0-1.10457.895431-2 2-2 1.104569 0 2 .89543 2 2v8c0 1.104569-.895431 2-2 2-1.104569 0-2-.895431-2-2v-8zm0 20c0-1.10457.895431-2 2-2 1.104569 0 2 .89543 2 2v8c0 1.104569-.895431 2-2 2-1.104569 0-2-.895431-2-2v-8zm0 20c0-1.10457.895431-2 2-2 1.104569 0 2 .89543 2 2V208c0 .967476-.114905 1.921516-.340224 2.846984-.261291 1.07322-1.343126 1.731418-2.416346 1.470127-1.07322-.261291-1.731418-1.343126-1.470127-2.416345C283.923351 209.284462 284 208.64806 284 208v-5.609152zm-7.007917 13.54845c1.096259-.13524 2.094586.64382 2.229826 1.740079.13524 1.096259-.64382 2.094586-1.740079 2.229826-.481086.059349-.967275.089763-1.460777.090775L269.218311 220c-1.10457.000004-2.000003-.895424-2.000007-1.999994-.000003-1.104569.895424-2.000002 1.999994-2.000006l6.798628-.000017c.328332-.000677.653727-.021032.975157-.060685zM257.218304 216c1.10457 0 2 .895431 2 2 0 1.104569-.89543 2-2 2h-8c-1.104569 0-2-.895431-2-2 0-1.104569.895431-2 2-2h8zm-19.9999998 0c1.1045695 0 2 .895431 2 2 0 1.104569-.8954305 2-2 2h-8c-1.1045695 0-2-.895431-2-2 0-1.104569.8954305-2 2-2h8zm-20 0c1.1045695 0 2 .895431 2 2 0 1.104569-.8954305 2-2 2h-8c-1.1045695 0-2-.895431-2-2 0-1.104569.8954305-2 2-2h8zm-20 0c1.1045695 0 2 .895431 2 2 0 1.104569-.8954305 2-2 2h-8c-1.1045695 0-2-.895431-2-2 0-1.104569.8954305-2 2-2h8zm-20 0c1.1045695 0 2 .895431 2 2 0 1.104569-.8954305 2-2 2h-8c-1.1045695 0-2-.895431-2-2 0-1.104569.8954305-2 2-2h8zm-20 0c1.1045695 0 2 .895431 2 2 0 1.104569-.8954305 2-2 2H154c-1.9660991 0-3.86824854-.474858-5.57365737-1.37065-.97787686-.513644-1.35421157-1.722761-.8405671-2.700638.51364446-.977877 1.72276139-1.354212 2.70063825-.840567C151.42149881 215.684365 152.6858432 216 154 216h3.2183042zM146 206.827456c0 1.10457-.8954305 2-2 2s-2-.89543-2-2v-8c0-1.104569.8954305-2 2-2s2 .895431 2 2v8zm0-20c0 1.10457-.8954305 2-2 2s-2-.89543-2-2v-8c0-1.104569.8954305-2 2-2s2 .895431 2 2v8zm0-20c0 1.10457-.8954305 2-2 2s-2-.89543-2-2v-8c0-1.104569.8954305-2 2-2s2 .895431 2 2v8zm0-19.9999997c0 1.1045695-.8954305 1.9999997-2 1.9999997s-2-.8954302-2-1.9999997v-8c0-1.1045695.8954305-2 2-2s2 .8954305 2 2v8zm0-20c0 1.1045695-.8954305 2-2 2s-2-.8954305-2-2v-8c0-1.1045695.8954305-2 2-2s2 .8954305 2 2v8zm0-20c0 1.1045695-.8954305 2-2 2s-2-.8954305-2-2v-8c0-1.1045695.8954305-2 2-2s2 .8954305 2 2v8zm0-20c0 1.1045695-.8954305 2-2 2s-2-.8954305-2-2v-8c0-1.1045695.8954305-2 2-2s2 .8954305 2 2v8zm0-20c0 1.1045695-.8954305 2-2 2s-2-.8954305-2-2V60c0-.4707774.02720664-.938645.08120967-1.4019146.12789293-1.09714046 1.12097871-1.88287082 2.21811916-1.75497789 1.09714045.12789293 1.88287082 1.12097871 1.75497789 2.21811919C146.01821429 59.3708486 146 59.6840765 146 60v6.8274563zm6.0369754-14.58533453c-1.07107097.26996437-2.15819491-.37946083-2.42815928-1.4505318-.26996438-1.07107097.37946083-2.1581949 1.45053179-2.42815928.94157939-.23732592 1.91355419-.36006624 2.90316989-.36337085l.0341405-.00005705c1.104568-.00184556 2.0014933.89208757 2.0033389 1.99665553.0018456 1.10456795-.8920876 2.00149333-1.9966555 2.00333889l-.030798.00004866c-.6604586.00220733-1.3086493.08406042-1.9355683.2420759z" fill="#EEE" fill-rule="nonzero"/>
    <path d="M170 74h11c1.1045695 0 2 .8954305 2 2s-.8954305 2-2 2h-11c-1.1045695 0-2-.8954305-2-2s.8954305-2 2-2zM210 74h11c1.1045695 0 2 .8954305 2 2s-.8954305 2-2 2h-11c-1.1045695 0-2-.8954305-2-2s.8954305-2 2-2z" fill="#E1DBF1"/>
    <path d="M190 74h11c1.1045695 0 2 .8954305 2 2s-.8954305 2-2 2h-11c-1.1045695 0-2-.8954305-2-2s.8954305-2 2-2z" fill="#6B4FBB"/>
    <path d="M170 110h11c1.1045695 0 2 .8954305 2 2s-.8954305 2-2 2h-11c-1.1045695 0-2-.8954305-2-2s.8954305-2 2-2z" fill="#C3B8E3"/>
    <path d="M225 86h3c1.1045695 0 2 .8954305 2 2s-.8954305 2-2 2h-3c-1.1045695 0-2-.8954305-2-2s.8954305-2 2-2z" fill="#FC6D26"/>
    <path d="M257 86h3c1.1045695 0 2 .8954305 2 2s-.8954305 2-2 2h-3c-1.1045695 0-2-.8954305-2-2s.8954305-2 2-2z" fill="#FEE1D3"/>
    <path d="M170 86h11c1.1045695 0 2 .8954305 2 2s-.8954305 2-2 2h-11c-1.1045695 0-2-.8954305-2-2s.8954305-2 2-2z" fill="#EFEDF8"/>
    <path d="M202 122h3c1.1045695 0 2 .8954305 2 2s-.8954305 2-2 2h-3c-1.1045695 0-2-.8954305-2-2s.8954305-2 2-2z" fill="#E1DBF1"/>
    <path d="M214 122h3c1.1045695 0 2 .8954305 2 2s-.8954305 2-2 2h-3c-1.1045695 0-2-.8954305-2-2s.8954305-2 2-2z" fill="#EFEDF8"/>
    <path d="M226 122c1.1045695 0 2 .8954305 2 2s-.8954305 2-2 2-2-.8954305-2-2 .8954305-2 2-2z" fill="#FC6D26"/>
    <path d="M202 110h26c1.1045695 0 2 .8954305 2 2s-.8954305 2-2 2h-26c-1.1045695 0-2-.8954305-2-2s.8954305-2 2-2zM182 122h11c1.1045695 0 2 .8954305 2 2s-.8954305 2-2 2h-11c-1.1045695 0-2-.8954305-2-2s.8954305-2 2-2z" fill="#EFEDF8"/>
    <path d="M190 86h26c1.1045695 0 2 .8954305 2 2s-.8954305 2-2 2h-26c-1.1045695 0-2-.8954305-2-2s.8954305-2 2-2z" fill="#C3B8E3"/>
    <path d="M237 86h11c1.1045695 0 2 .8954305 2 2s-.8954305 2-2 2h-11c-1.1045695 0-2-.8954305-2-2s.8954305-2 2-2z" fill="#6B4FBB"/>
    <path d="M170 98h3c1.1045695 0 2 .8954305 2 2s-.8954305 2-2 2h-3c-1.1045695 0-2-.8954305-2-2s.8954305-2 2-2z" fill="#FEE1D3"/>
    <path d="M182 98h3c1.1045695 0 2 .8954305 2 2s-.8954305 2-2 2h-3c-1.1045695 0-2-.8954305-2-2s.8954305-2 2-2z" fill="#EEE"/>
    <path d="M190 110h3c1.1045695 0 2 .8954305 2 2s-.8954305 2-2 2h-3c-1.1045695 0-2-.8954305-2-2s.8954305-2 2-2z" fill="#6B4FBB"/>
    <path d="M170 122h3c1.1045695 0 2 .8954305 2 2s-.8954305 2-2 2h-3c-1.1045695 0-2-.8954305-2-2s.8954305-2 2-2z" fill="#FEE1D3"/>
    <path d="M194 98h3c1.1045695 0 2 .8954305 2 2s-.8954305 2-2 2h-3c-1.1045695 0-2-.8954305-2-2s.8954305-2 2-2z" fill="#FC6D26"/>
    <path d="M226 98h3c1.1045695 0 2 .8954305 2 2s-.8954305 2-2 2h-3c-1.1045695 0-2-.8954305-2-2s.8954305-2 2-2z" fill="#C3B8E3"/>
    <path d="M206 98h11c1.1045695 0 2 .8954305 2 2s-.8954305 2-2 2h-11c-1.1045695 0-2-.8954305-2-2s.8954305-2 2-2zM238 98h11c1.1045695 0 2 .8954305 2 2s-.8954305 2-2 2h-11c-1.1045695 0-2-.8954305-2-2s.8954305-2 2-2z" fill="#EEE"/>
    <g>
      <path d="M225 142h3c1.1045695 0 2 .8954305 2 2s-.8954305 2-2 2h-3c-1.1045695 0-2-.8954305-2-2s.8954305-2 2-2z" fill="#E1DBF1"/>
      <path d="M225 178h3c1.1045695 0 2 .8954305 2 2s-.8954305 2-2 2h-3c-1.1045695 0-2-.8954305-2-2s.8954305-2 2-2z" fill="#FC6D26"/>
      <path d="M257 142h3c1.1045695 0 2 .8954305 2 2s-.8954305 2-2 2h-3c-1.1045695 0-2-.8954305-2-2s.8954305-2 2-2z" fill="#FEE1D3"/>
      <path d="M170 142h11c1.1045695 0 2 .8954305 2 2s-.8954305 2-2 2h-11c-1.1045695 0-2-.8954305-2-2s.8954305-2 2-2zM170 178h11c1.1045695 0 2 .8954305 2 2s-.8954305 2-2 2h-11c-1.1045695 0-2-.8954305-2-2s.8954305-2 2-2z" fill="#EFEDF8"/>
      <path d="M202 166h3c1.1045695 0 2 .8954305 2 2s-.8954305 2-2 2h-3c-1.1045695 0-2-.8954305-2-2s.8954305-2 2-2z" fill="#6B4FBB"/>
      <path d="M214 166h3c1.1045695 0 2 .8954305 2 2s-.8954305 2-2 2h-3c-1.1045695 0-2-.8954305-2-2s.8954305-2 2-2z" fill="#EFEDF8"/>
      <path d="M226 166c1.1045695 0 2 .8954305 2 2s-.8954305 2-2 2-2-.8954305-2-2 .8954305-2 2-2z" fill="#FC6D26"/>
      <path d="M206 190c1.1045695 0 2 .8954305 2 2s-.8954305 2-2 2-2-.8954305-2-2 .8954305-2 2-2z" fill="#FEE1D3"/>
      <path d="M215 190c1.1045695 0 2 .8954305 2 2s-.8954305 2-2 2-2-.8954305-2-2 .8954305-2 2-2z" fill="#6B4FBB"/>
      <path d="M224 190c1.1045695 0 2 .8954305 2 2s-.8954305 2-2 2-2-.8954305-2-2 .8954305-2 2-2z" fill="#FEE1D3"/>
      <path d="M182 166h11c1.1045695 0 2 .8954305 2 2s-.8954305 2-2 2h-11c-1.1045695 0-2-.8954305-2-2s.8954305-2 2-2z" fill="#EFEDF8"/>
      <path d="M190 142h26c1.1045695 0 2 .8954305 2 2s-.8954305 2-2 2h-26c-1.1045695 0-2-.8954305-2-2s.8954305-2 2-2z" fill="#6B4FBB"/>
      <path d="M190 178h26c1.1045695 0 2 .8954305 2 2s-.8954305 2-2 2h-26c-1.1045695 0-2-.8954305-2-2s.8954305-2 2-2z" fill="#C3B8E3"/>
      <path d="M237 142h11c1.1045695 0 2 .8954305 2 2s-.8954305 2-2 2h-11c-1.1045695 0-2-.8954305-2-2s.8954305-2 2-2z" fill="#EEE"/>
      <path d="M237 178h11c1.1045695 0 2 .8954305 2 2s-.8954305 2-2 2h-11c-1.1045695 0-2-.8954305-2-2s.8954305-2 2-2z" fill="#E1DBF1"/>
      <path d="M170 154h3c1.1045695 0 2 .8954305 2 2s-.8954305 2-2 2h-3c-1.1045695 0-2-.8954305-2-2s.8954305-2 2-2zM170 190h3c1.1045695 0 2 .8954305 2 2s-.8954305 2-2 2h-3c-1.1045695 0-2-.8954305-2-2s.8954305-2 2-2z" fill="#FEE1D3"/>
      <path d="M182 154c1.1045695 0 2 .8954305 2 2s-.8954305 2-2 2-2-.8954305-2-2 .8954305-2 2-2z" fill="#6B4FBB"/>
      <path d="M182 190h3c1.1045695 0 2 .8954305 2 2s-.8954305 2-2 2h-3c-1.1045695 0-2-.8954305-2-2s.8954305-2 2-2z" fill="#EEE"/>
      <path d="M170 166h3c1.1045695 0 2 .8954305 2 2s-.8954305 2-2 2h-3c-1.1045695 0-2-.8954305-2-2s.8954305-2 2-2z" fill="#FDC4A8"/>
      <path d="M191 154h3c1.1045695 0 2 .8954305 2 2s-.8954305 2-2 2h-3c-1.1045695 0-2-.8954305-2-2s.8954305-2 2-2z" fill="#C3B8E3"/>
      <path d="M194 190h3c1.1045695 0 2 .8954305 2 2s-.8954305 2-2 2h-3c-1.1045695 0-2-.8954305-2-2s.8954305-2 2-2z" fill="#FC6D26"/>
      <path d="M223 154h3c1.1045695 0 2 .8954305 2 2s-.8954305 2-2 2h-3c-1.1045695 0-2-.8954305-2-2s.8954305-2 2-2z" fill="#C3B8E3"/>
      <path d="M203 154h11c1.1045695 0 2 .8954305 2 2s-.8954305 2-2 2h-11c-1.1045695 0-2-.8954305-2-2s.8954305-2 2-2zM235 154h11c1.1045695 0 2 .8954305 2 2s-.8954305 2-2 2h-11c-1.1045695 0-2-.8954305-2-2s.8954305-2 2-2z" fill="#EEE"/>
    </g>
  </g>
</svg>
