<svg width="430" height="202" viewBox="0 0 430 202" xmlns="http://www.w3.org/2000/svg"><title>empty_operations-dashboard</title><g fill="none" fill-rule="evenodd"><path d="M154 20h166c5.523 0 10 4.477 10 10v59c0 5.523-4.477 10-10 10H154c-5.523 0-10-4.477-10-10V30c0-5.523 4.477-10 10-10z" fill="#F9F9F9"/><path d="M148 14h166c5.523 0 10 4.477 10 10v59c0 5.523-4.477 10-10 10H148c-5.523 0-10-4.477-10-10V24c0-5.523 4.477-10 10-10z" fill="#FFF"/><path d="M148 16a2 2 0 1 1 0-4h1a2 2 0 1 1 0 4h-1zm2 0a2 2 0 1 1 0-4h1a2 2 0 1 1 0 4h-1zm2 0a2 2 0 1 1 0-4h1a2 2 0 1 1 0 4h-1zm2 0a2 2 0 1 1 0-4h1a2 2 0 1 1 0 4h-1zm2 0a2 2 0 1 1 0-4h1a2 2 0 1 1 0 4h-1zm2 0a2 2 0 1 1 0-4h1a2 2 0 1 1 0 4h-1zm2 0a2 2 0 1 1 0-4h1a2 2 0 1 1 0 4h-1zm2 0a2 2 0 1 1 0-4h1a2 2 0 1 1 0 4h-1zm2 0a2 2 0 1 1 0-4h1a2 2 0 1 1 0 4h-1zm2 0a2 2 0 1 1 0-4h1a2 2 0 1 1 0 4h-1zm2 0a2 2 0 1 1 0-4h1a2 2 0 1 1 0 4h-1zm2 0a2 2 0 1 1 0-4h1a2 2 0 1 1 0 4h-1zm2 0a2 2 0 1 1 0-4h1a2 2 0 1 1 0 4h-1zm2 0a2 2 0 1 1 0-4h1a2 2 0 1 1 0 4h-1zm2 0a2 2 0 1 1 0-4h1a2 2 0 1 1 0 4h-1zm2 0a2 2 0 1 1 0-4h1a2 2 0 1 1 0 4h-1zm2 0a2 2 0 1 1 0-4h1a2 2 0 1 1 0 4h-1zm2 0a2 2 0 1 1 0-4h1a2 2 0 1 1 0 4h-1zm2 0a2 2 0 1 1 0-4h1a2 2 0 1 1 0 4h-1zm2 0a2 2 0 1 1 0-4h1a2 2 0 1 1 0 4h-1zm2 0a2 2 0 1 1 0-4h1a2 2 0 1 1 0 4h-1zm2 0a2 2 0 1 1 0-4h1a2 2 0 1 1 0 4h-1zm2 0a2 2 0 1 1 0-4h1a2 2 0 1 1 0 4h-1zm2 0a2 2 0 1 1 0-4h1a2 2 0 1 1 0 4h-1zm2 0a2 2 0 1 1 0-4h1a2 2 0 1 1 0 4h-1zm2 0a2 2 0 1 1 0-4h1a2 2 0 1 1 0 4h-1zm2 0a2 2 0 1 1 0-4h1a2 2 0 1 1 0 4h-1zm2 0a2 2 0 1 1 0-4h1a2 2 0 1 1 0 4h-1zm2 0a2 2 0 1 1 0-4h1a2 2 0 1 1 0 4h-1zm2 0a2 2 0 1 1 0-4h1a2 2 0 1 1 0 4h-1zm2 0a2 2 0 1 1 0-4h1a2 2 0 1 1 0 4h-1zm2 0a2 2 0 1 1 0-4h1a2 2 0 1 1 0 4h-1zm2 0a2 2 0 1 1 0-4h1a2 2 0 1 1 0 4h-1zm2 0a2 2 0 1 1 0-4h1a2 2 0 1 1 0 4h-1zm2 0a2 2 0 1 1 0-4h1a2 2 0 1 1 0 4h-1zm2 0a2 2 0 1 1 0-4h1a2 2 0 1 1 0 4h-1zm2 0a2 2 0 1 1 0-4h1a2 2 0 1 1 0 4h-1zm2 0a2 2 0 1 1 0-4h1a2 2 0 1 1 0 4h-1zm2 0a2 2 0 1 1 0-4h1a2 2 0 1 1 0 4h-1zm2 0a2 2 0 1 1 0-4h1a2 2 0 1 1 0 4h-1zm2 0a2 2 0 1 1 0-4h1a2 2 0 1 1 0 4h-1zm2 0a2 2 0 1 1 0-4h1a2 2 0 1 1 0 4h-1zm2 0a2 2 0 1 1 0-4h1a2 2 0 1 1 0 4h-1zm2 0a2 2 0 1 1 0-4h1a2 2 0 1 1 0 4h-1zm2 0a2 2 0 1 1 0-4h1a2 2 0 0 1 0 4h-1zm2 0a2 2 0 1 1 0-4h1a2 2 0 0 1 0 4h-1zm2 0a2 2 0 0 1 0-4h1a2 2 0 0 1 0 4h-1zm2 0a2 2 0 0 1 0-4h1a2 2 0 0 1 0 4h-1zm2 0a2 2 0 0 1 0-4h1a2 2 0 0 1 0 4h-1zm2 0a2 2 0 0 1 0-4h1a2 2 0 0 1 0 4h-1zm2 0a2 2 0 0 1 0-4h1a2 2 0 0 1 0 4h-1zm2 0a2 2 0 0 1 0-4h1a2 2 0 0 1 0 4h-1zm2 0a2 2 0 0 1 0-4h1a2 2 0 0 1 0 4h-1zm2 0a2 2 0 0 1 0-4h1a2 2 0 0 1 0 4h-1zm2 0a2 2 0 0 1 0-4h1a2 2 0 0 1 0 4h-1zm2 0a2 2 0 0 1 0-4h1a2 2 0 0 1 0 4h-1zm2 0a2 2 0 0 1 0-4h1a2 2 0 0 1 0 4h-1zm2 0a2 2 0 0 1 0-4h1a2 2 0 0 1 0 4h-1zm2 0a2 2 0 0 1 0-4h1a2 2 0 0 1 0 4h-1zm2 0a2 2 0 0 1 0-4h1a2 2 0 0 1 0 4h-1zm2 0a2 2 0 0 1 0-4h1a2 2 0 0 1 0 4h-1zm2 0a2 2 0 0 1 0-4h1a2 2 0 0 1 0 4h-1zm2 0a2 2 0 0 1 0-4h1a2 2 0 0 1 0 4h-1zm2 0a2 2 0 0 1 0-4h1a2 2 0 0 1 0 4h-1zm2 0a2 2 0 0 1 0-4h1a2 2 0 0 1 0 4h-1zm2 0a2 2 0 0 1 0-4h1a2 2 0 0 1 0 4h-1zm2 0a2 2 0 0 1 0-4h1a2 2 0 0 1 0 4h-1zm2 0a2 2 0 0 1 0-4h1a2 2 0 0 1 0 4h-1zm2 0a2 2 0 0 1 0-4h1a2 2 0 0 1 0 4h-1zm2 0a2 2 0 0 1 0-4h1a2 2 0 0 1 0 4h-1zm2 0a2 2 0 0 1 0-4h1a2 2 0 0 1 0 4h-1zm2 0a2 2 0 0 1 0-4h1a2 2 0 0 1 0 4h-1zm2 0a2 2 0 0 1 0-4h1a2 2 0 0 1 0 4h-1zm2 0a2 2 0 0 1 0-4h1a2 2 0 0 1 0 4h-1zm2 0a2 2 0 0 1 0-4h1a2 2 0 0 1 0 4h-1zm2 0a2 2 0 0 1 0-4h1a2 2 0 0 1 0 4h-1zm2 0a2 2 0 0 1 0-4h1a2 2 0 0 1 0 4h-1zm2 0a2 2 0 0 1 0-4h1a2 2 0 0 1 0 4h-1zm2 0a2 2 0 0 1 0-4h1a2 2 0 0 1 0 4h-1zm2 0a2 2 0 0 1 0-4h1a2 2 0 0 1 0 4h-1zm2 0a2 2 0 0 1 0-4h1a2 2 0 0 1 0 4h-1zm2 0a2 2 0 0 1 0-4h1a2 2 0 0 1 0 4h-1zm2 0a2 2 0 0 1 0-4h1a2 2 0 0 1 0 4h-1zm2 0a2 2 0 0 1 0-4c.4 0 .8.02 1.196.059a2 2 0 0 1-.395 3.98A8.12 8.12 0 0 0 314 16zm1.594.158a2 2 0 1 1 .792-3.92c.394.08.782.178 1.164.296a2 2 0 0 1-1.182 3.822 7.928 7.928 0 0 0-.774-.198zm1.541.48a2 2 0 1 1 1.57-3.68c.368.157.729.333 1.08.526a2 2 0 1 1-1.931 3.503 7.958 7.958 0 0 0-.719-.35zm1.443.8a2 2 0 0 1 2.292-3.278c.328.23.644.475.947.736a2 2 0 1 1-2.606 3.033 8.043 8.043 0 0 0-.633-.49zm1.19 1.02a2 2 0 0 1 2.884-2.773c.278.288.54.59.787.905a2 2 0 0 1-3.145 2.472 8.056 8.056 0 0 0-.525-.605zm1.011 1.292a2 2 0 0 1 3.387-2.128c.213.339.409.688.587 1.047a2 2 0 0 1-3.582 1.779 7.983 7.983 0 0 0-.392-.698zm.712 1.433a2 2 0 0 1 3.743-1.409c.141.375.263.757.366 1.145a2 2 0 1 1-3.866 1.025 7.922 7.922 0 0 0-.243-.76zm.403 1.51a2 2 0 1 1 3.947-.646c.065.393.11.79.135 1.191a2 2 0 1 1-3.992.251 8.024 8.024 0 0 0-.09-.795zm.106 1.698a2 2 0 0 1 4 0v1a2 2 0 0 1-4 0v-1zm0 2a2 2 0 0 1 4 0v1a2 2 0 0 1-4 0v-1zm0 2a2 2 0 0 1 4 0v1a2 2 0 0 1-4 0v-1zm0 2a2 2 0 0 1 4 0v1a2 2 0 0 1-4 0v-1zm0 2a2 2 0 0 1 4 0v1a2 2 0 0 1-4 0v-1zm0 2a2 2 0 0 1 4 0v1a2 2 0 0 1-4 0v-1zm0 2a2 2 0 0 1 4 0v1a2 2 0 0 1-4 0v-1zm0 2a2 2 0 0 1 4 0v1a2 2 0 0 1-4 0v-1zm0 2a2 2 0 0 1 4 0v1a2 2 0 0 1-4 0v-1zm0 2a2 2 0 0 1 4 0v1a2 2 0 0 1-4 0v-1zm0 2a2 2 0 0 1 4 0v1a2 2 0 0 1-4 0v-1zm0 2a2 2 0 0 1 4 0v1a2 2 0 0 1-4 0v-1zm0 2a2 2 0 0 1 4 0v1a2 2 0 0 1-4 0v-1zm0 2a2 2 0 0 1 4 0v1a2 2 0 0 1-4 0v-1zm0 2a2 2 0 0 1 4 0v1a2 2 0 0 1-4 0v-1zm0 2a2 2 0 0 1 4 0v1a2 2 0 0 1-4 0v-1zm0 2a2 2 0 0 1 4 0v1a2 2 0 0 1-4 0v-1zm0 2a2 2 0 0 1 4 0v1a2 2 0 0 1-4 0v-1zm0 2a2 2 0 0 1 4 0v1a2 2 0 0 1-4 0v-1zm0 2a2 2 0 0 1 4 0v1a2 2 0 0 1-4 0v-1zm0 2a2 2 0 0 1 4 0v1a2 2 0 0 1-4 0v-1zm0 2a2 2 0 0 1 4 0v1a2 2 0 0 1-4 0v-1zm0 2a2 2 0 0 1 4 0v1a2 2 0 0 1-4 0v-1zm0 2a2 2 0 0 1 4 0v1a2 2 0 0 1-4 0v-1zm0 2a2 2 0 0 1 4 0v1a2 2 0 0 1-4 0v-1zm0 2a2 2 0 0 1 4 0v1a2 2 0 0 1-4 0v-1zm0 2a2 2 0 0 1 4 0v1a2 2 0 0 1-4 0v-1zm0 2a2 2 0 0 1 4 0v1a2 2 0 0 1-4 0v-1zm0 2a2 2 0 0 1 4 0v1a2 2 0 0 1-4 0v-1zm0 2a2 2 0 0 1 4 0V83c0 .156-.003.312-.009.468a2 2 0 0 1-3.997-.154c.004-.104.006-.209.006-.314v-.61zm-.076 1.721a2 2 0 1 1 3.962.55c-.056.398-.13.792-.225 1.18a2 2 0 0 1-3.887-.944c.063-.259.113-.52.15-.786zm-.381 1.562a2 2 0 0 1 3.77 1.337c-.134.378-.287.748-.458 1.11a2 2 0 1 1-3.617-1.708c.114-.241.216-.488.305-.739zm-.703 1.478a2 2 0 1 1 3.417 2.08 12.02 12.02 0 0 1-.674.992 2 2 0 0 1-3.193-2.41 8.02 8.02 0 0 0 .45-.662zm-.95 1.261a2 2 0 0 1 2.945 2.708c-.27.294-.556.575-.854.84a2 2 0 1 1-2.661-2.986c.199-.177.39-.365.57-.562zm-1.223 1.086a2 2 0 0 1 2.336 3.246c-.324.234-.66.451-1.007.652a2 2 0 0 1-2.001-3.464c.23-.133.455-.278.672-.434zm-1.435.822a2 2 0 1 1 1.617 3.658c-.366.162-.74.306-1.122.43a2 2 0 0 1-1.241-3.802 7.93 7.93 0 0 0 .746-.286zm-1.44.478a2 2 0 1 1 .89 3.9c-.389.089-.783.158-1.182.208a2 2 0 0 1-.496-3.97c.266-.032.528-.079.788-.138zm-1.613.2a2 2 0 1 1 .087 3.998c-.087.002-.174.003-.262.003h-.786a2 2 0 0 1 0-4h.785c.059 0 .117 0 .176-.002zm-1.96.001a2 2 0 1 1 0 4h-1a2 2 0 0 1 0-4h1zm-2 0a2 2 0 1 1 0 4h-1a2 2 0 0 1 0-4h1zm-2 0a2 2 0 1 1 0 4h-1a2 2 0 0 1 0-4h1zm-2 0a2 2 0 1 1 0 4h-1a2 2 0 0 1 0-4h1zm-2 0a2 2 0 1 1 0 4h-1a2 2 0 0 1 0-4h1zm-2 0a2 2 0 1 1 0 4h-1a2 2 0 0 1 0-4h1zm-2 0a2 2 0 1 1 0 4h-1a2 2 0 0 1 0-4h1zm-2 0a2 2 0 1 1 0 4h-1a2 2 0 0 1 0-4h1zm-2 0a2 2 0 1 1 0 4h-1a2 2 0 0 1 0-4h1zm-2 0a2 2 0 1 1 0 4h-1a2 2 0 0 1 0-4h1zm-2 0a2 2 0 1 1 0 4h-1a2 2 0 0 1 0-4h1zm-2 0a2 2 0 1 1 0 4h-1a2 2 0 0 1 0-4h1zm-2 0a2 2 0 1 1 0 4h-1a2 2 0 0 1 0-4h1zm-2 0a2 2 0 1 1 0 4h-1a2 2 0 0 1 0-4h1zm-2 0a2 2 0 1 1 0 4h-1a2 2 0 0 1 0-4h1zm-2 0a2 2 0 1 1 0 4h-1a2 2 0 0 1 0-4h1zm-2 0a2 2 0 1 1 0 4h-1a2 2 0 0 1 0-4h1zm-2 0a2 2 0 1 1 0 4h-1a2 2 0 0 1 0-4h1zm-2 0a2 2 0 1 1 0 4h-1a2 2 0 0 1 0-4h1zm-2 0a2 2 0 1 1 0 4h-1a2 2 0 0 1 0-4h1zm-2 0a2 2 0 1 1 0 4h-1a2 2 0 0 1 0-4h1zm-2 0a2 2 0 1 1 0 4h-1a2 2 0 0 1 0-4h1zm-2 0a2 2 0 1 1 0 4h-1a2 2 0 0 1 0-4h1zm-2 0a2 2 0 1 1 0 4h-1a2 2 0 0 1 0-4h1zm-2 0a2 2 0 1 1 0 4h-1a2 2 0 0 1 0-4h1zm-2 0a2 2 0 1 1 0 4h-1a2 2 0 0 1 0-4h1zm-2 0a2 2 0 1 1 0 4h-1a2 2 0 0 1 0-4h1zm-2 0a2 2 0 1 1 0 4h-1a2 2 0 0 1 0-4h1zm-2 0a2 2 0 1 1 0 4h-1a2 2 0 0 1 0-4h1zm-2 0a2 2 0 1 1 0 4h-1a2 2 0 0 1 0-4h1zm-2 0a2 2 0 1 1 0 4h-1a2 2 0 0 1 0-4h1zm-2 0a2 2 0 1 1 0 4h-1a2 2 0 0 1 0-4h1zm-2 0a2 2 0 1 1 0 4h-1a2 2 0 0 1 0-4h1zm-2 0a2 2 0 1 1 0 4h-1a2 2 0 0 1 0-4h1zm-2 0a2 2 0 1 1 0 4h-1a2 2 0 0 1 0-4h1zm-2 0a2 2 0 1 1 0 4h-1a2 2 0 0 1 0-4h1zm-2 0a2 2 0 1 1 0 4h-1a2 2 0 0 1 0-4h1zm-2 0a2 2 0 1 1 0 4h-1a2 2 0 1 1 0-4h1zm-2 0a2 2 0 0 1 0 4h-1a2 2 0 1 1 0-4h1zm-2 0a2 2 0 1 1 0 4h-1a2 2 0 1 1 0-4h1zm-2 0a2 2 0 1 1 0 4h-1a2 2 0 1 1 0-4h1zm-2 0a2 2 0 1 1 0 4h-1a2 2 0 1 1 0-4h1zm-2 0a2 2 0 1 1 0 4h-1a2 2 0 1 1 0-4h1zm-2 0a2 2 0 1 1 0 4h-1a2 2 0 1 1 0-4h1zm-2 0a2 2 0 1 1 0 4h-1a2 2 0 1 1 0-4h1zm-2 0a2 2 0 1 1 0 4h-1a2 2 0 1 1 0-4h1zm-2 0a2 2 0 1 1 0 4h-1a2 2 0 1 1 0-4h1zm-2 0a2 2 0 1 1 0 4h-1a2 2 0 1 1 0-4h1zm-2 0a2 2 0 1 1 0 4h-1a2 2 0 1 1 0-4h1zm-2 0a2 2 0 1 1 0 4h-1a2 2 0 1 1 0-4h1zm-2 0a2 2 0 1 1 0 4h-1a2 2 0 1 1 0-4h1zm-2 0a2 2 0 1 1 0 4h-1a2 2 0 1 1 0-4h1zm-2 0a2 2 0 1 1 0 4h-1a2 2 0 1 1 0-4h1zm-2 0a2 2 0 1 1 0 4h-1a2 2 0 1 1 0-4h1zm-2 0a2 2 0 1 1 0 4h-1a2 2 0 1 1 0-4h1zm-2 0a2 2 0 1 1 0 4h-1a2 2 0 1 1 0-4h1zm-2 0a2 2 0 1 1 0 4h-1a2 2 0 1 1 0-4h1zm-2 0a2 2 0 1 1 0 4h-1a2 2 0 1 1 0-4h1zm-2 0a2 2 0 1 1 0 4h-1a2 2 0 1 1 0-4h1zm-2 0a2 2 0 1 1 0 4h-1a2 2 0 1 1 0-4h1zm-2 0a2 2 0 1 1 0 4h-1a2 2 0 1 1 0-4h1zm-2 0a2 2 0 1 1 0 4h-1a2 2 0 1 1 0-4h1zm-2 0a2 2 0 1 1 0 4h-1a2 2 0 1 1 0-4h1zm-2 0a2 2 0 1 1 0 4h-1a2 2 0 1 1 0-4h1zm-2 0a2 2 0 1 1 0 4h-1a2 2 0 1 1 0-4h1zm-2 0a2 2 0 1 1 0 4h-1a2 2 0 1 1 0-4h1zm-2 0a2 2 0 1 1 0 4h-1a2 2 0 1 1 0-4h1zm-2 0a2 2 0 1 1 0 4h-1a2 2 0 1 1 0-4h1zm-2 0a2 2 0 1 1 0 4h-1a2 2 0 1 1 0-4h1zm-2 0a2 2 0 1 1 0 4h-1a2 2 0 1 1 0-4h1zm-2 0a2 2 0 1 1 0 4h-1a2 2 0 1 1 0-4h1zm-2 0a2 2 0 1 1 0 4h-1a2 2 0 1 1 0-4h1zm-2 0a2 2 0 1 1 0 4h-1a2 2 0 1 1 0-4h1zm-2 0a2 2 0 1 1 0 4h-1a2 2 0 1 1 0-4h1zm-2 0a2 2 0 1 1 0 4h-1a2 2 0 1 1 0-4h1zm-2 0a2 2 0 1 1 0 4h-1a2 2 0 1 1 0-4h1zm-2 0a2 2 0 1 1 0 4h-1a2 2 0 1 1 0-4h1zm-2 0a2 2 0 1 1 0 4h-1a2 2 0 1 1 0-4h1zm-2 0a2 2 0 1 1 0 4h-1a2 2 0 1 1 0-4h1zm-2 0a2 2 0 1 1 0 4h-1a2 2 0 1 1 0-4h1zm-2 0a2 2 0 1 1 0 4h-1a2 2 0 1 1 0-4h1zm-2 0a2 2 0 1 1 0 4h-1a2 2 0 1 1 0-4h1zm-2 0a2 2 0 1 1 0 4H148c-.313 0-.625-.012-.935-.036a2 2 0 1 1 .308-3.988c.208.016.417.024.627.024h.218zm-1.64-.126a2 2 0 1 1-.706 3.938c-.395-.071-.786-.162-1.17-.271a2 2 0 0 1 1.097-3.847c.256.073.515.133.778.18zm-1.55-.443a2 2 0 1 1-1.486 3.713 11.95 11.95 0 0 1-1.091-.501 2 2 0 0 1 1.851-3.546c.236.123.479.235.726.334zm-1.456-.766a2 2 0 1 1-2.217 3.33c-.333-.222-.654-.46-.964-.714a2 2 0 0 1 2.538-3.093c.206.17.421.329.643.477zm-1.217-.995a2 2 0 0 1-2.822 2.835 12.06 12.06 0 0 1-.806-.887 2 2 0 0 1 3.09-2.54c.169.206.349.403.538.592zm-1.038-1.268a2 2 0 1 1-3.337 2.204c-.22-.334-.425-.679-.61-1.033a2 2 0 0 1 3.54-1.86c.125.236.26.466.407.689zm-.765-1.471a2 2 0 1 1-3.721 1.466 11.922 11.922 0 0 1-.384-1.139 2 2 0 0 1 3.85-1.084c.073.257.158.51.255.757zm-.417-1.45a2 2 0 1 1-3.931.735 12 12 0 0 1-.162-1.19 2 2 0 0 1 3.986-.338 8 8 0 0 0 .107.793zM140 82.827a2 2 0 1 1-4 0v-1a2 2 0 1 1 4 0v1zm0-2a2 2 0 1 1-4 0v-1a2 2 0 1 1 4 0v1zm0-2a2 2 0 1 1-4 0v-1a2 2 0 1 1 4 0v1zm0-2a2 2 0 1 1-4 0v-1a2 2 0 1 1 4 0v1zm0-2a2 2 0 1 1-4 0v-1a2 2 0 1 1 4 0v1zm0-2a2 2 0 1 1-4 0v-1a2 2 0 1 1 4 0v1zm0-2a2 2 0 1 1-4 0v-1a2 2 0 1 1 4 0v1zm0-2a2 2 0 1 1-4 0v-1a2 2 0 1 1 4 0v1zm0-2a2 2 0 1 1-4 0v-1a2 2 0 1 1 4 0v1zm0-2a2 2 0 1 1-4 0v-1a2 2 0 1 1 4 0v1zm0-2a2 2 0 1 1-4 0v-1a2 2 0 1 1 4 0v1zm0-2a2 2 0 1 1-4 0v-1a2 2 0 1 1 4 0v1zm0-2a2 2 0 1 1-4 0v-1a2 2 0 1 1 4 0v1zm0-2a2 2 0 1 1-4 0v-1a2 2 0 1 1 4 0v1zm0-2a2 2 0 1 1-4 0v-1a2 2 0 1 1 4 0v1zm0-2a2 2 0 1 1-4 0v-1a2 2 0 1 1 4 0v1zm0-2a2 2 0 1 1-4 0v-1a2 2 0 1 1 4 0v1zm0-2a2 2 0 1 1-4 0v-1a2 2 0 1 1 4 0v1zm0-2a2 2 0 1 1-4 0v-1a2 2 0 1 1 4 0v1zm0-2a2 2 0 1 1-4 0v-1a2 2 0 1 1 4 0v1zm0-2a2 2 0 1 1-4 0v-1a2 2 0 1 1 4 0v1zm0-2a2 2 0 1 1-4 0v-1a2 2 0 1 1 4 0v1zm0-2a2 2 0 1 1-4 0v-1a2 2 0 1 1 4 0v1zm0-2a2 2 0 1 1-4 0v-1a2 2 0 1 1 4 0v1zm0-2a2 2 0 1 1-4 0v-1a2 2 0 1 1 4 0v1zm0-2a2 2 0 1 1-4 0v-1a2 2 0 1 1 4 0v1zm0-2a2 2 0 1 1-4 0v-1a2 2 0 1 1 4 0v1zm0-2a2 2 0 1 1-4 0v-1a2 2 0 1 1 4 0v1zm0-2a2 2 0 1 1-4 0v-1a2 2 0 1 1 4 0v1zm0-2a2 2 0 1 1-4 0V24l.002-.206a2 2 0 1 1 4 .068L140 24v.827zm.054-1.766a2 2 0 0 1-3.973-.463c.047-.399.113-.794.199-1.184a2 2 0 1 1 3.906.86 7.97 7.97 0 0 0-.132.787zm.346-1.568a2 2 0 1 1-3.799-1.252c.126-.381.27-.755.433-1.12a2 2 0 0 1 3.654 1.627 7.93 7.93 0 0 0-.288.745zm.668-1.489a2 2 0 0 1-3.464-2.002c.2-.346.418-.682.652-1.007a2 2 0 1 1 3.246 2.337 8.011 8.011 0 0 0-.434.672zm.922-1.285a2 2 0 0 1-3.003-2.642c.264-.3.543-.587.836-.86a2 2 0 0 1 2.726 2.928 8.062 8.062 0 0 0-.559.574zm1.198-1.111a2 2 0 0 1-2.408-3.194c.32-.24.65-.465.992-.673a2 2 0 0 1 2.079 3.417 8.02 8.02 0 0 0-.663.45zm1.415-.854a2 2 0 1 1-1.701-3.62c.362-.17.733-.322 1.111-.455a2 2 0 1 1 1.329 3.773c-.252.088-.498.19-.74.302zm1.434-.512a2 2 0 0 1-.978-3.879c.388-.097.78-.176 1.178-.234a2 2 0 0 1 .584 3.957 7.95 7.95 0 0 0-.784.156zm1.605-.234a2 2 0 0 1-.175-3.996c.174-.008.348-.012.524-.012a2 2 0 1 1 .01 4 8.26 8.26 0 0 0-.359.008z" fill="#EEE" fill-rule="nonzero"/><path d="M168 77c5.523 0 10-4.477 10-10s-4.477-10-10-10-10 4.477-10 10 4.477 10 10 10zm0 4c-7.732 0-14-6.268-14-14s6.268-14 14-14 14 6.268 14 14-6.268 14-14 14z" fill="#FEE1D3" fill-rule="nonzero"/><path d="M166.657 66.778l3.535-3.535a2 2 0 1 1 2.829 2.828l-4.95 4.95a2 2 0 0 1-2.828 0l-2.829-2.829a2 2 0 0 1 2.829-2.828l1.414 1.414z" fill="#FC6D26"/><path d="M198 59h50a2 2 0 1 1 0 4h-50a2 2 0 1 1 0-4zm0 12h80a2 2 0 0 1 0 4h-80a2 2 0 1 1 0-4z" fill="#FEF0E8"/><path d="M156 42a2 2 0 1 1 0-4h8a2 2 0 1 1 0 4h-8zm18 0a2 2 0 1 1 0-4h8a2 2 0 1 1 0 4h-8zm18 0a2 2 0 1 1 0-4h8a2 2 0 1 1 0 4h-8zm18 0a2 2 0 1 1 0-4h8a2 2 0 1 1 0 4h-8zm18 0a2 2 0 1 1 0-4h8a2 2 0 1 1 0 4h-8zm18 0a2 2 0 0 1 0-4h8a2 2 0 0 1 0 4h-8zm18 0a2 2 0 0 1 0-4h8a2 2 0 0 1 0 4h-8zm18 0a2 2 0 0 1 0-4h8a2 2 0 0 1 0 4h-8zm18 0a2 2 0 0 1 0-4h8a2 2 0 0 1 0 4h-8z" fill="#EEE" fill-rule="nonzero"/><g><path d="M116 109h166c5.523 0 10 4.477 10 10v59c0 5.523-4.477 10-10 10H116c-5.523 0-10-4.477-10-10v-59c0-5.523 4.477-10 10-10z" fill="#F9F9F9"/><path d="M110 103h166c5.523 0 10 4.477 10 10v59c0 5.523-4.477 10-10 10H110c-5.523 0-10-4.477-10-10v-59c0-5.523 4.477-10 10-10z" fill="#FFF"/><path d="M110 105a2 2 0 1 1 0-4h1a2 2 0 1 1 0 4h-1zm2 0a2 2 0 1 1 0-4h1a2 2 0 1 1 0 4h-1zm2 0a2 2 0 1 1 0-4h1a2 2 0 1 1 0 4h-1zm2 0a2 2 0 1 1 0-4h1a2 2 0 1 1 0 4h-1zm2 0a2 2 0 1 1 0-4h1a2 2 0 1 1 0 4h-1zm2 0a2 2 0 1 1 0-4h1a2 2 0 1 1 0 4h-1zm2 0a2 2 0 1 1 0-4h1a2 2 0 1 1 0 4h-1zm2 0a2 2 0 1 1 0-4h1a2 2 0 1 1 0 4h-1zm2 0a2 2 0 1 1 0-4h1a2 2 0 1 1 0 4h-1zm2 0a2 2 0 1 1 0-4h1a2 2 0 1 1 0 4h-1zm2 0a2 2 0 1 1 0-4h1a2 2 0 1 1 0 4h-1zm2 0a2 2 0 1 1 0-4h1a2 2 0 1 1 0 4h-1zm2 0a2 2 0 1 1 0-4h1a2 2 0 1 1 0 4h-1zm2 0a2 2 0 1 1 0-4h1a2 2 0 1 1 0 4h-1zm2 0a2 2 0 1 1 0-4h1a2 2 0 1 1 0 4h-1zm2 0a2 2 0 1 1 0-4h1a2 2 0 1 1 0 4h-1zm2 0a2 2 0 1 1 0-4h1a2 2 0 1 1 0 4h-1zm2 0a2 2 0 1 1 0-4h1a2 2 0 1 1 0 4h-1zm2 0a2 2 0 1 1 0-4h1a2 2 0 1 1 0 4h-1zm2 0a2 2 0 1 1 0-4h1a2 2 0 1 1 0 4h-1zm2 0a2 2 0 1 1 0-4h1a2 2 0 1 1 0 4h-1zm2 0a2 2 0 1 1 0-4h1a2 2 0 1 1 0 4h-1zm2 0a2 2 0 1 1 0-4h1a2 2 0 1 1 0 4h-1zm2 0a2 2 0 1 1 0-4h1a2 2 0 1 1 0 4h-1zm2 0a2 2 0 1 1 0-4h1a2 2 0 1 1 0 4h-1zm2 0a2 2 0 1 1 0-4h1a2 2 0 1 1 0 4h-1zm2 0a2 2 0 1 1 0-4h1a2 2 0 1 1 0 4h-1zm2 0a2 2 0 1 1 0-4h1a2 2 0 1 1 0 4h-1zm2 0a2 2 0 1 1 0-4h1a2 2 0 1 1 0 4h-1zm2 0a2 2 0 1 1 0-4h1a2 2 0 1 1 0 4h-1zm2 0a2 2 0 1 1 0-4h1a2 2 0 1 1 0 4h-1zm2 0a2 2 0 1 1 0-4h1a2 2 0 1 1 0 4h-1zm2 0a2 2 0 1 1 0-4h1a2 2 0 1 1 0 4h-1zm2 0a2 2 0 1 1 0-4h1a2 2 0 1 1 0 4h-1zm2 0a2 2 0 1 1 0-4h1a2 2 0 1 1 0 4h-1zm2 0a2 2 0 1 1 0-4h1a2 2 0 1 1 0 4h-1zm2 0a2 2 0 1 1 0-4h1a2 2 0 1 1 0 4h-1zm2 0a2 2 0 1 1 0-4h1a2 2 0 1 1 0 4h-1zm2 0a2 2 0 1 1 0-4h1a2 2 0 1 1 0 4h-1zm2 0a2 2 0 1 1 0-4h1a2 2 0 1 1 0 4h-1zm2 0a2 2 0 1 1 0-4h1a2 2 0 1 1 0 4h-1zm2 0a2 2 0 1 1 0-4h1a2 2 0 1 1 0 4h-1zm2 0a2 2 0 1 1 0-4h1a2 2 0 1 1 0 4h-1zm2 0a2 2 0 1 1 0-4h1a2 2 0 1 1 0 4h-1zm2 0a2 2 0 1 1 0-4h1a2 2 0 0 1 0 4h-1zm2 0a2 2 0 1 1 0-4h1a2 2 0 0 1 0 4h-1zm2 0a2 2 0 0 1 0-4h1a2 2 0 0 1 0 4h-1zm2 0a2 2 0 0 1 0-4h1a2 2 0 0 1 0 4h-1zm2 0a2 2 0 0 1 0-4h1a2 2 0 0 1 0 4h-1zm2 0a2 2 0 0 1 0-4h1a2 2 0 0 1 0 4h-1zm2 0a2 2 0 0 1 0-4h1a2 2 0 0 1 0 4h-1zm2 0a2 2 0 0 1 0-4h1a2 2 0 0 1 0 4h-1zm2 0a2 2 0 0 1 0-4h1a2 2 0 0 1 0 4h-1zm2 0a2 2 0 0 1 0-4h1a2 2 0 0 1 0 4h-1zm2 0a2 2 0 0 1 0-4h1a2 2 0 0 1 0 4h-1zm2 0a2 2 0 0 1 0-4h1a2 2 0 0 1 0 4h-1zm2 0a2 2 0 0 1 0-4h1a2 2 0 0 1 0 4h-1zm2 0a2 2 0 0 1 0-4h1a2 2 0 0 1 0 4h-1zm2 0a2 2 0 0 1 0-4h1a2 2 0 0 1 0 4h-1zm2 0a2 2 0 0 1 0-4h1a2 2 0 0 1 0 4h-1zm2 0a2 2 0 0 1 0-4h1a2 2 0 0 1 0 4h-1zm2 0a2 2 0 0 1 0-4h1a2 2 0 0 1 0 4h-1zm2 0a2 2 0 0 1 0-4h1a2 2 0 0 1 0 4h-1zm2 0a2 2 0 0 1 0-4h1a2 2 0 0 1 0 4h-1zm2 0a2 2 0 0 1 0-4h1a2 2 0 0 1 0 4h-1zm2 0a2 2 0 0 1 0-4h1a2 2 0 0 1 0 4h-1zm2 0a2 2 0 0 1 0-4h1a2 2 0 0 1 0 4h-1zm2 0a2 2 0 0 1 0-4h1a2 2 0 0 1 0 4h-1zm2 0a2 2 0 0 1 0-4h1a2 2 0 0 1 0 4h-1zm2 0a2 2 0 0 1 0-4h1a2 2 0 0 1 0 4h-1zm2 0a2 2 0 0 1 0-4h1a2 2 0 0 1 0 4h-1zm2 0a2 2 0 0 1 0-4h1a2 2 0 0 1 0 4h-1zm2 0a2 2 0 0 1 0-4h1a2 2 0 0 1 0 4h-1zm2 0a2 2 0 0 1 0-4h1a2 2 0 0 1 0 4h-1zm2 0a2 2 0 0 1 0-4h1a2 2 0 0 1 0 4h-1zm2 0a2 2 0 0 1 0-4h1a2 2 0 0 1 0 4h-1zm2 0a2 2 0 0 1 0-4h1a2 2 0 0 1 0 4h-1zm2 0a2 2 0 0 1 0-4h1a2 2 0 0 1 0 4h-1zm2 0a2 2 0 0 1 0-4h1a2 2 0 0 1 0 4h-1zm2 0a2 2 0 0 1 0-4h1a2 2 0 0 1 0 4h-1zm2 0a2 2 0 0 1 0-4h1a2 2 0 0 1 0 4h-1zm2 0a2 2 0 0 1 0-4h1a2 2 0 0 1 0 4h-1zm2 0a2 2 0 0 1 0-4h1a2 2 0 0 1 0 4h-1zm2 0a2 2 0 0 1 0-4c.4 0 .8.02 1.196.059a2 2 0 0 1-.395 3.98A8.12 8.12 0 0 0 276 105zm1.594.158a2 2 0 1 1 .792-3.92c.394.08.782.178 1.164.296a2 2 0 0 1-1.182 3.822 7.928 7.928 0 0 0-.774-.198zm1.541.48a2 2 0 1 1 1.57-3.68c.368.157.729.333 1.08.526a2 2 0 1 1-1.931 3.503 7.958 7.958 0 0 0-.719-.35zm1.443.8a2 2 0 0 1 2.292-3.278c.328.23.644.475.947.736a2 2 0 1 1-2.606 3.033 8.043 8.043 0 0 0-.633-.49zm1.19 1.02a2 2 0 0 1 2.884-2.773c.278.288.54.59.787.905a2 2 0 0 1-3.145 2.472 8.056 8.056 0 0 0-.525-.605zm1.011 1.292a2 2 0 0 1 3.387-2.128c.213.339.409.688.587 1.047a2 2 0 0 1-3.582 1.779 7.983 7.983 0 0 0-.392-.698zm.712 1.433a2 2 0 0 1 3.743-1.409c.141.375.263.757.366 1.145a2 2 0 1 1-3.866 1.025 7.922 7.922 0 0 0-.243-.76zm.403 1.51a2 2 0 1 1 3.947-.646c.065.393.11.79.135 1.191a2 2 0 1 1-3.992.251 8.024 8.024 0 0 0-.09-.795zm.106 1.698a2 2 0 0 1 4 0v1a2 2 0 0 1-4 0v-1zm0 2a2 2 0 0 1 4 0v1a2 2 0 0 1-4 0v-1zm0 2a2 2 0 0 1 4 0v1a2 2 0 0 1-4 0v-1zm0 2a2 2 0 0 1 4 0v1a2 2 0 0 1-4 0v-1zm0 2a2 2 0 0 1 4 0v1a2 2 0 0 1-4 0v-1zm0 2a2 2 0 0 1 4 0v1a2 2 0 0 1-4 0v-1zm0 2a2 2 0 0 1 4 0v1a2 2 0 0 1-4 0v-1zm0 2a2 2 0 0 1 4 0v1a2 2 0 0 1-4 0v-1zm0 2a2 2 0 0 1 4 0v1a2 2 0 0 1-4 0v-1zm0 2a2 2 0 0 1 4 0v1a2 2 0 0 1-4 0v-1zm0 2a2 2 0 0 1 4 0v1a2 2 0 0 1-4 0v-1zm0 2a2 2 0 0 1 4 0v1a2 2 0 0 1-4 0v-1zm0 2a2 2 0 0 1 4 0v1a2 2 0 0 1-4 0v-1zm0 2a2 2 0 0 1 4 0v1a2 2 0 0 1-4 0v-1zm0 2a2 2 0 0 1 4 0v1a2 2 0 0 1-4 0v-1zm0 2a2 2 0 0 1 4 0v1a2 2 0 0 1-4 0v-1zm0 2a2 2 0 0 1 4 0v1a2 2 0 0 1-4 0v-1zm0 2a2 2 0 0 1 4 0v1a2 2 0 0 1-4 0v-1zm0 2a2 2 0 0 1 4 0v1a2 2 0 0 1-4 0v-1zm0 2a2 2 0 0 1 4 0v1a2 2 0 0 1-4 0v-1zm0 2a2 2 0 0 1 4 0v1a2 2 0 0 1-4 0v-1zm0 2a2 2 0 0 1 4 0v1a2 2 0 0 1-4 0v-1zm0 2a2 2 0 0 1 4 0v1a2 2 0 0 1-4 0v-1zm0 2a2 2 0 0 1 4 0v1a2 2 0 0 1-4 0v-1zm0 2a2 2 0 0 1 4 0v1a2 2 0 0 1-4 0v-1zm0 2a2 2 0 0 1 4 0v1a2 2 0 0 1-4 0v-1zm0 2a2 2 0 0 1 4 0v1a2 2 0 0 1-4 0v-1zm0 2a2 2 0 0 1 4 0v1a2 2 0 0 1-4 0v-1zm0 2a2 2 0 0 1 4 0v1a2 2 0 0 1-4 0v-1zm0 2a2 2 0 0 1 4 0V172c0 .156-.003.312-.009.468a2 2 0 0 1-3.997-.154c.004-.104.006-.209.006-.314v-.61zm-.076 1.721a2 2 0 1 1 3.962.55c-.056.398-.13.792-.225 1.18a2 2 0 0 1-3.887-.944c.063-.259.113-.52.15-.786zm-.381 1.562a2 2 0 0 1 3.77 1.337c-.134.378-.287.748-.458 1.11a2 2 0 1 1-3.617-1.708c.114-.241.216-.488.305-.739zm-.703 1.478a2 2 0 1 1 3.417 2.08 12.02 12.02 0 0 1-.674.992 2 2 0 0 1-3.193-2.41 8.02 8.02 0 0 0 .45-.662zm-.95 1.261a2 2 0 0 1 2.945 2.708c-.27.294-.556.575-.854.84a2 2 0 1 1-2.661-2.986c.199-.177.39-.365.57-.562zm-1.223 1.086a2 2 0 0 1 2.336 3.246c-.324.234-.66.451-1.007.652a2 2 0 0 1-2.001-3.464c.23-.133.455-.278.672-.434zm-1.435.822a2 2 0 1 1 1.617 3.658c-.366.162-.74.306-1.122.43a2 2 0 0 1-1.241-3.802 7.93 7.93 0 0 0 .746-.286zm-1.44.478a2 2 0 1 1 .89 3.9c-.389.089-.783.158-1.182.208a2 2 0 0 1-.496-3.97c.266-.032.528-.079.788-.138zm-1.613.2a2 2 0 1 1 .087 3.998c-.087.002-.174.003-.262.003h-.786a2 2 0 0 1 0-4h.785c.059 0 .117 0 .176-.002zm-1.96.001a2 2 0 1 1 0 4h-1a2 2 0 0 1 0-4h1zm-2 0a2 2 0 1 1 0 4h-1a2 2 0 0 1 0-4h1zm-2 0a2 2 0 1 1 0 4h-1a2 2 0 0 1 0-4h1zm-2 0a2 2 0 1 1 0 4h-1a2 2 0 0 1 0-4h1zm-2 0a2 2 0 1 1 0 4h-1a2 2 0 0 1 0-4h1zm-2 0a2 2 0 1 1 0 4h-1a2 2 0 0 1 0-4h1zm-2 0a2 2 0 1 1 0 4h-1a2 2 0 0 1 0-4h1zm-2 0a2 2 0 1 1 0 4h-1a2 2 0 0 1 0-4h1zm-2 0a2 2 0 1 1 0 4h-1a2 2 0 0 1 0-4h1zm-2 0a2 2 0 1 1 0 4h-1a2 2 0 0 1 0-4h1zm-2 0a2 2 0 1 1 0 4h-1a2 2 0 0 1 0-4h1zm-2 0a2 2 0 1 1 0 4h-1a2 2 0 0 1 0-4h1zm-2 0a2 2 0 1 1 0 4h-1a2 2 0 0 1 0-4h1zm-2 0a2 2 0 1 1 0 4h-1a2 2 0 0 1 0-4h1zm-2 0a2 2 0 1 1 0 4h-1a2 2 0 0 1 0-4h1zm-2 0a2 2 0 1 1 0 4h-1a2 2 0 0 1 0-4h1zm-2 0a2 2 0 1 1 0 4h-1a2 2 0 0 1 0-4h1zm-2 0a2 2 0 1 1 0 4h-1a2 2 0 0 1 0-4h1zm-2 0a2 2 0 1 1 0 4h-1a2 2 0 0 1 0-4h1zm-2 0a2 2 0 1 1 0 4h-1a2 2 0 0 1 0-4h1zm-2 0a2 2 0 1 1 0 4h-1a2 2 0 0 1 0-4h1zm-2 0a2 2 0 1 1 0 4h-1a2 2 0 0 1 0-4h1zm-2 0a2 2 0 1 1 0 4h-1a2 2 0 0 1 0-4h1zm-2 0a2 2 0 1 1 0 4h-1a2 2 0 0 1 0-4h1zm-2 0a2 2 0 1 1 0 4h-1a2 2 0 0 1 0-4h1zm-2 0a2 2 0 1 1 0 4h-1a2 2 0 0 1 0-4h1zm-2 0a2 2 0 1 1 0 4h-1a2 2 0 0 1 0-4h1zm-2 0a2 2 0 1 1 0 4h-1a2 2 0 0 1 0-4h1zm-2 0a2 2 0 1 1 0 4h-1a2 2 0 0 1 0-4h1zm-2 0a2 2 0 1 1 0 4h-1a2 2 0 0 1 0-4h1zm-2 0a2 2 0 1 1 0 4h-1a2 2 0 0 1 0-4h1zm-2 0a2 2 0 1 1 0 4h-1a2 2 0 0 1 0-4h1zm-2 0a2 2 0 1 1 0 4h-1a2 2 0 0 1 0-4h1zm-2 0a2 2 0 1 1 0 4h-1a2 2 0 0 1 0-4h1zm-2 0a2 2 0 1 1 0 4h-1a2 2 0 0 1 0-4h1zm-2 0a2 2 0 1 1 0 4h-1a2 2 0 0 1 0-4h1zm-2 0a2 2 0 1 1 0 4h-1a2 2 0 0 1 0-4h1zm-2 0a2 2 0 1 1 0 4h-1a2 2 0 1 1 0-4h1zm-2 0a2 2 0 0 1 0 4h-1a2 2 0 1 1 0-4h1zm-2 0a2 2 0 1 1 0 4h-1a2 2 0 1 1 0-4h1zm-2 0a2 2 0 1 1 0 4h-1a2 2 0 1 1 0-4h1zm-2 0a2 2 0 1 1 0 4h-1a2 2 0 1 1 0-4h1zm-2 0a2 2 0 1 1 0 4h-1a2 2 0 1 1 0-4h1zm-2 0a2 2 0 1 1 0 4h-1a2 2 0 1 1 0-4h1zm-2 0a2 2 0 1 1 0 4h-1a2 2 0 1 1 0-4h1zm-2 0a2 2 0 1 1 0 4h-1a2 2 0 1 1 0-4h1zm-2 0a2 2 0 1 1 0 4h-1a2 2 0 1 1 0-4h1zm-2 0a2 2 0 1 1 0 4h-1a2 2 0 1 1 0-4h1zm-2 0a2 2 0 1 1 0 4h-1a2 2 0 1 1 0-4h1zm-2 0a2 2 0 1 1 0 4h-1a2 2 0 1 1 0-4h1zm-2 0a2 2 0 1 1 0 4h-1a2 2 0 1 1 0-4h1zm-2 0a2 2 0 1 1 0 4h-1a2 2 0 1 1 0-4h1zm-2 0a2 2 0 1 1 0 4h-1a2 2 0 1 1 0-4h1zm-2 0a2 2 0 1 1 0 4h-1a2 2 0 1 1 0-4h1zm-2 0a2 2 0 1 1 0 4h-1a2 2 0 1 1 0-4h1zm-2 0a2 2 0 1 1 0 4h-1a2 2 0 1 1 0-4h1zm-2 0a2 2 0 1 1 0 4h-1a2 2 0 1 1 0-4h1zm-2 0a2 2 0 1 1 0 4h-1a2 2 0 1 1 0-4h1zm-2 0a2 2 0 1 1 0 4h-1a2 2 0 1 1 0-4h1zm-2 0a2 2 0 1 1 0 4h-1a2 2 0 1 1 0-4h1zm-2 0a2 2 0 1 1 0 4h-1a2 2 0 1 1 0-4h1zm-2 0a2 2 0 1 1 0 4h-1a2 2 0 1 1 0-4h1zm-2 0a2 2 0 1 1 0 4h-1a2 2 0 1 1 0-4h1zm-2 0a2 2 0 1 1 0 4h-1a2 2 0 1 1 0-4h1zm-2 0a2 2 0 1 1 0 4h-1a2 2 0 1 1 0-4h1zm-2 0a2 2 0 1 1 0 4h-1a2 2 0 1 1 0-4h1zm-2 0a2 2 0 1 1 0 4h-1a2 2 0 1 1 0-4h1zm-2 0a2 2 0 1 1 0 4h-1a2 2 0 1 1 0-4h1zm-2 0a2 2 0 1 1 0 4h-1a2 2 0 1 1 0-4h1zm-2 0a2 2 0 1 1 0 4h-1a2 2 0 1 1 0-4h1zm-2 0a2 2 0 1 1 0 4h-1a2 2 0 1 1 0-4h1zm-2 0a2 2 0 1 1 0 4h-1a2 2 0 1 1 0-4h1zm-2 0a2 2 0 1 1 0 4h-1a2 2 0 1 1 0-4h1zm-2 0a2 2 0 1 1 0 4h-1a2 2 0 1 1 0-4h1zm-2 0a2 2 0 1 1 0 4h-1a2 2 0 1 1 0-4h1zm-2 0a2 2 0 1 1 0 4h-1a2 2 0 1 1 0-4h1zm-2 0a2 2 0 1 1 0 4h-1a2 2 0 1 1 0-4h1zm-2 0a2 2 0 1 1 0 4h-1a2 2 0 1 1 0-4h1zm-2 0a2 2 0 1 1 0 4h-1a2 2 0 1 1 0-4h1zm-2 0a2 2 0 1 1 0 4h-1a2 2 0 1 1 0-4h1zm-2 0a2 2 0 1 1 0 4h-1a2 2 0 1 1 0-4h1zm-2 0a2 2 0 1 1 0 4h-1a2 2 0 1 1 0-4h1zm-2 0a2 2 0 1 1 0 4H110c-.313 0-.625-.012-.935-.036a2 2 0 1 1 .308-3.988c.208.016.417.024.627.024h.218zm-1.64-.126a2 2 0 1 1-.706 3.938c-.395-.071-.786-.162-1.17-.271a2 2 0 0 1 1.097-3.847c.256.073.515.133.778.18zm-1.55-.443a2 2 0 1 1-1.486 3.713 11.95 11.95 0 0 1-1.091-.501 2 2 0 0 1 1.851-3.546c.236.123.479.235.726.334zm-1.456-.766a2 2 0 1 1-2.217 3.33c-.333-.222-.654-.46-.964-.714a2 2 0 0 1 2.538-3.093c.206.17.421.329.643.477zm-1.217-.995a2 2 0 0 1-2.822 2.835 12.06 12.06 0 0 1-.806-.887 2 2 0 0 1 3.09-2.54c.169.206.349.403.538.592zm-1.038-1.268a2 2 0 1 1-3.337 2.204c-.22-.334-.425-.679-.61-1.033a2 2 0 0 1 3.54-1.86c.125.236.26.466.407.689zm-.765-1.471a2 2 0 1 1-3.721 1.466 11.922 11.922 0 0 1-.384-1.139 2 2 0 0 1 3.85-1.084c.073.257.158.51.255.757zm-.417-1.45a2 2 0 1 1-3.931.735 12 12 0 0 1-.162-1.19 2 2 0 0 1 3.986-.338 8 8 0 0 0 .107.793zm-.136-1.654a2 2 0 1 1-4 0v-1a2 2 0 1 1 4 0v1zm0-2a2 2 0 1 1-4 0v-1a2 2 0 1 1 4 0v1zm0-2a2 2 0 1 1-4 0v-1a2 2 0 1 1 4 0v1zm0-2a2 2 0 1 1-4 0v-1a2 2 0 1 1 4 0v1zm0-2a2 2 0 1 1-4 0v-1a2 2 0 1 1 4 0v1zm0-2a2 2 0 1 1-4 0v-1a2 2 0 1 1 4 0v1zm0-2a2 2 0 1 1-4 0v-1a2 2 0 1 1 4 0v1zm0-2a2 2 0 1 1-4 0v-1a2 2 0 1 1 4 0v1zm0-2a2 2 0 1 1-4 0v-1a2 2 0 1 1 4 0v1zm0-2a2 2 0 1 1-4 0v-1a2 2 0 1 1 4 0v1zm0-2a2 2 0 1 1-4 0v-1a2 2 0 1 1 4 0v1zm0-2a2 2 0 1 1-4 0v-1a2 2 0 1 1 4 0v1zm0-2a2 2 0 1 1-4 0v-1a2 2 0 1 1 4 0v1zm0-2a2 2 0 1 1-4 0v-1a2 2 0 1 1 4 0v1zm0-2a2 2 0 1 1-4 0v-1a2 2 0 1 1 4 0v1zm0-2a2 2 0 1 1-4 0v-1a2 2 0 1 1 4 0v1zm0-2a2 2 0 1 1-4 0v-1a2 2 0 1 1 4 0v1zm0-2a2 2 0 1 1-4 0v-1a2 2 0 1 1 4 0v1zm0-2a2 2 0 1 1-4 0v-1a2 2 0 1 1 4 0v1zm0-2a2 2 0 1 1-4 0v-1a2 2 0 1 1 4 0v1zm0-2a2 2 0 1 1-4 0v-1a2 2 0 1 1 4 0v1zm0-2a2 2 0 1 1-4 0v-1a2 2 0 1 1 4 0v1zm0-2a2 2 0 1 1-4 0v-1a2 2 0 1 1 4 0v1zm0-2a2 2 0 1 1-4 0v-1a2 2 0 1 1 4 0v1zm0-2a2 2 0 1 1-4 0v-1a2 2 0 1 1 4 0v1zm0-2a2 2 0 1 1-4 0v-1a2 2 0 1 1 4 0v1zm0-2a2 2 0 1 1-4 0v-1a2 2 0 1 1 4 0v1zm0-2a2 2 0 1 1-4 0v-1a2 2 0 1 1 4 0v1zm0-2a2 2 0 1 1-4 0v-1a2 2 0 1 1 4 0v1zm0-2a2 2 0 1 1-4 0V113l.002-.206a2 2 0 1 1 4 .068L102 113v.827zm.054-1.766a2 2 0 0 1-3.973-.463c.047-.399.113-.794.199-1.184a2 2 0 1 1 3.906.86 7.97 7.97 0 0 0-.132.787zm.346-1.568a2 2 0 1 1-3.799-1.252c.126-.381.27-.755.433-1.12a2 2 0 0 1 3.654 1.627 7.93 7.93 0 0 0-.288.745zm.668-1.489a2 2 0 0 1-3.464-2.002c.2-.346.418-.682.652-1.007a2 2 0 1 1 3.246 2.337 8.011 8.011 0 0 0-.434.672zm.922-1.285a2 2 0 0 1-3.003-2.642c.264-.3.543-.587.836-.86a2 2 0 0 1 2.726 2.928 8.062 8.062 0 0 0-.559.574zm1.198-1.111a2 2 0 0 1-2.408-3.194c.32-.24.65-.465.992-.673a2 2 0 0 1 2.079 3.417 8.02 8.02 0 0 0-.663.45zm1.415-.854a2 2 0 1 1-1.701-3.62c.362-.17.733-.322 1.111-.455a2 2 0 1 1 1.329 3.773c-.252.088-.498.19-.74.302zm1.434-.512a2 2 0 0 1-.978-3.879c.388-.097.78-.176 1.178-.234a2 2 0 0 1 .584 3.957 7.95 7.95 0 0 0-.784.156zm1.605-.234a2 2 0 0 1-.175-3.996c.174-.008.348-.012.524-.012a2 2 0 1 1 .01 4 8.26 8.26 0 0 0-.359.008z" fill="#EEE" fill-rule="nonzero"/><path d="M127 166c5.523 0 10-4.477 10-10s-4.477-10-10-10-10 4.477-10 10 4.477 10 10 10zm0 4c-7.732 0-14-6.268-14-14s6.268-14 14-14 14 6.268 14 14-6.268 14-14 14z" fill="#E1DBF1" fill-rule="nonzero"/><path d="M129.828 156l1.415 1.414a2 2 0 1 1-2.829 2.829L127 158.828l-1.414 1.415a2 2 0 1 1-2.829-2.829l1.415-1.414-1.415-1.414a2 2 0 1 1 2.829-2.829l1.414 1.415 1.414-1.415a2 2 0 1 1 2.829 2.829L129.828 156z" fill="#6B4FBB"/><path d="M155 149h50a2 2 0 1 1 0 4h-50a2 2 0 1 1 0-4zm0 12h80a2 2 0 0 1 0 4h-80a2 2 0 1 1 0-4z" fill="#EFEDF8"/><path d="M118 131a2 2 0 1 1 0-4h8a2 2 0 1 1 0 4h-8zm18 0a2 2 0 1 1 0-4h8a2 2 0 1 1 0 4h-8zm18 0a2 2 0 1 1 0-4h8a2 2 0 1 1 0 4h-8zm18 0a2 2 0 1 1 0-4h8a2 2 0 1 1 0 4h-8zm18 0a2 2 0 1 1 0-4h8a2 2 0 1 1 0 4h-8zm18 0a2 2 0 0 1 0-4h8a2 2 0 0 1 0 4h-8zm18 0a2 2 0 0 1 0-4h8a2 2 0 0 1 0 4h-8zm18 0a2 2 0 0 1 0-4h8a2 2 0 0 1 0 4h-8zm18 0a2 2 0 0 1 0-4h8a2 2 0 0 1 0 4h-8z" fill="#EEE" fill-rule="nonzero"/></g></g></svg>