<svg xmlns="http://www.w3.org/2000/svg" width="430" height="200" viewBox="0 0 430 200">
  <g fill="none" fill-rule="evenodd">
    <g transform="translate(138 65)">
      <path fill="#E5E5E5" fill-rule="nonzero" d="M35 70c-1.1045695 0-2-.8954305-2-2s.8954305-2 2-2c2.5416617 0 5.0415896-.3054667 7.4626379-.9036641 1.072322-.2649515 2.1563964.3895517 2.4213478 1.4618737.2649515 1.072322-.3895517 2.1563964-1.4618737 2.4213478C40.6877484 69.6551694 37.8656677 70 35 70zm18.2108107-5.1051878c-.9428105.5754843-2.1736316.2777076-2.7491158-.6651029-.5754843-.9428105-.2777076-2.1736316.6651029-2.7491159 2.1457336-1.3097393 4.1262715-2.8769136 5.8963238-4.6635758.7773926-.7846876 2.0437087-.7906013 2.8283963-.0132087.7846875.7773925.7906013 2.0437087.0132087 2.8283962-1.9971234 2.0158642-4.2319715 3.7842709-6.6539159 5.2626071zm12.894669-13.8345984c-.5075117.9810737-1.7142486 1.3649716-2.6953223.8574599-.9810738-.5075116-1.3649717-1.7142485-.85746-2.6953223 1.1524495-2.2278066 2.0307482-4.5902283 2.6121496-7.0427389.2547916-1.0747814 1.3326236-1.7395143 2.4074049-1.4847227 1.0747814.2547917 1.7395144 1.3326236 1.4847227 2.407405-.6570023 2.7714163-1.6495243 5.4410722-2.9514949 7.957919zm3.8152758-18.4330709c.0738452 1.1020984-.7597187 2.0553889-1.861817 2.129234-1.1020983.0738452-2.0553888-.7597187-2.129234-1.861817-.1693795-2.5278964-.6435332-5.0010563-1.4071583-7.3798248-.337616-1.0517078.2412697-2.1779772 1.2929774-2.5155933 1.0517078-.337616 2.1779772.2412697 2.5155933 1.2929774.8628058 2.6877264 1.3984479 5.4816064 1.5896386 8.3350237zm-6.3458747-17.8425766c.6386612.9012134.4258206 2.1495285-.4753928 2.7881897s-2.1495285.4258206-2.7881897-.4753928c-1.4534937-2.0510217-3.151875-3.9203523-5.0544833-5.5642568-.8358021-.7221555-.927931-1.98512972-.2057755-2.82093188.7221554-.83580217 1.9851296-.92793102 2.8209318-.20577555 2.1465986 1.85471863 4.0627401 3.96372803 5.7029095 6.27816733zM48.895123 2.86724309c1.0136332.43888654 1.4795575 1.61638648 1.040671 2.63001975-.4388866 1.01363326-1.6163865 1.47955754-2.6300198 1.04067101-2.298686-.99529323-4.7151226-1.70874893-7.2064988-2.12085824-1.0897612-.1802621-1.8270558-1.20981937-1.6467937-2.29958051.1802621-1.08976115 1.2098193-1.8270558 2.2995805-1.6467937 2.8147466.46559941 5.5456225 1.27189366 8.1430608 2.39654169zM30.2629041.31809463c1.0945847-.14818237 2.1020465.61902833 2.2502289 1.71361308.1481824 1.09458474-.6190283 2.10204655-1.7136131 2.25022893-2.5042991.33902628-4.9399478.98069322-7.2650281 1.90682514-1.0261596.40874247-2.1893775-.09177294-2.5981199-1.11793246-.4087425-1.02615953.0917729-2.18937743 1.1179324-2.5981199C24.6816464 1.42617981 27.4340968.70105208 30.2629041.31809463zM12.9072403 7.85257394c.8563336-.69768662 2.1161158-.56907788 2.8138025.28725567.6976866.85633356.5690779 2.11611579-.2872557 2.81380249-1.9491691 1.5880602-3.7007916 3.407617-5.2131804 5.4157591-.66450694.8823289-1.91846516 1.0589085-2.80079407.3944016-.88232892-.6645069-1.05890852-1.9184651-.39440158-2.8007941 1.7064955-2.265876 3.68264565-4.31866846 5.88182925-6.11042476zM1.98895813 23.3423527c.3678123-1.0415315 1.51031119-1.5876888 2.5518427-1.2198765 1.04153152.3678123 1.58768886 1.5103112 1.21987657 2.5518427-.83269601 2.3579395-1.37771587 4.8170524-1.61857328 7.3366732-.10510965 1.0995571-1.08168498 1.905716-2.18124205 1.8006063-1.09955706-.1051096-1.90571597-1.081685-1.80060632-2.181242.27196841-2.8450745.88778166-5.623605 1.82870238-8.2880037zM.71823598 42.0866504c-.22255081-1.0819173.47410332-2.1393976 1.55602057-2.3619484 1.08191724-.2225508 2.13939753.4741034 2.36194834 1.5560206.50821321 2.4706476 1.31544697 4.8578651 2.40038264 7.1178137.47803895.9957673.05833719 2.1905234-.93743012 2.6685623-.99576731.478039-2.19052335.0583372-2.6685623-.9374301-1.22582596-2.5534267-2.13809242-5.2512554-2.71235913-8.0430181zM9.39373515 58.860598c-.75318331-.8079534-.70878339-2.0735047.09917-2.8266881.80795335-.7531833 2.07350475-.7087833 2.82668805.09917 1.7148234 1.8395222 3.646918 3.4662544 5.7516125 4.8409871.9247756.6040398 1.1847833 1.8433894.5807435 2.7681649-.6040397.9247755-1.8433894 1.1847833-2.7681649.5807435-2.3753193-1.5514979-4.5553066-3.386944-6.49004915-5.4623774zm16.24506865 9.8729643c-1.0645037-.2947976-1.6884738-1.396729-1.3936762-2.4612327.2947977-1.0645037 1.3967291-1.6884738 2.4612328-1.3936762 2.405326.6661174 4.8957908 1.0405837 7.4331922 1.1096504 1.1041606.0300546 1.9748954.9495177 1.9448408 2.0536782-.0300546 1.1041606-.9495177 1.9748955-2.0536783 1.9448408-2.8623618-.0779119-5.67473-.5007797-8.3919113-1.2532605z"/>
      <circle cx="35" cy="35" r="16" stroke="#E1DBF1" stroke-width="4"/>
      <path fill="#6B4FBB" d="M37 33h5c1.1045695 0 2 .8954305 2 2s-.8954305 2-2 2h-7c-1.1045695 0-2-.8954305-2-2v-8c0-1.1045695.8954305-2 2-2s2 .8954305 2 2v6z"/>
    </g>
    <g transform="translate(247 30)">
      <rect width="116" height="135" y="5" fill="#F9F9F9" rx="10"/>
      <rect width="116" height="134" x="5" fill="#FFF" stroke="#EEE" stroke-width="4" stroke-linecap="round" rx="10"/>
      <g transform="translate(23 23)">
        <rect width="16" height="4" fill="#E1DBF1" rx="2"/>
        <rect width="16" height="4" x="32" y="12" fill="#E1DBF1" rx="2"/>
        <rect width="16" height="4" x="44" fill="#EEE" rx="2"/>
        <rect width="16" height="4" x="12" y="24" fill="#E1DBF1" rx="2"/>
        <rect width="16" height="4" x="64" y="36" fill="#FEF0E8" rx="2"/>
        <rect width="8" height="4" x="20" fill="#FEE1D3" rx="2"/>
        <rect width="8" height="4" x="32" y="36" fill="#FC6D26" rx="2"/>
        <rect width="8" height="4" x="52" y="12" fill="#FEF0E8" rx="2"/>
        <rect width="8" height="4" x="64" fill="#FEF0E8" rx="2"/>
        <rect width="12" height="4" x="16" y="48" fill="#E1DBF1" rx="2"/>
        <rect width="8" height="4" x="44" y="36" fill="#FC6D26" rx="2"/>
        <rect width="4" height="4" x="56" y="36" fill="#E1DBF1" rx="2"/>
        <rect width="4" height="4" x="64" y="60" fill="#E1DBF1" rx="2"/>
        <rect width="4" height="4" x="72" y="60" fill="#FC6D26" rx="2"/>
        <rect width="8" height="4" x="32" fill="#FC6D26" rx="2"/>
        <rect width="28" height="4" y="36" fill="#EEE" rx="2"/>
        <rect width="28" height="4" x="44" y="48" fill="#EEE" rx="2"/>
        <rect width="28" height="4" x="32" y="60" fill="#EFEDF8" rx="2"/>
        <rect width="28" height="4" y="12" fill="#6B4FBB" rx="2"/>
        <rect width="28" height="4" x="32" y="24" fill="#C3B8E3" rx="2"/>
        <rect width="8" height="4" y="24" fill="#FEF0E8" rx="2"/>
        <rect width="8" height="4" x="32" y="48" fill="#6B4FBB" rx="2"/>
        <rect width="12" height="4" y="48" fill="#FC6D26" rx="2"/>
        <rect width="12" height="4" y="60" fill="#FEF0E8" rx="2"/>
        <rect width="12" height="4" x="16" y="60" fill="#FEF0E8" rx="2"/>
      </g>
      <g transform="translate(23 95)">
        <rect width="16" height="4" fill="#EFEDF8" rx="2"/>
        <rect width="16" height="4" x="18" y="12" fill="#FC6D26" rx="2"/>
        <rect width="16" height="4" x="44" fill="#6B4FBB" rx="2"/>
        <rect width="8" height="4" x="20" fill="#FEE1D3" rx="2"/>
        <rect width="8" height="4" x="38" y="12" fill="#FEF0E8" rx="2"/>
        <rect width="8" height="4" x="64" fill="#FEF0E8" rx="2"/>
        <rect width="8" height="4" x="32" fill="#FC6D26" rx="2"/>
        <rect width="14" height="4" y="12" fill="#EEE" rx="2"/>
      </g>
    </g>
    <path fill="#FC6D26" fill-rule="nonzero" d="M81 119c-10.493 0-19-8.507-19-19s8.507-19 19-19 19 8.507 19 19-8.507 19-19 19zm0-4c8.284 0 15-6.716 15-15 0-8.284-6.716-15-15-15-8.284 0-15 6.716-15 15 0 8.284 6.716 15 15 15zm-5-20c1.1045695 0 2 .8954305 2 2v6c0 1.1045695-.8954305 2-2 2s-2-.8954305-2-2v-6c0-1.1045695.8954305-2 2-2zm10 0c1.1045695 0 2 .8954305 2 2v6c0 1.1045695-.8954305 2-2 2s-2-.8954305-2-2v-6c0-1.1045695.8954305-2 2-2z"/>
    <path fill="#E5E5E5" fill-rule="nonzero" d="M108.0000091 102c0-1.105.887-2 1.998-2h4.004c1.103 0 1.998.888 1.998 2 0 1.105-.887 2-1.998 2h-4.004c-.5305757.0010668-1.0396985-.2093685-1.4146852-.5847306-.3749867-.375362-.5849124-.884695-.5833148-1.4152694zm14 0c0-1.105.887-2 1.998-2h4.004c1.103 0 1.998.888 1.998 2 0 1.105-.887 2-1.998 2h-4.004c-.5305757.0010668-1.0396985-.2093685-1.4146852-.5847306-.3749867-.375362-.5849124-.884695-.5833148-1.4152694zm92.9999999 0c0-1.105.887-2 1.998-2h4.004c1.103 0 1.998.888 1.998 2 0 1.105-.887 2-1.998 2h-4.004c-.530576.0010668-1.039698-.2093685-1.414685-.5847306-.374987-.375362-.584913-.884695-.583315-1.4152694zm14 0c0-1.105.887-2 1.998-2h4.004c1.103 0 1.998.888 1.998 2 0 1.105-.887 2-1.998 2h-4.004c-.530576.0010668-1.039698-.2093685-1.414685-.5847306-.374987-.375362-.584913-.884695-.583315-1.4152694z"/>
  </g>
</svg>
