<svg width="430" height="202" viewBox="0 0 430 202" xmlns="http://www.w3.org/2000/svg">
  <title>
    profile_private_mode
  </title>
  <g fill="none" fill-rule="evenodd">
    <path d="M287.797677 163H85c-5.5228475 0-10-4.477153-10-10V45c0-5.5228475 4.4771525-10 10-10h264c5.522847 0 10 4.4771525 10 10v67.800495c7.439387 7.880088 12 18.507202 12 30.199505 0 24.300529-19.699471 44-44 44-17.09874 0-31.919476-9.753294-39.202321-23.999995z" fill="#F9F9F9"/>
    <g transform="translate(75 30)">
      <rect stroke="#EEE" stroke-width="4" fill="#FFF" x="2" y="2" width="280" height="124" rx="10"/>
      <path d="M19 16h12c1.6568542 0 3 1.3431458 3 3v12c0 1.6568542-1.3431458 3-3 3H19c-1.6568542 0-3-1.3431458-3-3V19c0-1.6568542 1.3431458-3 3-3zm26 26h12c1.6568542 0 3 1.3431458 3 3v12c0 1.6568542-1.3431458 3-3 3H45c-1.6568542 0-3-1.3431458-3-3V45c0-1.6568542 1.3431458-3 3-3zm52 0h12c1.656854 0 3 1.3431458 3 3v12c0 1.6568542-1.343146 3-3 3H97c-1.6568542 0-3-1.3431458-3-3V45c0-1.6568542 1.3431458-3 3-3zm26 0h12c1.656854 0 3 1.3431458 3 3v12c0 1.6568542-1.343146 3-3 3h-12c-1.656854 0-3-1.3431458-3-3V45c0-1.6568542 1.343146-3 3-3zm26 0h12c1.656854 0 3 1.3431458 3 3v12c0 1.6568542-1.343146 3-3 3h-12c-1.656854 0-3-1.3431458-3-3V45c0-1.6568542 1.343146-3 3-3zm26-26h12c1.656854 0 3 1.3431458 3 3v12c0 1.6568542-1.343146 3-3 3h-12c-1.656854 0-3-1.3431458-3-3V19c0-1.6568542 1.343146-3 3-3zm52 0h12c1.656854 0 3 1.3431458 3 3v12c0 1.6568542-1.343146 3-3 3h-12c-1.656854 0-3-1.3431458-3-3V19c0-1.6568542 1.343146-3 3-3zm0 26h12c1.656854 0 3 1.3431458 3 3v12c0 1.6568542-1.343146 3-3 3h-12c-1.656854 0-3-1.3431458-3-3V45c0-1.6568542 1.343146-3 3-3zm26-26h12c1.656854 0 3 1.3431458 3 3v12c0 1.6568542-1.343146 3-3 3h-12c-1.656854 0-3-1.3431458-3-3V19c0-1.6568542 1.343146-3 3-3zM45 68h12c1.6568542 0 3 1.3431458 3 3v12c0 1.6568542-1.3431458 3-3 3H45c-1.6568542 0-3-1.3431458-3-3V71c0-1.6568542 1.3431458-3 3-3zm104 0h12c1.656854 0 3 1.3431458 3 3v12c0 1.6568542-1.343146 3-3 3h-12c-1.656854 0-3-1.3431458-3-3V71c0-1.6568542 1.343146-3 3-3zM71 94h12c1.6568542 0 3 1.3431458 3 3v12c0 1.656854-1.3431458 3-3 3H71c-1.6568542 0-3-1.343146-3-3V97c0-1.6568542 1.3431458-3 3-3zm52 0h12c1.656854 0 3 1.3431458 3 3v12c0 1.656854-1.343146 3-3 3h-12c-1.656854 0-3-1.343146-3-3V97c0-1.6568542 1.343146-3 3-3z" fill="#EFEDF8"/>
      <path d="M19 42h12c1.6568542 0 3 1.3431458 3 3v12c0 1.6568542-1.3431458 3-3 3H19c-1.6568542 0-3-1.3431458-3-3V45c0-1.6568542 1.3431458-3 3-3zm234 0h12c1.656854 0 3 1.3431458 3 3v12c0 1.6568542-1.343146 3-3 3h-12c-1.656854 0-3-1.3431458-3-3V45c0-1.6568542 1.343146-3 3-3zM71 68h12c1.6568542 0 3 1.3431458 3 3v12c0 1.6568542-1.3431458 3-3 3H71c-1.6568542 0-3-1.3431458-3-3V71c0-1.6568542 1.3431458-3 3-3zm104 0h12c1.656854 0 3 1.3431458 3 3v12c0 1.6568542-1.343146 3-3 3h-12c-1.656854 0-3-1.3431458-3-3V71c0-1.6568542 1.343146-3 3-3z" fill="#C3B8E3"/>
      <path d="M45 16h12c1.6568542 0 3 1.3431458 3 3v12c0 1.6568542-1.3431458 3-3 3H45c-1.6568542 0-3-1.3431458-3-3V19c0-1.6568542 1.3431458-3 3-3zm26 26h12c1.6568542 0 3 1.3431458 3 3v12c0 1.6568542-1.3431458 3-3 3H71c-1.6568542 0-3-1.3431458-3-3V45c0-1.6568542 1.3431458-3 3-3zm26-26h12c1.656854 0 3 1.3431458 3 3v12c0 1.6568542-1.343146 3-3 3H97c-1.6568542 0-3-1.3431458-3-3V19c0-1.6568542 1.3431458-3 3-3zm52 0h12c1.656854 0 3 1.3431458 3 3v12c0 1.6568542-1.343146 3-3 3h-12c-1.656854 0-3-1.3431458-3-3V19c0-1.6568542 1.343146-3 3-3zm52 0h12c1.656854 0 3 1.3431458 3 3v12c0 1.6568542-1.343146 3-3 3h-12c-1.656854 0-3-1.3431458-3-3V19c0-1.6568542 1.343146-3 3-3zM97 68h12c1.656854 0 3 1.3431458 3 3v12c0 1.6568542-1.343146 3-3 3H97c-1.6568542 0-3-1.3431458-3-3V71c0-1.6568542 1.3431458-3 3-3zm104 0h12c1.656854 0 3 1.3431458 3 3v12c0 1.6568542-1.343146 3-3 3h-12c-1.656854 0-3-1.3431458-3-3V71c0-1.6568542 1.343146-3 3-3zM19 94h12c1.6568542 0 3 1.3431458 3 3v12c0 1.656854-1.3431458 3-3 3H19c-1.6568542 0-3-1.343146-3-3V97c0-1.6568542 1.3431458-3 3-3zm130 0h12c1.656854 0 3 1.3431458 3 3v12c0 1.656854-1.343146 3-3 3h-12c-1.656854 0-3-1.343146-3-3V97c0-1.6568542 1.343146-3 3-3z" fill="#EEE"/>
      <path d="M71 16h12c1.6568542 0 3 1.3431458 3 3v12c0 1.6568542-1.3431458 3-3 3H71c-1.6568542 0-3-1.3431458-3-3V19c0-1.6568542 1.3431458-3 3-3zm104 26h12c1.656854 0 3 1.3431458 3 3v12c0 1.6568542-1.343146 3-3 3h-12c-1.656854 0-3-1.3431458-3-3V45c0-1.6568542 1.343146-3 3-3zm-52 26h12c1.656854 0 3 1.3431458 3 3v12c0 1.6568542-1.343146 3-3 3h-12c-1.656854 0-3-1.3431458-3-3V71c0-1.6568542 1.343146-3 3-3zM45 94h12c1.6568542 0 3 1.3431458 3 3v12c0 1.656854-1.3431458 3-3 3H45c-1.6568542 0-3-1.343146-3-3V97c0-1.6568542 1.3431458-3 3-3zm156 0h12c1.656854 0 3 1.3431458 3 3v12c0 1.656854-1.343146 3-3 3h-12c-1.656854 0-3-1.343146-3-3V97c0-1.6568542 1.343146-3 3-3z" fill="#6B4FBB"/>
      <path d="M123 16h12c1.656854 0 3 1.3431458 3 3v12c0 1.6568542-1.343146 3-3 3h-12c-1.656854 0-3-1.3431458-3-3V19c0-1.6568542 1.343146-3 3-3zm78 26h12c1.656854 0 3 1.3431458 3 3v12c0 1.6568542-1.343146 3-3 3h-12c-1.656854 0-3-1.3431458-3-3V45c0-1.6568542 1.343146-3 3-3zM19 68h12c1.6568542 0 3 1.3431458 3 3v12c0 1.6568542-1.3431458 3-3 3H19c-1.6568542 0-3-1.3431458-3-3V71c0-1.6568542 1.3431458-3 3-3zm78 26h12c1.656854 0 3 1.3431458 3 3v12c0 1.656854-1.343146 3-3 3H97c-1.6568542 0-3-1.343146-3-3V97c0-1.6568542 1.3431458-3 3-3z" fill="#E1DBF1"/>
      <rect fill="#EFEDF8" x="224" y="68" width="18" height="18" rx="3"/>
      <rect fill="#E1DBF1" x="250" y="68" width="18" height="18" rx="3"/>
      <rect fill="#EFEDF8" x="172" y="94" width="18" height="18" rx="3"/>
      <rect fill="#EEE" x="224" y="94" width="18" height="18" rx="3"/>
      <rect fill="#6B4FBB" x="250" y="94" width="18" height="18" rx="3"/>
    </g>
    <g transform="translate(283 94)">
      <circle stroke="#EEE" stroke-width="4" fill="#FFF" cx="44" cy="44" r="42"/>
      <path d="M56.9228878 34l13.1925456 5.2606778c1.5390135.6137 2.2891283 2.3588192 1.6754283 3.8978327-.2979085.7470835-.8833221 1.3432591-1.6248555 1.6547259C61.9340564 48.2709089 53.2068151 50 44.0000039 50c-9.2068206 0-17.9340702-1.7290946-26.1660564-5.1867863-1.5275443-.6416447-2.2457303-2.4001109-1.6041074-3.9276708.3114647-.7415274.9076357-1.3269363 1.6547134-1.6248425L31.0771372 34h25.8457506zm-26.6830939 0l2.2513166-10.283197C33.0940517 20.9627867 35.5330431 19 38.3522884 19h11.295431c2.8192453 0 5.2582367 1.9627867 5.8611778 4.716803L57.7602139 34h-27.52042z" stroke="#FFF" stroke-width="4" fill="#FEE1D3"/>
      <path d="M38.3897607 49.8129806C39.6662382 48.1053743 41.7040321 47 44 47s4.3337618 1.1053743 5.6102393 2.8129806C50.9232272 48.6830281 52.6318487 48 54.5 48c4.1421356 0 7.5 3.3578644 7.5 7.5S58.6421356 63 54.5 63 47 59.6421356 47 55.5c0-.3363492.0221409-.6675272.0650448-.9921559C47.0225988 54.3456754 47 54.1754768 47 54c0-1.6568542-1.3431458-3-3-3s-3 1.3431458-3 3c0 .1754768-.0225988.3456754-.0650448.5078441C40.9778591 54.8324728 41 55.1636508 41 55.5c0 4.1421356-3.3578644 7.5-7.5 7.5S26 59.6421356 26 55.5s3.3578644-7.5 7.5-7.5c1.8681513 0 3.5767728.6830281 4.8897607 1.8129806zM33.5 59c1.9329966 0 3.5-1.5670034 3.5-3.5S35.4329966 52 33.5 52 30 53.5670034 30 55.5s1.5670034 3.5 3.5 3.5zm21 0c1.9329966 0 3.5-1.5670034 3.5-3.5S56.4329966 52 54.5 52 51 53.5670034 51 55.5s1.5670034 3.5 3.5 3.5z" fill="#FC6D26" fill-rule="nonzero"/>
    </g>
  </g>
</svg>
