<?xml version="1.0" encoding="UTF-8"?>
<svg width="258px" height="174px" viewBox="0 0 258 174" version="1.1" xmlns="http://www.w3.org/2000/svg" xmlns:xlink="http://www.w3.org/1999/xlink">
    <!-- Generator: Sketch 51.3 (57544) - http://www.bohemiancoding.com/sketch -->
    <title>security-dashboard-api-error-empty-state</title>
    <desc>Created with Sketch.</desc>
    <defs></defs>
    <g id="security-dashboard-api-error-empty-state" stroke="none" stroke-width="1" fill="none" fill-rule="evenodd">
        <path d="M19.1444575,65.423458 L17.0823076,66.207895 C16.5661091,66.4042557 15.9884657,66.144976 15.792105,65.6287774 C15.7049851,65.3997543 15.7049851,65.1467155 15.792105,64.9176924 L16.576542,62.8555425 C16.6636619,62.6265194 16.6636619,62.3734806 16.576542,62.1444575 L15.792105,60.0823076 C15.5957443,59.5661091 15.855024,58.9884657 16.3712226,58.792105 C16.6002457,58.7049851 16.8532845,58.7049851 17.0823076,58.792105 L19.1444575,59.576542 C19.3734806,59.6636619 19.6265194,59.6636619 19.8555425,59.576542 L21.9176924,58.792105 C22.4338909,58.5957443 23.0115343,58.855024 23.207895,59.3712226 C23.2950149,59.6002457 23.2950149,59.8532845 23.207895,60.0823076 L22.423458,62.1444575 C22.3363381,62.3734806 22.3363381,62.6265194 22.423458,62.8555425 L23.207895,64.9176924 C23.4042557,65.4338909 23.144976,66.0115343 22.6287774,66.207895 C22.3997543,66.2950149 22.1467155,66.2950149 21.9176924,66.207895 L19.8555425,65.423458 C19.6265194,65.3363381 19.3734806,65.3363381 19.1444575,65.423458 Z" id="Star" fill="#EEEEEE" fill-rule="nonzero"></path>
        <path d="M230.057066,23.6502893 L229.12499,25.4790102 C228.885559,25.9487697 228.311243,26.135184 227.842219,25.8953782 C227.633969,25.7889025 227.472039,25.6095002 227.387212,25.3912732 L226.711748,23.6535872 C226.623229,23.4258642 226.450917,23.2407925 226.230279,23.1364654 L224.546658,22.3403765 C224.070456,22.1152078 223.866667,21.5460293 224.091484,21.0690809 C224.191304,20.8573121 224.365334,20.6896601 224.580493,20.5979934 L226.466922,19.7942955 C226.672745,19.7066063 226.841238,19.5492373 226.942934,19.3497107 L227.87501,17.5209898 C228.114441,17.0512303 228.688757,16.864816 229.157781,17.1046218 C229.366031,17.2110975 229.527961,17.3904998 229.612788,17.6087268 L230.288252,19.3464128 C230.376771,19.5741358 230.549083,19.7592075 230.769721,19.8635346 L232.453342,20.6596235 C232.929544,20.8847922 233.133333,21.4539707 232.908516,21.9309191 C232.808696,22.1426879 232.634666,22.3103399 232.419507,22.4020066 L230.533078,23.2057045 C230.327255,23.2933937 230.158762,23.4507627 230.057066,23.6502893 Z" id="Star" fill="#E1DBF1" fill-rule="nonzero" transform="translate(228.500000, 21.500000) rotate(-19.000000) translate(-228.500000, -21.500000) "></path>
        <path d="M73.1461327,10.2299301 L71.3711893,10.9014765 C70.8546398,11.0969121 70.2774619,10.8365977 70.0820264,10.3200482 C69.9953161,10.090867 69.9957704,9.83782587 70.0833031,9.60895751 L70.7532685,7.85722339 C70.8412432,7.62719916 70.8412432,7.37280084 70.7532685,7.14277661 L70.0833031,5.39104249 C69.886014,4.87519805 70.1442542,4.29708915 70.6600986,4.09980012 C70.888967,4.0122675 71.1420082,4.0118132 71.3711893,4.09852346 L73.1461327,4.77006988 C73.3741568,4.85634237 73.6258432,4.85634237 73.8538673,4.77006988 L75.6288107,4.09852346 C76.1453602,3.90308794 76.7225381,4.16340227 76.9179736,4.67995178 C77.0046839,4.90913297 77.0042296,5.16217413 76.9166969,5.39104249 L76.2467315,7.14277661 C76.1587568,7.37280084 76.1587568,7.62719916 76.2467315,7.85722339 L76.9166969,9.60895751 C77.113986,10.124802 76.8557458,10.7029109 76.3399014,10.9001999 C76.111033,10.9877325 75.8579918,10.9881868 75.6288107,10.9014765 L73.8538673,10.2299301 C73.6258432,10.1436576 73.3741568,10.1436576 73.1461327,10.2299301 Z" id="Star" fill="#FEE1D3" fill-rule="nonzero" transform="translate(73.500000, 7.500000) rotate(-37.000000) translate(-73.500000, -7.500000) "></path>
        <circle id="Oval-3" fill="#FEE1D3" fill-rule="nonzero" transform="translate(83.000000, 9.000000) rotate(-37.000000) translate(-83.000000, -9.000000) " cx="83" cy="9" r="1"></circle>
        <circle id="Oval-4" fill="#E1DBF1" fill-rule="nonzero" transform="translate(235.000000, 28.000000) rotate(-19.000000) translate(-235.000000, -28.000000) " cx="235" cy="28" r="1"></circle>
        <circle id="Oval-4" fill="#E1DBF1" fill-rule="nonzero" transform="translate(221.000000, 21.000000) rotate(-19.000000) translate(-221.000000, -21.000000) " cx="221" cy="21" r="1"></circle>
        <path d="M4,156 L254,156" id="Line-7" stroke="#E4E4E4" stroke-width="4" stroke-linecap="round" fill-rule="nonzero"></path>
        <g id="Group" transform="translate(224.000000, 75.000000) rotate(-15.000000) translate(-224.000000, -75.000000) translate(193.000000, 43.000000)" fill-rule="nonzero">
            <path d="M50.8744469,40.225815 C50.449813,41.2019131 49.9576395,42.1418759 49.4038237,43.0398088 L55.8505864,51.0008977 L43.5584566,60.9548681 L36.8903662,52.7204623 C35.9761048,53.0005129 35.0369639,53.2236814 34.0770744,53.3858383 L31.7107757,63.635404 L16.2991492,60.0773496 L18.5419989,50.3625001 C17.5529021,49.7507484 16.6149753,49.064222 15.7361157,48.3108145 L6.93635233,52.6027459 L0.00262905801,38.3865064 L8.12455171,34.4251801 C7.98213385,33.4046938 7.90850781,32.3621868 7.90850781,31.3024912 C7.90850781,30.9055162 7.91884007,30.5109534 7.93925045,30.1190569 L0.00262905801,26.248108 L6.93635233,12.0318685 L14.3099401,15.6282076 C15.4631833,14.4517534 16.7452074,13.4019055 18.1332103,12.5014561 L16.2991492,4.55726474 L31.7107757,0.999210396 L33.5908005,9.14249237 C35.1805527,9.37519196 36.7160781,9.77475285 38.1790069,10.3228134 L43.5584566,3.67974624 L55.8505864,13.6337167 L50.0864912,20.7517815 C50.7082434,21.9133927 51.2305259,23.136189 51.6419628,24.4087994 L61.0792742,24.4087994 L61.0792742,40.225815 L50.8744469,40.225815 Z" id="Combined-Shape" stroke="#6B4FBB" stroke-width="4" stroke-linecap="round" stroke-linejoin="bevel"></path>
            <ellipse id="Oval-9" stroke="#E3DEF2" stroke-width="3" fill="#FFFFFF" cx="31.3771759" cy="32.3632494" rx="8.55741161" ry="8.55361349"></ellipse>
        </g>
        <g id="Group-2" transform="translate(188.500000, 37.500000) rotate(-353.000000) translate(-188.500000, -37.500000) translate(167.000000, 15.000000)" fill-rule="nonzero" stroke-width="3">
            <path d="M35.588588,27.9937231 C35.2993012,28.6484387 34.9658836,29.2796005 34.5920685,29.8835051 L39.0678755,35.4106665 L30.4646433,42.3774265 L25.8131106,36.633262 C25.1744053,36.8271384 24.518367,36.9816532 23.8478695,37.0939556 L22.2020941,44.2225922 L11.4155336,41.7323185 L12.9721003,34.9900874 C12.2902335,34.5711481 11.6431451,34.1018032 11.0361214,33.5872968 L4.88589394,36.5869631 L0.0329976395,26.6370512 L5.68073932,23.8824636 C5.58474179,23.1864637 5.53514566,22.4758028 5.53514566,21.7536504 C5.53514566,21.4919201 5.54166041,21.2316992 5.55453784,20.9731387 L0.0329976395,18.2801036 L4.88589394,8.33019165 L10.0379721,10.8430281 C10.8383236,10.0359957 11.7267858,9.3152198 12.6878953,8.69604042 L11.4155336,3.18483628 L22.2020941,0.694562579 L23.5101891,6.36054487 C24.6187311,6.52159237 25.6896002,6.79769051 26.7100817,7.17622583 L30.4646433,2.53972827 L39.0678755,9.50648833 L35.0672843,14.446807 C35.4904149,15.23444 35.8472692,16.0624234 36.1304633,16.9234317 L42.7145716,16.9234317 L42.7145716,27.9937231 L35.588588,27.9937231 Z" id="Combined-Shape" stroke="#FC6D26" stroke-linecap="round" stroke-linejoin="round"></path>
            <ellipse id="Oval-9" stroke="#FEE1D3" fill="#FFFFFF" cx="21.9608102" cy="22.4904905" rx="5.98931187" ry="5.94164114"></ellipse>
        </g>
        <g id="Gauge" transform="translate(22.000000, 15.000000)" fill-rule="nonzero">
            <path d="M10.8313848,152 C3.89636384,137.953835 0,122.14127 0,105.419356 C0,47.1978532 47.2339589,0 105.5,0 C163.766041,0 211,47.1978532 211,105.419356 C211,122.14127 207.103636,137.953835 200.168615,152 L10.8313848,152 Z" id="Combined-Shape" stroke="#EEEEEE" stroke-width="4" fill="#FFFFFF"></path>
            <path d="M105,2 L105,9.71763193 M135.398559,6.55738288 L133.142142,13.937791 M163.097725,19.8248349 L158.78208,26.2230417 M185.637811,40.6242036 L179.640085,45.4810668 M201.041948,67.171164 L193.836918,69.9369159 M207.875684,96.9930635 L200.176852,97.5314183 M205.5741,127.494433 L198.05427,125.758344 M4.42590035,127.494433 L11.9457299,125.758344 M2.12431583,96.9930635 L9.823148,97.5314183 M8.95805216,67.171164 L16.1630823,69.9369159 M24.3621885,40.6242036 L30.359915,45.4810668 M46.9022751,19.8248349 L51.2179201,26.2230417 M74.6014406,6.55738288 L76.8578578,13.937791" id="Line-2" stroke="#EEEEEE" stroke-width="2" stroke-linecap="round" stroke-linejoin="round"></path>
            <g id="Needle" transform="translate(25.000000, 89.000000)">
                <path d="M73.5502432,4.86849035 L2.53556703,39.9150857 C2.04030994,40.159501 1.8369625,40.759124 2.08137782,41.2543811 C2.29583155,41.6889272 2.79098567,41.9071825 3.25642429,41.772321 L81.6656969,19.053127 L73.5502432,4.86849035 Z" id="Path-6" fill="#E4E4E4" transform="translate(41.821797, 23.340225) rotate(-355.000000) translate(-41.821797, -23.340225) "></path>
                <ellipse id="Oval-6" stroke="#E4E4E4" stroke-width="3" fill="#FFFFFF" transform="translate(80.077919, 13.099278) rotate(-345.000000) translate(-80.077919, -13.099278) " cx="80.0779186" cy="13.0992784" rx="10.0301384" ry="9.91089597"></ellipse>
            </g>
        </g>
        <g id="Cloud-Icon" transform="translate(88.000000, 43.000000)" fill-rule="nonzero">
            <path d="M64.0172414,49 L13.6206897,49 L13.6223012,48.9834026 C6.03915685,48.6121191 0,42.058273 0,34.0277778 C0,26.171981 5.77925869,19.729285 13.1296398,19.1051133 C12.5657504,17.6010889 12.2586207,15.9805904 12.2586207,14.2916667 C12.2586207,6.39859712 18.9666302,0 27.2413793,0 C32.9325149,0 37.8825365,3.026725 40.4188033,7.48468606 C43.037507,4.56167948 46.8425813,2.72222222 51.0775862,2.72222222 C58.9762103,2.72222222 65.3793103,9.12081934 65.3793103,17.0138889 C65.3793103,17.7237681 65.3275178,18.4215591 65.2275028,19.1036942 C72.936292,19.7194501 79,26.1659845 79,34.0277778 C79,42.2967078 72.2919905,49 64.0172414,49 Z" id="Combined-Shape" stroke="#FEE1D3" stroke-width="4"></path>
            <circle id="Oval-5" fill="#6B4FBB" cx="40" cy="39" r="2"></circle>
            <rect id="Rectangle-10" fill="#6B4FBB" x="38" y="16" width="4" height="18" rx="2"></rect>
        </g>
    </g>
</svg>
