<svg xmlns="http://www.w3.org/2000/svg" id="Layer_1" viewBox="0 0 121.94154 121.84154" width="121.94154" height="121.84154"><style id="style200">.st0{fill:#ECB32D;} .st1{fill:#63C1A0;} .st2{fill:#E01A59;} .st3{fill:#331433;} .st4{fill:#D62027;} .st5{fill:#89D3DF;} .st6{fill:#258B74;} .st7{fill:#819C3C;}</style><path class="st0" d="M79.030355 7.5111801c-1.9-5.7-8-8.8-13.7-7.00000005-5.7 1.90000005-8.8 8.00000005-7 13.69999995l28.1 86.4c1.9 5.3 7.7 8.3 13.2 6.7 5.800005-1.7 9.300005-7.8 7.400005-13.4 0-.2-28.000005-86.3999999-28.000005-86.3999999z" id="path202" fill="#ecb32d"/><path class="st1" d="M35.530355 21.61118c-1.9-5.7-8-8.8-13.7-7-5.7 1.9-8.8 8-7 13.7l28.1 86.4c1.9 5.3 7.7 8.3 13.2 6.7 5.8-1.7 9.3-7.8 7.4-13.4 0-.2-28-86.4-28-86.4z" id="path204" fill="#63c1a0"/><path class="st2" d="M114.43036 79.01118c5.7-1.9 8.8-8 7-13.7-1.9-5.7-8-8.8-13.7-7l-86.500005 28.2c-5.3 1.9-8.3 7.7-6.7 13.2 1.7 5.8 7.8 9.3 13.4 7.4.2 0 86.500005-28.1 86.500005-28.1z" id="path206" fill="#e01a59"/><path class="st3" d="M39.230355 103.51118c5.6-1.8 12.9-4.2 20.7-6.7-1.8-5.6-4.2-12.9-6.7-20.7l-20.7 6.7z" id="path208" fill="#331433"/><path class="st4" d="M82.830355 89.31118c7.8-2.5 15.1-4.9 20.700005-6.7-1.8-5.6-4.200005-12.9-6.700005-20.7l-20.7 6.7z" id="path210" fill="#d62027"/><path class="st5" d="M100.23036 35.51118c5.7-1.9 8.8-8 7-13.7-1.9-5.7-8.000005-8.8-13.700005-7l-86.3999999 28.1c-5.3 1.9-8.3 7.7-6.70000002 13.2 1.70000002 5.8 7.80000002 9.3 13.39999992 7.4.2 0 86.400005-28 86.400005-28z" id="path212" fill="#89d3df"/><path class="st6" d="M25.130355 59.91118c5.6-1.8 12.9-4.2 20.7-6.7-2.5-7.8-4.9-15.1-6.7-20.7l-20.7 6.7z" id="path214" fill="#258b74"/><path class="st7" d="M68.630355 45.81118c7.8-2.5 15.1-4.9 20.7-6.7-2.5-7.8-4.9-15.1-6.7-20.7l-20.7 6.7z" id="path216" fill="#819c3c"/></svg>