<svg xmlns="http://www.w3.org/2000/svg" width="412" height="260" viewBox="0 0 412 260" xmlns:xlink="http://www.w3.org/1999/xlink">
  <defs>
    <path id="a" d="M6.4472136.8944272L12 12H0L5.5527864.8944272c.12349463-.24698926.42383115-.34710143.6708204-.2236068.0967637.04838184.17522494.1268431.2236068.2236068z"/>
  </defs>
  <g fill="none" fill-rule="evenodd">
    <path fill="#FEF0E8" fill-rule="nonzero" d="M338.0002577 50.28672516c-15.30536397-8.836556-34.87625693-3.59255103-43.71281293 11.71281292-8.836556 15.30536396-3.59255104 34.87625692 11.71281292 43.71281292 15.3053639 8.836556 34.8762569 3.59255104 43.7128129-11.71281292 8.836556-15.30536395 3.592551-34.87625692-11.7128129-43.71281292zm2-3.4641016c17.21853444 9.9411255 23.11804002 31.95838007 13.17691452 49.17691452-9.9411255 17.21853445-31.95838008 23.11804004-49.17691453 13.17691454-17.2185345-9.9411255-23.1180401-31.9583801-13.1769146-49.17691454 9.9411255-17.21853445 31.9583801-23.11804003 49.1769145-13.17691453z"/>
    <g transform="rotate(-150 171.003 8.53)">
      <path fill="#FC6D26" fill-rule="nonzero" d="M4 16v25c0 1.1045695.8954305 2 2 2s2-.8954305 2-2V16H4zm8-4v29c0 3.3137085-2.6862915 6-6 6s-6-2.6862915-6-6V12h12z"/>
      <use fill="#D8D8D8" xlink:href="#a"/>
      <path stroke="#FDC4A8" stroke-width="4" d="M6 4.47213595L3.23606798 10h5.52786404L6 4.47213595z"/>
      <path fill="#FC6D26" d="M9.0001331 6.0002662L6.4472136.8944272C6.39883174.7976635 6.3203705.71920223 6.2236068.6708204c-.24698925-.12349463-.54732577-.02338246-.6708204.2236068l-2.5529195 5.105839C3.83555023 6.6280157 4.87433432 7 6 7c1.12566568 0 2.16444977-.37198432 3.0001331-.9997338z"/>
    </g>
    <path fill="#F9F9F9" d="M263.116238 237.116238C261.547147 240.585847 258.055501 243 254 243h-86c-11.045695 0-20-8.954305-20-20V121c0-4.0555013 2.41415348-7.5471469 5.8837619-9.1162381C153.3160392 113.1391225 153 114.5326538 153 116v106c0 8.836556 7.163444 16 16 16h90c1.467346 0 2.860877-.316039 4.116238-.883762z"/>
    <path fill="#EEE" fill-rule="nonzero" d="M214.5 106H163c-5.5228475 0-10 4.4771525-10 10v106c0 8.836556 7.163444 16 16 16h90c5.522847 0 10-4.477153 10-10v-17.999025c-1.031243 1.372577-2.407498 2.471144-4 3.166938V228c0 3.313708-2.686292 6-6 6h-90c-6.627417 0-12-5.372583-12-12V116c0-3.3137085 2.6862915-6 6-6h7v-4h44.5z"/>
    <path fill="#EEE" fill-rule="nonzero" d="M260 218.267564V214h-90c-3.3137085 0-6 2.686292-6 6s2.6862915 6 6 6h86c2.209139 0 4-1.790861 4-4v-.267564c-.294173.17017-.635713.267564-1 .267564h-50c-1.1045695 0-2-.895431-2-2 0-1.104569.8954305-2 2-2h50c.364287 0 .705827.097394 1 .267564zM170 210h90.5c1.932997 0 3.5 1.567003 3.5 3.5v8.5c0 4.418278-3.581722 8-8 8h-86c-5.5228475 0-10-4.477153-10-10s4.4771525-10 10-10z"/>
    <path fill="#EEE" fill-rule="nonzero" d="M174 110v100h87c3.313708 0 6-2.686292 6-6v-88c0-3.3137085-2.686292-6-6-6h-87zm-4-4h91c5.522847 0 10 4.4771525 10 10v88c0 5.522847-4.477153 10-10 10h-91V106z"/>
    <path fill="#EFEDF8" d="M230 99h18c3.313708 0 6 2.6862915 6 6v31.3491852c0 1.6568542-1.343146 3-3 3-.5991 0-1.184478-.1793739-1.680729-.5150154l-9.2759814-6.2738471c-.5016545-.339296-1.1581311-.3436361-1.6642278-.0110026l-9.7313355 6.3959484c-1.3845722.9100141-3.244702.5253087-4.1547161-.8592636C224.1713809 137.596651 224 137.0238661 224 136.4382786V105c0-3.3137085 2.6862915-6 6-6z"/>
    <path fill="#C3B8E3" fill-rule="nonzero" d="M236.1820934 129.206667c1.8556881-1.2196564 4.2627689-1.2037426 6.1021687.0403428L250 134.4655802V105c0-1.1045695-.895431-2-2-2h-18c-1.1045695 0-2 .8954305-2 2v29.5843715l8.1820934-5.3777045zM230 99h18c3.313708 0 6 2.6862915 6 6v31.3491852c0 1.6568542-1.343146 3-3 3-.5991 0-1.184478-.1793739-1.680729-.5150154l-9.2759814-6.2738471c-.5016545-.339296-1.1581311-.3436361-1.6642278-.0110026l-9.7313355 6.3959484c-1.3845722.9100141-3.244702.5253087-4.1547161-.8592636C224.1713809 137.596651 224 137.0238661 224 136.4382786V105c0-3.3137085 2.6862915-6 6-6z"/>
    <g fill-rule="nonzero">
      <path fill="#EFEDF8" d="M156 74c14.9116882 0 27-12.0883118 27-27s-12.0883118-27-27-27-27 12.0883118-27 27 12.0883118 27 27 27zm0 4c-17.1208272 0-31-13.8791728-31-31s13.8791728-31 31-31 31 13.8791728 31 31-13.8791728 31-31 31z"/>
      <path fill="#6B4FBB" d="M147.53530394 44.9159988l-.1167174 1.08622398c-.0868557.8083186-.0567056 1.62787405.09313175 2.43919633l.1996117 1.080836-2.260974 1.2021813c-.2533742.1347214-.3439091.4308362-.212944.6771459l.9409026 1.7695804c.1275168.2398246.4341026.3331051.680456.2021166l2.2498286-1.1962551.7845808.7746097c.5820918.5746941 1.2451135 1.0631843 1.9667394 1.4498663l.9750453.5224764-.4857952 2.4991993c-.0547553.2816917.1183936.5384016.3922311.5916303l1.9673515.3824144c.2666277.0518272.5320608-.1277314.5852989-.4016175l.4888187-2.5147544 1.0858631-.1297077c.403583-.0482085.8056144-.1256244 1.2040836-.2323939.3984691-.1067694.7853463-.240741 1.1589639-.4007827l1.0052389-.4306014 1.6807066 1.9334318c.1882652.2165744.4971566.23817765.7076926.0551616l1.5125691-1.3148564c.20499274-.17819744.22691572-.49790893.043867-.70848234l-1.67031056-1.9214725.5831758-.94000044c.43160524-.6956894.76155387-1.4502451.9783131-2.2389907l.29216213-1.0631221 2.5465362-.088927c.28678912-.01001493.49796963-.23647315.488234-.5152661l-.0699447-2.00295287c-.0094794-.2714526-.24414527-.4896909-.5229878-.4799535l-2.55915165.0893675-.36754903-1.0358373c-.2758983-.7775444-.65956515-1.5023753-1.1389438-2.15897186l-.6441922-.88233883 1.50867446-2.0765121c.1686732-.23215872.12023727-.53799283-.1054484-.70196313l-1.6214106-1.17802372c-.21974367-.1596531-.53619255-.1090948-.70019203.1166311l-1.4939772 2.05628333-1.04976097-.3619254c-.7727582-.2664233-1.5799006-.42032465-2.3979215-.4551328l-1.1001274-.0468122-.6607666-2.4660146c-.0742717-.27718582-.34243123-.4320118-.6118886-.3598109l-1.93588325.51871834c-.26236283.0702999-.42221936.34804435-.3500056.6175497l.6607666 2.46601466-.9293323.5906043c-.6910228.4391552-1.31307784.97600884-1.84909454 1.5931173l-.7281569.83831708-2.3219639-1.03380493c-.26215464-.1167188-.55123514-.00575486-.66469953.2490904l-.8151709 1.8309038c-.11047703.24813547.0047699.5471575.2596605.66064215l2.34480647 1.043975zm-3.56501634 1.69666127c-1.76684922-.7866519-2.56520552-2.85808318-1.780087-4.62148838l.8151709-1.8309038c.78737383-1.7684707 2.8497933-2.5601329 4.62554588-1.7695169l.34603505.1540647c.2587057-.2446148.52877478-.4771693.80942797-.6968561l-.10566937-.3943635c-.50057084-1.8681558.6068117-3.7921893 2.47132597-4.2917844l1.93588323-.5187184c1.86987022-.5010302 3.78302995.6035615 4.28612323 2.4811312l.10566938.3943635c.3528962.0499278.7030601.11629124 1.04941312.1987811l.22264286-.3064416c1.13681026-1.5646851 3.32896343-1.91492064 4.89059868-.7803263l1.6214106 1.17802372c1.5661211 1.1378537 1.9116825 3.3198001.76914363 4.89236986l-.25776258.3547798c.18420346.31200244.35378253.63314843.50813134.96261803l.4190439-.01463337c1.9328791-.06749765 3.5584927 1.4443161 3.6258588 3.37342743l.0699446 2.0029529c.0675595 1.9346529-1.4390889 3.55029945-3.381708 3.6181372l-.3999806.0139676c-.1271502.332155-.2696056.65827234-.4268489.9772605l.2563832.2949351c1.2688557 1.4596515 1.1169875 3.6744058-.3398188 4.94078814l-1.5125691 1.3148563c-1.4609911 1.2700202-3.6647488 1.1158936-4.9399984-.35111324l-.2827647-.3252835c-.1722382.0548649-.3461224.1058282-.521559.1528363-.1754366.04700807-.3515065.0898147-.5281015.1284194l-.0822396.42308607c-.36903554 1.89852312-2.2077851 3.1423883-4.10260755 2.7740722l-1.96735144-.38241447c-1.90026544-.36937415-3.1355809-2.2008487-2.76468567-4.1089387l.0745668-.3836129c-.2956708-.19763015-.58209947-.4088284-.85829227-.63290794l-.3533773.187894c-1.7076712.90798487-3.8314986.26179776-4.7377135-1.4425447l-.9409026-1.7695804c-.90881813-1.70923834-.26290424-3.8218429 1.45337206-4.73440324l.3702194-.1968491c-.0310647-.3625035-.044778-.7254136-.04125437-1.08771736l-.4006188-.17836706zm13.3260719 5.6083092c-2.93406363.78617997-5.9499168-.95502367-6.73609678-3.8890873-.78617996-2.93406355.95502366-5.94991682 3.8890873-6.7360968 2.93406354-.78617996 5.94991683.95502375 6.7360968 3.8890873.78617997 2.93406364-.95502376 5.94991683-3.8890873 6.7360968zm-.77645712-2.8977775c1.3336652-.3573545 2.1251215-1.7281969 1.76776695-3.06186217-.3573545-1.33366518-1.728197-2.12512146-3.06186218-1.76776695-1.33366528.35735453-2.12512146 1.728197-1.76776695 3.06186218.35735454 1.33366528 1.7281969 2.1251215 3.06186218 1.76776695z"/>
    </g>
    <g fill-rule="nonzero">
      <path fill="#EFEDF8" d="M326.97890303 222.04703003c14.40358475 3.8594289 29.20868263-4.68829835 33.06811153-19.0918831 3.8594289-14.40358474-4.68829835-29.20868262-19.0918831-33.06811152-14.40358474-3.8594289-29.20868262 4.6882984-33.06811152 19.0918831-3.8594289 14.4035848 4.68829834 29.2086827 19.0918831 33.0681116zm-1.03527618 3.8637033c-16.53744916-4.43119614-26.35150636-21.42964185-21.92031022-37.967091 4.43119615-16.53744917 21.42964186-26.35150637 37.96709102-21.92031022 16.53744916 4.4311962 26.35150636 21.4296419 21.9203102 37.9670911-4.43119613 16.5374492-21.42964184 26.3515064-37.967091 21.9203102z"/>
      <path fill="#6B4FBB" d="M329.3759194 201.598463c-4.66780743-2.62160696-7.15523825-8.15794684-5.70591684-13.56688795 1.71530174-6.40159324 8.2953452-10.20058312 14.69693845-8.48528138 6.4015933 1.71530174 10.2005832 8.29534522 8.4852814 14.69693846-1.4493214 5.40894112-6.3716696 8.95983668-11.7249129 8.8963112-.0169864.1216973-.041629.2436914-.0742481.3654273l-1.8117333 6.7614808c-.4288254 1.60039826-2.0738363 2.55014576-3.6742346 2.12132034-1.6003982-.42882542-2.5501457-2.07383635-2.1213203-3.67423462l1.8117333-6.76148078c.0326191-.12173592.072275-.23970718.118413-.35359338zm3.8146407-2.7336528c4.26772884 1.1435345 8.6544245-1.38912542 9.79795898-5.65685425 1.1435345-4.26772883-1.38912542-8.65442448-5.65685425-9.79795897-4.26772882-1.1435345-8.65442447 1.38912542-9.79795897 5.65685425-1.1435345 4.26772883 1.38912542 8.65442448 5.65685425 9.79795897z"/>
    </g>
    <path fill="#FEF0E8" fill-rule="nonzero" d="M91.37310344 193.00047822c17.07091532-4.57413797 27.20155497-22.12092057 22.627417-39.19183588-4.57413797-17.0709153-22.12092057-27.20155497-39.19183588-22.627417-17.0709153 4.57413797-27.20155497 22.12092057-22.627417 39.1918359 4.57413797 17.0709153 22.12092057 27.20155495 39.19183588 22.62741698zm1.03527618 3.8637033c-19.20477972 5.14590523-38.94491015-6.2510644-44.09081537-25.4558441-5.1459052-19.20477974 6.2510644-38.94491017 25.45584413-44.09081538 19.20477972-5.14590522 38.94491015 6.2510644 44.09081537 25.45584412 5.14590522 19.20477972-6.2510644 38.94491015-25.45584413 44.09081537z"/>
    <path fill="#FDC4A8" fill-rule="nonzero" d="M70.06698815 152.1220065l6.72929517 25.11407147 19.31851653-5.1763809-6.72929517-25.11407148-19.31851653 5.1763809zm-1.03527618-3.8637033l19.31851653-5.17638092c2.1338644-.57176724 4.32721224.6945627 4.89897948 2.82842713l6.72929518 25.1140715c.57176724 2.1338644-.69456272 4.3272123-2.82842713 4.8989795l-19.31851652 5.1763809c-2.1338644.5717673-4.3272122-.6945627-4.8989794-2.8284271l-6.7292951-25.1140715c-.5717672-2.1338644.6945627-4.3272122 2.8284271-4.8989794z"/>
    <path fill="#FC6D26" d="M76.8978193 154.43279553l7.7274066-2.07055237c1.0669322-.28588362 2.16360612.34728136 2.44948974 1.41421357.28588363 1.0669322-.34728135 2.16360612-1.41421356 2.44948974l-7.7274066 2.07055236c-1.06693222.28588362-2.16360613-.34728135-2.44948975-1.41421356-.28588363-1.0669322.34728135-2.16360612 1.41421356-2.44948974zm1.8117333 6.76148078l5.79555496-1.5529142c1.0669322-.2858836 2.16360612.3472814 2.44948975 1.4142136.2858837 1.0669322-.3472813 2.1636062-1.4142135 2.4494898l-5.7955549 1.5529143c-1.0669322.2858837-2.1636061-.3472813-2.4494897-1.4142135s.3472814-2.1636061 1.4142136-2.4494897zm1.81173332 6.7614808l7.7274066-2.0705523c1.06693222-.2858836 2.16360613.3472814 2.44948975 1.4142136.28588363 1.0669322-.34728135 2.1636061-1.41421356 2.4494898l-7.7274066 2.0705524c-1.0669322.2858837-2.1636061-.3472813-2.4494897-1.4142135s.3472814-2.1636061 1.4142136-2.4494897z"/>
  </g>
</svg>
