<svg height="247" viewBox="0 0 414 247" width="414" xmlns="http://www.w3.org/2000/svg"><g fill="none" fill-rule="evenodd" transform="translate(-5)"><g transform="translate(79.891589)"><path d="m0 19.6585898c0-5.5223189 4.48292473-9.99904288 10.00923-9.99904288h241.430293c5.527945 0 10.00923 4.47263588 10.00923 9.99904288v217.1088872c0 5.522319-4.482924 9.999043-10.00923 9.999043h-241.430293c-5.52794509 0-10.00923-4.472636-10.00923-9.999043z" fill="#f9f9f9"/><g fill-rule="nonzero"><path d="m260.994373 12v217.106973c0 5.522847-4.477152 10-10 10h-233.3348261c-5.5228475 0-9.99999998-4.477153-9.99999998-10v-217.106973c0-5.5228475 4.47715248-10 9.99999998-10h233.3348261c5.522848 0 10 4.4771525 10 10z" fill="#fff"/><path d="m258.994373 12c0-4.418278-3.581722-8-8-8h-233.3348261c-4.418278 0-7.99999998 3.581722-7.99999998 8v217.106973c0 4.418278 3.58172198 8 7.99999998 8h233.3348261c4.418278 0 8-3.581722 8-8zm4 0v217.106973c0 6.627417-5.372583 12-12 12h-233.3348261c-6.627417 0-11.99999998-5.372583-11.99999998-12v-217.106973c0-6.627417 5.37258298-12 11.99999998-12h233.3348261c6.627417 0 12 5.372583 12 12z" fill="#eee"/></g></g><g transform="matrix(.96592583 -.25881905 .25881905 .96592583 .590817 124.869411)"><circle cx="19.879581" cy="20.65825" fill="#fef0e8" r="19.38327"/><path d="m22.0879119 35.7665393c9.04823 0 16.3832697-7.3350397 16.3832697-16.3832697 0-9.0482299-7.3350397-16.3832696-16.3832697-16.3832696s-16.38326962 7.3350397-16.38326962 16.3832696c0 9.04823 7.33503962 16.3832697 16.38326962 16.3832697zm0 3c-10.7050842 0-19.38326962-8.6781854-19.38326962-19.3832697 0-10.70508418 8.67818542-19.3832696 19.38326962-19.3832696s19.3832697 8.67818542 19.3832697 19.3832696c0 10.7050843-8.6781855 19.3832697-19.3832697 19.3832697z" fill="#fdc4a8" fill-rule="nonzero"/><path d="m20.0870329 12.0992554c.0434928-1.2454717 1.0785543-2.22021211 2.3312463-2.17646714 1.244019.0434421 2.2171931 1.08959074 2.1737448 2.33378484l-.2829882 8.1037232c-.0434928 1.2454717-1.0785543 2.2202121-2.3312463 2.1764671-1.244019-.0434421-2.2171931-1.0895907-2.1737448-2.3337848zm1.6705117 16.7444956c-1.2440189-.0434421-2.2172788-1.0871355-2.1738367-2.3311544.0434421-1.244019 1.0871355-2.2172788 2.3311545-2.1738367 1.2440189.0434421 2.2172788 1.0871355 2.1738367 2.3311544-.0434421 1.244019-1.0871355 2.2172788-2.3311545 2.1738367z" fill="#fc6d26"/></g><g transform="translate(361.958014 88.332181)"><g transform="matrix(.96592583 .25881905 -.25881905 .96592583 14.10389 .347557)"><circle cx="25.06874" cy="26.5" fill="#f4f2fa" r="24.5"/><path d="m25.0744688 45.1374808c11.635944 0 21.0687404-9.4327964 21.0687404-21.0687404s-9.4327964-21.0687404-21.0687404-21.0687404c-11.6359441 0-21.06874043 9.4327964-21.06874043 21.0687404s9.43279633 21.0687404 21.06874043 21.0687404zm0 3c-13.2927983 0-24.06874043-10.7759421-24.06874043-24.0687404s10.77594213-24.0687404 24.06874043-24.0687404c13.2927982 0 24.0687404 10.7759421 24.0687404 24.0687404s-10.7759422 24.0687404-24.0687404 24.0687404z" fill="#b5a7dd" fill-rule="nonzero"/></g><path d="m33.6469487 35.8533137c-4.2351625 1.4535468-9.0306945-.2917314-11.2769991-4.3441722-2.520005-4.5462093-.8774418-10.2745078 3.6687675-12.7945128s10.2745079-.8774418 12.7945128 3.6687675c2.2463027 4.0524373 1.1851415 9.0441307-2.2918232 11.8654909.0267447.0398044.0520268.0811049.075732.1238702l2.9523792 5.3262332c.4447255.802306.1604699 1.8101092-.6473956 2.2579163-.8022723.4447068-1.8106834.1592899-2.2578891-.6474906l-2.9523793-5.3262332c-.0236939-.0427451-.0453187-.0860734-.0649052-.1298693zm.4438966-2.6122612c3.4765131-1.9270626 4.7325908-6.3075262 2.8055281-9.7840392-1.9270626-3.476513-6.3075262-4.7325907-9.7840392-2.8055281s-4.7325907 6.3075262-2.8055281 9.7840392 6.3075262 4.7325908 9.7840392 2.8055281z" fill="#6b4fbb" fill-rule="nonzero"/></g><g transform="translate(58 51)"><g fill="#fee8dc"><path d="m196.490091 8.29215822-2.038544-1.29639516c-.933082-.5933861-.934304-1.55539494.001717-2.15153839l2.040615-1.29964963 1.299649-2.04061479c.594876-.93403038 1.556888-.93678736 2.151539-.00171656l1.296395 2.03854359 2.038543 1.29639515c.933083.5933861.934305 1.55539494-.001716 2.1515384l-2.040615 1.29964962-1.29965 2.04061475c-.594875.9340304-1.556887.9367874-2.151538.0017166z"/><path d="m201.799616 37.3502557-2.628062-1.6712945c-1.120691-.7126944-1.130313-1.8629346.002062-2.5841343l2.630732-1.6754901 1.67549-2.630732c.714483-1.1218298 1.871771-1.1222314 2.584134-.0020617l1.671294 2.6280619 2.628062 1.6712945c1.120691.7126943 1.130314 1.8629345-.002061 2.5841342l-2.630732 1.6754901-1.675491 2.6307321c-.714483 1.1218297-1.871771 1.1222314-2.584134.0020617z"/><path d="m225.219279 63.5139027-2.628062-1.6712945c-1.120691-.7126943-1.130313-1.8629345.002062-2.5841342l2.630732-1.6754901 1.67549-2.6307321c.714483-1.1218297 1.871771-1.1222314 2.584134-.0020617l1.671295 2.6280619 2.628062 1.6712945c1.120691.7126944 1.130313 1.8629346-.002062 2.5841342l-2.630732 1.6754902-1.67549 2.630732c-.714484 1.1218298-1.871772 1.1222314-2.584135.0020617z"/><path d="m260.348774 80.6556025-2.628062-1.6712945c-1.120691-.7126943-1.130313-1.8629345.002062-2.5841342l2.630732-1.6754901 1.67549-2.630732c.714483-1.1218298 1.871771-1.1222315 2.584134-.0020617l1.671295 2.6280618 2.628061 1.6712945c1.120692.7126944 1.130314 1.8629346-.002061 2.5841343l-2.630732 1.6754901-1.67549 2.630732c-.714484 1.1218298-1.871772 1.1222314-2.584135.0020617z"/><path d="m293.676756 84.2643815-2.628062-1.6712945c-1.120691-.7126944-1.130313-1.8629346.002062-2.5841343l2.630732-1.6754901 1.67549-2.630732c.714484-1.1218298 1.871772-1.1222314 2.584134-.0020617l1.671295 2.6280618 2.628062 1.6712946c1.120691.7126943 1.130313 1.8629345-.002062 2.5841342l-2.630732 1.6754901-1.67549 2.630732c-.714484 1.1218298-1.871772 1.1222315-2.584134.0020617z"/></g><path d="m50.3828589 132.850849 5.1368128 2.01868-4.0097851 3.804174-2.0250762 5.142876-3.7959721-4.006559-5.1368128-2.01868 4.0097851-3.804174 2.0250763-5.142876z" fill="#e1dcf1"/><path d="m118.280858 111.803873 4.109451 1.614944-3.207828 3.043339-1.620061 4.114301-3.036778-3.205247-4.10945-1.614944 3.207828-3.043339 1.620061-4.114301z" fill="#d2caea"/><path d="m10.7495826 109.393786 5.1368129 2.01868-4.0097851 3.804174-2.0250763 5.142876-3.79597201-4.006559-5.13681284-2.01868 4.0097851-3.804174 2.02507627-5.142876z" fill="#e1dcf1"/><path d="m89.1153789 135.557433 5.1368128 2.01868-4.0097851 3.804174-2.0250763 5.142876-3.795972-4.006559-5.1368128-2.01868 4.0097851-3.804174 2.0250763-5.142876z" fill="#d2caea"/></g><g fill-rule="nonzero" transform="translate(106 26)"><path d="m6.4131717 18.6267123h58.6429174c3.2271776 0 5.8433219 2.6161444 5.8433219 5.8433219 0 3.2271776-2.6161443 5.843322-5.8433219 5.843322h-58.6429174c-3.22717759 0-5.84332192-2.6161444-5.84332192-5.843322 0-3.2271775 2.61614433-5.8433219 5.84332192-5.8433219z" fill="#efedf8"/><path d="m6.4131717 35.7071918h58.6429174c3.2271776 0 5.8433219 2.6161443 5.8433219 5.8433219s-2.6161443 5.8433219-5.8433219 5.8433219h-58.6429174c-3.22717759 0-5.84332192-2.6161443-5.84332192-5.8433219s2.61614433-5.8433219 5.84332192-5.8433219z" fill="#fc6d26"/><path d="m127.235751 123.806507h28.888103c3.227178 0 5.843322 2.616144 5.843322 5.843322 0 3.227177-2.616144 5.843322-5.843322 5.843322h-28.888103c-3.227177 0-5.843322-2.616145-5.843322-5.843322 0-3.227178 2.616145-5.843322 5.843322-5.843322z" fill="#fc6d26"/><path d="m54.2012069 53.6866438h24.3797978c3.2271776 0 5.8433219 2.6161444 5.8433219 5.843322 0 3.2271775-2.6161443 5.8433219-5.8433219 5.8433219h-24.3797978c-3.2271776 0-5.8433219-2.6161444-5.8433219-5.8433219 0-3.2271776 2.6161443-5.843322 5.8433219-5.843322z" fill="#fdc4a8"/><path d="m141.662328 140.886986h14.461526c3.227178 0 5.843322 2.616145 5.843322 5.843322 0 3.227178-2.616144 5.843322-5.843322 5.843322h-14.461526c-3.227178 0-5.843322-2.616144-5.843322-5.843322 0-3.227177 2.616144-5.843322 5.843322-5.843322z" fill="#fdc4a8"/><path d="m74.9394109 88.7465753h64.9545451c3.227177 0 5.843321 2.6161444 5.843321 5.843322 0 3.2271775-2.616144 5.8433217-5.843321 5.8433217h-64.9545451c-3.2271776 0-5.843322-2.6161442-5.843322-5.8433217 0-3.2271776 2.6161444-5.843322 5.843322-5.843322z" fill="#efedf8"/><g fill="#6b4fbb"><path d="m6.4131717.64726027h192.0887513c3.227178 0 5.843322 2.61614434 5.843322 5.84332192 0 3.22717759-2.616144 5.84332191-5.843322 5.84332191h-192.0887513c-3.22717759 0-5.84332192-2.61614432-5.84332192-5.84332191 0-3.22717758 2.61614433-5.84332192 5.84332192-5.84332192z"/><path d="m174.122125 175.946918h37.904714c3.227177 0 5.843322 2.616144 5.843322 5.843322 0 3.227177-2.616145 5.843322-5.843322 5.843322h-37.904714c-3.227177 0-5.843321-2.616145-5.843321-5.843322 0-3.227178 2.616144-5.843322 5.843321-5.843322z"/><path d="m74.9394109 105.827055h81.1844431c3.227178 0 5.843322 2.616144 5.843322 5.843322 0 3.227177-2.616144 5.843322-5.843322 5.843322h-81.1844431c-3.2271776 0-5.843322-2.616145-5.843322-5.843322 0-3.227178 2.6161444-5.843322 5.843322-5.843322z"/></g><path d="m68.6277836 70.7671233h10.8548822c3.2271776 0 5.8433219 2.6161443 5.8433219 5.8433219s-2.6161443 5.8433219-5.8433219 5.8433219h-10.8548822c-3.2271776 0-5.8433219-2.6161443-5.8433219-5.8433219s2.6161443-5.8433219 5.8433219-5.8433219z" fill="#fef0e8"/><path d="m153.383921 158.866438h58.642918c3.227177 0 5.843322 2.616145 5.843322 5.843322 0 3.227178-2.616145 5.843322-5.843322 5.843322h-58.642918c-3.227177 0-5.843321-2.616144-5.843321-5.843322 0-3.227177 2.616144-5.843322 5.843321-5.843322z" fill="#fef0e8"/></g></g></svg>