<svg xmlns="http://www.w3.org/2000/svg" width="80" height="80" viewBox="0 0 80 80">
  <g fill="none" fill-rule="evenodd">
    <path fill="#F9F9F9" d="M10 71.0923379c.3127789.1105515.6493646.1707057 1 .1707057.952135 0 1.8477394-.4519772 2.4133339-1.2179171L22.3078402 58H66c3.3137085 0 6-2.6862915 6-6V19.527787C73.2274987 20.6264281 74 22.2230004 74 24v33c0 3.3137085-2.6862915 6-6 6H24.3078402l-8.8945063 12.0451265C14.8477394 75.8110664 13.952135 76.2630436 13 76.2630436c-1.6568542 0-3-1.3431457-3-3v-2.1707057z"/>
    <path fill="#EEE" fill-rule="nonzero" d="M20.698951 56.8119447C21.076014 56.3013181 21.6730836 56 22.3078402 56H66c2.209139 0 4-1.790861 4-4V19c0-2.209139-1.790861-4-4-4H14c-2.209139 0-4 1.790861-4 4v49.2630436c0 .5522848.4477153 1 1 1 .3173783 0 .6159131-.150659.8044446-.4059723l8.8945064-12.0451266zM23.3171636 60l-8.2949404 11.2331818C14.0795657 72.5097483 12.5868917 73.2630436 11 73.2630436c-2.76142375 0-5-2.2385762-5-5V19c0-4.418278 3.581722-8 8-8h52c4.418278 0 8 3.581722 8 8v33c0 4.418278-3.581722 8-8 8H23.3171636z"/>
    <rect width="26" height="4" x="27" y="26" fill="#6B4FBB" rx="2"/>
    <rect width="26" height="4" x="27" y="34" fill="#C3B8E3" rx="2"/>
    <rect width="26" height="4" x="27" y="42" fill="#E1DBF1" rx="2"/>
  </g>
</svg>
