<svg xmlns="http://www.w3.org/2000/svg" width="80" height="80" viewBox="0 0 80 80">
  <g fill="none" fill-rule="evenodd">
    <path fill="#F9F9F9" d="M31.5258862 21.7738454c.1517348.3803359.2662698.7810518.3388013 1.1981076L31.8695652 23h-.1304348l-.2132442-1.2261546zM69 30.6822049c.6318473.9503063 1 2.0910574 1 3.3177951v6.0795536c2.8600173 5.4813484 2.8671624 12.0280582 1e-7 17.4108921L70 60.7573593l7.254834 7.254834c1.1715729 1.1715729 1.1715729 3.0710678 0 4.2426407l-1.4142136 1.4142136c-1.1715728 1.1715728-3.0710678 1.1715728-4.2426407 0l-4.518523-4.5185231C66.1792197 69.6899278 65.1258205 70 64 70H12c-3.3137085 0-6-2.6862915-6-6v-1.6822049C7.07492154 63.9344907 8.91302925 65 11 65h52c3.3137085 0 6-2.6862915 6-6V30.6822049z"/>
    <path fill="#EEE" fill-rule="nonzero" d="M31.7391304 25c-.9723559 0-1.8038189-.6993412-1.9704235-1.6573177l-.8744429-5.028047C28.5610547 16.3986823 26.8981288 15 24.9534169 15H11c-2.209139 0-4 1.790861-4 4v40c0 2.209139 1.790861 4 4 4h52c2.209139 0 4-1.790861 4-4V29c0-2.209139-1.790861-4-4-4H31.7391304zm1.6821944-4H63c4.418278 0 8 3.581722 8 8v30c0 4.418278-3.581722 8-8 8H11c-4.418278 0-8-3.581722-8-8V19c0-4.418278 3.581722-8 8-8h13.9534169c3.8894237 0 7.2152757 2.7973647 7.8816941 6.6292706L33.4213248 21z"/>
    <path fill="#E1DBF1" d="M60.99114922 56.82002906l1.41421356-1.41421356c1.17157284-1.17157284 3.07106785-1.17157284 4.24264069 0l9.89949493 9.89949494c1.17157284 1.17157284 1.17157284 3.07106784 0 4.24264068l-1.41421356 1.41421357c-1.17157284 1.17157284-3.07106785 1.17157284-4.24264069 0l-9.89949493-9.89949494c-1.17157284-1.17157284-1.17157284-3.07106785 0-4.24264069z"/>
    <path fill="#6B4FBB" fill-rule="nonzero" d="M66.29445008 59.2949028c-7.2246994 7.2246994-18.9382515 7.22469941-26.1629509 0-7.2246994-7.2246994-7.2246994-18.93825151 0-26.1629509 7.2246994-7.22469942 18.9382515-7.2246994 26.1629509 0 7.22469941 7.22469941 7.22469941 18.93825148 0 26.1629509zm-4.94974747-4.94974747c4.49102934-4.49102934 4.49102934-11.77242663 0-16.26345597-4.49102934-4.49102934-11.77242663-4.49102934-16.26345597 0-4.49102934 4.49102934-4.49102934 11.77242663 0 16.26345597 4.49102934 4.49102934 11.77242663 4.49102934 16.26345597 0z"/>
  </g>
</svg>
