<svg xmlns="http://www.w3.org/2000/svg" width="80" height="80" viewBox="0 0 80 80">
  <g fill="none" fill-rule="evenodd" transform="translate(-7)">
    <path fill="#EEE" fill-rule="nonzero" d="M30,12 C28.8954305,12 28,11.1045695 28,10 C28,8.8954305 28.8954305,8 30,8 L33,8 C34.1045695,8 35,8.8954305 35,10 C35,11.1045695 34.1045695,12 33,12 L30,12 Z M41,12 C39.8954305,12 39,11.1045695 39,10 C39,8.8954305 39.8954305,8 41,8 L44,8 C45.1045695,8 46,8.8954305 46,10 C46,11.1045695 45.1045695,12 44,12 L41,12 Z M52,12 C50.8954305,12 50,11.1045695 50,10 C50,8.8954305 50.8954305,8 52,8 L55,8 C56.1045695,8 57,8.8954305 57,10 C57,11.1045695 56.1045695,12 55,12 L52,12 Z M63,12 C61.8954305,12 61,11.1045695 61,10 C61,8.8954305 61.8954305,8 63,8 L66,8 C67.1045695,8 68,8.8954305 68,10 C68,11.1045695 67.1045695,12 66,12 L63,12 Z M74,12 C72.8954305,12 72,11.1045695 72,10 C72,8.8954305 72.8954305,8 74,8 C75.5763383,8 77.0612214,8.61322518 78.1716289,9.68751193 C78.9654825,10.455542 78.9864166,11.7216989 78.2183865,12.5155525 C77.4503564,13.3094062 76.1841995,13.3303402 75.3903459,12.5623101 C75.0186282,12.2026841 74.5278423,12 74,12 Z M76,18.8770651 C76,17.7724956 76.8954305,16.8770651 78,16.8770651 C79.1045695,16.8770651 80,17.7724956 80,18.8770651 L80,21.8770651 C80,22.9816346 79.1045695,23.8770651 78,23.8770651 C76.8954305,23.8770651 76,22.9816346 76,21.8770651 L76,18.8770651 Z M76,29.8770651 C76,28.7724956 76.8954305,27.8770651 78,27.8770651 C79.1045695,27.8770651 80,28.7724956 80,29.8770651 L80,32.8770651 C80,33.9816346 79.1045695,34.8770651 78,34.8770651 C76.8954305,34.8770651 76,33.9816346 76,32.8770651 L76,29.8770651 Z M76,40.8770651 C76,39.7724956 76.8954305,38.8770651 78,38.8770651 C79.1045695,38.8770651 80,39.7724956 80,40.8770651 L80,43.8770651 C80,44.9816346 79.1045695,45.8770651 78,45.8770651 C76.8954305,45.8770651 76,44.9816346 76,43.8770651 L76,40.8770651 Z M76,51.8770651 C76,50.7724956 76.8954305,49.8770651 78,49.8770651 C79.1045695,49.8770651 80,50.7724956 80,51.8770651 L80,54.8770651 C80,55.9816346 79.1045695,56.8770651 78,56.8770651 C76.8954305,56.8770651 76,55.9816346 76,54.8770651 L76,51.8770651 Z M74.6521714,59.8918326 C75.6964755,59.5319678 76.8347794,60.0868154 77.1946442,61.1311195 C77.5545091,62.1754236 76.9996614,63.3137275 75.9553573,63.6735923 C75.3663527,63.876562 74.746604,63.9870111 74.077642,63.9992763 L72.2466601,63.9999998 C71.1420907,64.0004363 70.2463065,63.1053597 70.24587,62.0007903 C70.2454335,60.8962209 71.1405101,60.0004366 72.2450795,60.0000002 L74.0391715,59.9996315 C74.2517326,59.9956261 74.457265,59.958997 74.6521714,59.8918326 Z M64.2458698,60 C65.3504393,60 66.2458698,60.8954305 66.2458698,62 C66.2458698,63.1045695 65.3504393,64 64.2458698,64 L61.2458698,64 C60.1413003,64 59.2458698,63.1045695 59.2458698,62 C59.2458698,60.8954305 60.1413003,60 61.2458698,60 L64.2458698,60 Z M53.2458698,60 C54.3504393,60 55.2458698,60.8954305 55.2458698,62 C55.2458698,63.1045695 54.3504393,64 53.2458698,64 L50.2458698,64 C49.1413003,64 48.2458698,63.1045695 48.2458698,62 C48.2458698,60.8954305 49.1413003,60 50.2458698,60 L53.2458698,60 Z M28,32.3688048 C28,33.4733743 27.1045695,34.3688048 26,34.3688048 C24.8954305,34.3688048 24,33.4733743 24,32.3688048 L24,29.3688048 C24,28.2642353 24.8954305,27.3688048 26,27.3688048 C27.1045695,27.3688048 28,28.2642353 28,29.3688048 L28,32.3688048 Z M28,21.3688048 C28,22.4733743 27.1045695,23.3688048 26,23.3688048 C24.8954305,23.3688048 24,22.4733743 24,21.3688048 L24,18.3688048 C24,17.2642353 24.8954305,16.3688048 26,16.3688048 C27.1045695,16.3688048 28,17.2642353 28,18.3688048 L28,21.3688048 Z"/>
    <g transform="rotate(30 -5.276 61.414)">
      <path fill="#E1DBF1" fill-rule="nonzero" d="M31.0209728,27.175818 L29.288922,24.175818 L33.6543167,16.6147326 C35.6633445,13.1349944 36.1093695,10.0427733 35.4634857,7.32960191 C35.2417169,6.3980153 34.9037682,5.57946547 34.5017139,4.88385091 C34.2710331,4.48473829 34.0830463,4.22869628 33.9939074,4.12765703 L25.8514905,18.2220119 L24.1158636,15.215818 L31.4951802,2.43446669 C32.6595765,0.417673107 35.0962745,0.306136255 36.3375363,2.25361184 C36.5432638,2.5043791 36.809746,2.88203024 37.0990767,3.382616 C37.640897,4.32004671 38.089601,5.40685831 38.3819308,6.63485165 C39.2049003,10.0919087 38.6455757,13.9696185 36.2523929,18.1147326 L31.0209728,27.175818 Z M24.1158636,39.135818 L20.5504008,45.3113807 L10.192737,39.3313807 L17.2107544,27.175818 L18.9442447,30.1783111 L14.2908132,38.2333045 L19.4523246,41.2133045 L22.3838128,36.135818 L24.1158636,39.135818 Z"/>
      <path fill="#6B4FBB" d="M12.7615689,55.8020333 C7.81309755,55.8020333 3.80156891,51.7905047 3.80156891,46.8420333 C3.80156891,41.8935619 7.81309755,37.8820333 12.7615689,37.8820333 C17.7100403,37.8820333 21.7215689,41.8935619 21.7215689,46.8420333 C21.7215689,51.7905047 17.7100403,55.8020333 12.7615689,55.8020333 Z M12.7615689,51.3220333 C15.2358046,51.3220333 17.2415689,49.316269 17.2415689,46.8420333 C17.2415689,44.3677976 15.2358046,42.3620333 12.7615689,42.3620333 C10.2873332,42.3620333 8.28156891,44.3677976 8.28156891,46.8420333 C8.28156891,49.316269 10.2873332,51.3220333 12.7615689,51.3220333 Z" transform="rotate(30 12.762 46.842)"/>
      <path fill="#E1DBF1" fill-rule="nonzero" d="M33.940914,38.2333045 L14.2378198,4.12765703 C14.148681,4.22869628 13.9606942,4.48473829 13.7300134,4.88385091 C13.3279591,5.57946547 12.9900104,6.3980153 12.7682416,7.32960191 C12.1223577,10.0427733 12.5683827,13.1349944 14.5774105,16.6147326 L28.7794026,41.2133045 L33.940914,38.2333045 Z M11.1326505,3.382616 C11.4219812,2.88203024 11.6884634,2.5043791 11.894191,2.25361184 C13.1354527,0.306136255 15.5721507,0.417673107 16.736547,2.43446669 L38.0389903,39.3313807 L27.6813264,45.3113807 L11.9793343,18.1147326 C9.58615159,13.9696185 9.02682693,10.0919087 9.84979642,6.63485165 C10.1421263,5.40685831 10.5908303,4.32004671 11.1326505,3.382616 Z"/>
      <circle cx="24.39" cy="27.383" r="2.24" fill="#6B4FBB" transform="scale(-1 1) rotate(30 0 -63.642)"/>
      <path fill="#6B4FBB" d="M39.9501583,54.6016209 C35.6646564,57.0758566 30.1848064,55.6075352 27.7105707,51.3220333 C25.236335,47.0365314 26.7046564,41.5566814 30.9901583,39.0824457 C35.2756603,36.60821 40.7555103,38.0765314 43.229746,42.3620333 C45.7039816,46.6475352 44.2356603,52.1273852 39.9501583,54.6016209 Z M37.7101583,50.7218271 C39.8529093,49.4847093 40.58707,46.7447842 39.3499522,44.6020333 C38.1128343,42.4592823 35.3729093,41.7251216 33.2301583,42.9622395 C31.0874074,44.1993573 30.3532467,46.9392823 31.5903645,49.0820333 C32.8274824,51.2247842 35.5674074,51.9589449 37.7101583,50.7218271 Z"/>
    </g>
  </g>
</svg>
