<?xml version="1.0" encoding="UTF-8" standalone="no"?>
<!-- Created with Inkscape (http://www.inkscape.org/) -->

<svg
   xmlns:dc="http://purl.org/dc/elements/1.1/"
   xmlns:cc="http://creativecommons.org/ns#"
   xmlns:rdf="http://www.w3.org/1999/02/22-rdf-syntax-ns#"
   xmlns:svg="http://www.w3.org/2000/svg"
   xmlns="http://www.w3.org/2000/svg"
   xmlns:sodipodi="http://sodipodi.sourceforge.net/DTD/sodipodi-0.dtd"
   xmlns:inkscape="http://www.inkscape.org/namespaces/inkscape"
   width="512"
   height="512"
   viewBox="0 0 512 512"
   version="1.1"
   id="svg8"
   inkscape:version="0.92.2 (5c3e80d, 2017-08-06)"
   sodipodi:docname="lock-repo.svg">
  <defs
     id="defs2" />
  <sodipodi:namedview
     id="base"
     pagecolor="#ffffff"
     bordercolor="#666666"
     borderopacity="1.0"
     inkscape:pageopacity="0.0"
     inkscape:pageshadow="2"
     inkscape:zoom="1.4"
     inkscape:cx="158.34694"
     inkscape:cy="283.76162"
     inkscape:document-units="px"
     inkscape:current-layer="layer1"
     showgrid="false"
     units="px"
     inkscape:window-width="1366"
     inkscape:window-height="705"
     inkscape:window-x="-8"
     inkscape:window-y="-8"
     inkscape:window-maximized="1" />
  <metadata
     id="metadata5">
    <rdf:RDF>
      <cc:Work
         rdf:about="">
        <dc:format>image/svg+xml</dc:format>
        <dc:type
           rdf:resource="http://purl.org/dc/dcmitype/StillImage" />
        <dc:title></dc:title>
      </cc:Work>
    </rdf:RDF>
  </metadata>
  <g
     inkscape:label="Camada 1"
     inkscape:groupmode="layer"
     id="layer1"
     transform="translate(0,-161.53331)">
    <path
       style="opacity:1;fill:#000000;fill-opacity:1;fill-rule:nonzero;stroke:#00e400;stroke-width:0;stroke-linejoin:round;stroke-miterlimit:4;stroke-dasharray:none;stroke-opacity:1;paint-order:fill markers stroke"
       d="m 253.54883,45.248047 c -83.71351,0 -142.43164,72.467493 -142.43164,169.261723 0,2.19962 0.0441,4.38641 0.10937,6.5664 h -10.21094 c -13.430984,0 -24.244136,10.81315 -24.244136,24.24414 v 191.92774 c 0,13.43099 10.813152,24.24414 24.244136,24.24414 h 307.08594 c 13.43099,0 24.24414,-10.81315 24.24414,-24.24414 V 245.32031 c 0,-13.43099 -10.81315,-24.24414 -24.24414,-24.24414 h -12.23047 c 0.0653,-2.17999 0.10938,-4.36678 0.10938,-6.5664 0,-96.79424 -58.71813,-169.261733 -142.43164,-169.261723 z m -0.50586,41.478515 a 90.408653,115.15739 0 0 1 90.4082,115.156248 90.408653,115.15739 0 0 1 -1.36523,19.19336 H 163.91406 a 90.408653,115.15739 0 0 1 -1.27929,-19.19336 90.408653,115.15739 0 0 1 90.4082,-115.156248 z"
       transform="translate(0,161.53331)"
       id="rect826"
       inkscape:connector-curvature="0" />
  </g>
</svg>
