<?xml version="1.0" encoding="UTF-8" standalone="no"?>
<!-- Created with Inkscape (http://www.inkscape.org/) -->

<svg
   xmlns:dc="http://purl.org/dc/elements/1.1/"
   xmlns:cc="http://creativecommons.org/ns#"
   xmlns:rdf="http://www.w3.org/1999/02/22-rdf-syntax-ns#"
   xmlns:svg="http://www.w3.org/2000/svg"
   xmlns="http://www.w3.org/2000/svg"
   xmlns:sodipodi="http://sodipodi.sourceforge.net/DTD/sodipodi-0.dtd"
   xmlns:inkscape="http://www.inkscape.org/namespaces/inkscape"
   width="512"
   height="512"
   viewBox="0 0 512 512"
   version="1.1"
   id="svg8"
   sodipodi:docname="world-repo.svg"
   inkscape:version="0.92.2 (5c3e80d, 2017-08-06)">
  <defs
     id="defs2">
    <inkscape:path-effect
       effect="spiro"
       id="path-effect1523"
       is_visible="true" />
    <inkscape:path-effect
       effect="bspline"
       id="path-effect1519"
       is_visible="true"
       weight="33.333333"
       steps="2"
       helper_size="0"
       apply_no_weight="true"
       apply_with_weight="true"
       only_selected="false" />
  </defs>
  <sodipodi:namedview
     id="base"
     pagecolor="#ffffff"
     bordercolor="#666666"
     borderopacity="1.0"
     inkscape:pageopacity="0.0"
     inkscape:pageshadow="2"
     inkscape:zoom="0.7"
     inkscape:cx="143.74952"
     inkscape:cy="360.19842"
     inkscape:document-units="px"
     inkscape:current-layer="layer1"
     showgrid="false"
     units="px"
     inkscape:window-width="1366"
     inkscape:window-height="705"
     inkscape:window-x="-8"
     inkscape:window-y="-8"
     inkscape:window-maximized="1" />
  <metadata
     id="metadata5">
    <rdf:RDF>
      <cc:Work
         rdf:about="">
        <dc:format>image/svg+xml</dc:format>
        <dc:type
           rdf:resource="http://purl.org/dc/dcmitype/StillImage" />
        <dc:title></dc:title>
      </cc:Work>
    </rdf:RDF>
  </metadata>
  <g
     inkscape:label="Camada 1"
     inkscape:groupmode="layer"
     id="layer1"
     transform="translate(0,-161.53331)">
    <path
       style="opacity:1;fill:#1a1a1a;fill-opacity:1;fill-rule:nonzero;stroke:#e9f000;stroke-width:0;stroke-linejoin:round;stroke-miterlimit:4;stroke-dasharray:none;stroke-opacity:1;paint-order:fill markers stroke"
       d="M 256,0 A 256,256 0 0 0 0,256 256,256 0 0 0 256,512 256,256 0 0 0 512,256 256,256 0 0 0 256,0 Z m 0,32.857422 a 223.14287,223.14287 0 0 1 129.10938,41.341797 c -5.28295,1.708434 -25.31191,13.067007 -28.73243,12.582031 -3.89725,-0.55256 -7.11702,-12.388011 -11.1582,-15.207031 -0.25257,-0.17619 -0.62993,-0.241802 -1.11719,-0.208985 -7.30888,0.492266 -39.25551,23.10146 -42.94922,25.966797 -3.93994,3.056349 5.33047,22.322969 2.14649,26.011719 -3.18397,3.68874 -41.27797,16.80661 -47.25,22.85937 -5.97203,6.05279 -9.44841,16.73955 -7.04688,20.83008 2.23208,3.8019 22.78015,-8.10046 28.01953,-10.1582 5.23938,-2.05775 49.81997,11.87464 66.6836,29.60352 16.86362,17.72887 49.34247,64.60808 69.95312,61.87109 20.61066,-2.73698 7.6859,-24.35034 14.14063,-26.76758 6.14326,-2.3006 40.69653,36.71818 51.13281,38.63867 A 223.14287,223.14287 0 0 1 312.93555,471.62891 c -4.149,-10.59108 -28.33023,-19.91186 -61.22071,-19.72852 -1.16779,0.007 -2.34787,0.0258 -3.53711,0.0566 -21.64865,0.56137 -55.87862,7.33505 -72.32226,12.03516 A 223.14287,223.14287 0 0 1 58.228516,359.12695 c 1.019409,-3.22497 2.768149,-7.94415 5.5625,-12.91797 6.180365,-11.00078 16.852099,-21.51234 17.492187,-30.63281 0.901795,-12.84947 2.07565,-20.77357 -0.310547,-23.64062 -2.386197,-2.86706 -14.922901,-15.93914 -18.34375,-19.72071 -3.463293,-3.82849 -22.663854,-48.17872 -21.861328,-74.10351 a 223.14287,223.14287 0 0 1 38.113281,-77.37891 l 7.191407,0.55274 c 0,0 13.174411,-4.61188 21.427734,-5.35743 8.25332,-0.74555 20.26939,5.70572 27.57617,1.79102 7.30678,-3.9147 8.48803,-14.39224 9.37891,-19.330078 0.89089,-4.93784 23.58133,-18.734676 35.52734,-23.722656 15.35713,-6.42859 42.28771,-19.372688 44.30274,-18.023438 2.01503,1.34925 -6.96073,8.065469 -19.82422,16.730469 -15.63068,10.52902 -34.23015,24.195065 -29.63867,31.662113 4.59148,7.46704 40.19597,-7.782682 71.23828,-18.423832 19.00027,-6.51319 34.27657,-13.732244 38.47461,-15.177734 4.19805,-1.44549 0.95873,-11.44313 -3.46289,-13.71875 -4.42162,-2.27562 -10.93732,-0.253244 -15,-3.214844 C 262.00959,51.5384 262.73262,38.44687 262.14258,37 261.55255,35.55314 256,32.857422 256,32.857422 Z m 2.30859,145.685548 c -9.80364,-0.006 -33.01365,5.75854 -45.16601,16.77344 0,0 -26.67257,25.86889 -22.39649,40.94726 7.48704,26.40088 55.05322,33.99535 71.36329,39.7793 16.31004,5.78395 8.64875,114.94315 34.39062,115.24414 25.74187,0.30099 76.41416,-82.34215 78.50586,-84.37891 2.0917,-2.03677 26.49913,-15.10267 28.10937,-17.71093 1.61023,-2.60826 2.69257,-15.49741 2.60547,-19.60352 -0.0871,-4.1061 -19.6568,-8.39123 -29.87695,-17.85547 -10.22014,-9.46423 -18.74529,-37.47131 -25.82617,-39.7539 -7.08088,-2.28259 -53.46514,-15.22434 -55.59961,-16.18165 -2.13447,-0.95731 -0.83427,-7.88165 -2.48438,-9.55664 -1.65011,-1.67499 -23.41517,-6.79466 -31.84961,-7.625 -0.52715,-0.0519 -1.12181,-0.0777 -1.77539,-0.0781 z"
       transform="translate(0,161.53331)"
       id="path1508"
       inkscape:connector-curvature="0" />
  </g>
</svg>
